<?xml version="1.0" standalone="no"?>
<!DOCTYPE svg PUBLIC "-//W3C//DTD SVG 20010904//EN"
 "http://www.w3.org/TR/2001/REC-SVG-20010904/DTD/svg10.dtd">
<svg version="1.0" xmlns="http://www.w3.org/2000/svg"
 width="751.000000pt" height="751.000000pt" viewBox="0 0 751.000000 751.000000"
 preserveAspectRatio="xMidYMid meet">
<metadata>
Created by potrace 1.14, written by Peter Selinger 2001-2017
</metadata>
<g transform="translate(0.000000,751.000000) scale(0.100000,-0.100000)"
fill="#000000" stroke="none">
<path d="M5675 5311 c-11 -5 -23 -7 -27 -4 -14 8 -184 -29 -283 -62 -173 -57
-378 -167 -505 -271 -55 -46 -202 -195 -241 -244 -190 -241 -304 -526 -335
-840 -11 -106 2 -364 21 -430 2 -8 7 -28 9 -45 41 -233 215 -558 402 -751 60
-61 226 -204 238 -204 2 0 28 -16 57 -36 165 -112 423 -203 649 -231 96 -12
335 -8 415 6 39 7 82 14 96 16 14 3 66 16 115 30 549 157 979 619 1095 1175
27 128 33 194 33 330 0 113 -15 295 -24 295 -1 0 -3 9 -5 20 -5 35 -24 108
-44 171 -87 274 -262 531 -486 718 -96 79 -91 76 -175 128 -149 93 -338 170
-495 203 -38 7 -83 17 -100 21 -45 10 -387 14 -410 5z m-841 -1172 c28 -7 63
-17 78 -23 l26 -12 -20 -45 -19 -46 -62 19 c-73 23 -177 31 -228 18 -57 -16
-84 -44 -84 -92 0 -52 36 -83 138 -123 234 -92 285 -135 289 -247 4 -89 -40
-154 -131 -196 -51 -24 -67 -26 -176 -26 -94 0 -132 5 -175 20 -53 20 -55 21
-57 60 -1 21 1 46 3 56 4 15 7 15 35 1 79 -40 220 -55 300 -33 55 15 89 54 89
103 0 58 -43 94 -177 147 -168 67 -222 108 -244 182 -36 115 48 220 196 247
53 10 156 5 219 -10z m1485 7 c87 -19 148 -78 171 -165 9 -35 17 -430 11 -581
-1 -24 -4 -26 -48 -24 -27 1 -52 2 -58 3 -6 1 -10 101 -10 279 -1 255 -2 280
-20 317 -29 57 -71 78 -158 78 -102 0 -159 -31 -200 -108 -20 -37 -22 -58 -25
-295 -1 -140 -4 -260 -6 -265 -2 -6 -28 -10 -57 -10 l-54 0 0 380 0 380 47 3
47 3 7 -50 c4 -28 8 -51 10 -51 2 0 22 18 45 40 67 64 186 90 298 66z m866
-10 c31 -8 59 -16 61 -19 4 -4 -26 -97 -31 -97 -2 0 -32 7 -67 16 -143 37
-248 -1 -297 -106 -22 -47 -26 -71 -28 -164 -1 -88 2 -118 18 -160 55 -140
166 -172 382 -110 15 5 17 -2 17 -46 0 -53 -6 -59 -75 -77 -46 -12 -188 -10
-232 3 -155 47 -231 172 -234 384 0 36 2 76 5 90 3 14 9 39 12 55 10 46 48
116 83 153 86 89 231 119 386 78z m-2007 -78 c17 -46 56 -148 87 -228 31 -80
71 -189 88 -242 l31 -97 49 142 c53 153 144 410 157 442 5 11 12 30 15 43 6
20 13 22 70 22 l65 0 -11 -27 c-24 -64 -216 -570 -271 -718 -33 -88 -71 -180
-84 -206 -58 -106 -128 -153 -232 -155 -106 -2 -112 1 -112 55 l0 46 81 0 81
0 42 46 c26 29 51 73 68 119 l27 73 -80 201 c-44 111 -85 212 -91 226 -6 14
-12 27 -13 30 -1 3 -5 14 -10 25 -13 32 -96 238 -106 263 -8 21 -7 22 55 22
l63 0 31 -82z"/>
<path d="M1107 4462 c-16 -3 -17 -48 -17 -545 l0 -542 58 0 57 1 2 541 2 541
-43 4 c-23 1 -50 2 -59 0z"/>
<path d="M2335 4462 c-20 -3 -20 -10 -19 -537 0 -294 4 -538 8 -542 4 -5 23
-8 41 -8 32 -1 35 2 46 47 6 26 14 48 18 48 4 0 20 -14 37 -31 49 -51 107 -72
204 -73 67 0 95 4 133 22 126 57 189 190 183 387 -2 55 -6 110 -10 123 -3 12
-8 30 -10 40 -16 65 -82 149 -140 179 -87 46 -204 48 -292 7 -22 -10 -41 -20
-44 -23 -3 -4 -19 -18 -35 -33 l-30 -27 3 212 3 212 -38 0 c-21 0 -47 -1 -58
-3z m419 -427 c82 -39 118 -135 112 -299 -2 -56 -9 -114 -16 -131 -7 -16 -12
-34 -12 -38 4 -16 -88 -95 -119 -101 -115 -23 -217 16 -254 99 -34 76 -42 274
-14 355 24 70 70 116 127 126 15 3 28 7 29 8 10 10 116 -5 147 -19z"/>
<path d="M4000 4460 c-12 -8 -18 -1066 -6 -1077 8 -8 106 -11 107 -4 1 3 2
248 3 544 l1 537 -25 1 c-14 0 -35 2 -47 3 -12 1 -27 -1 -33 -4z"/>
<path d="M397 4396 c-26 -7 -50 -14 -52 -15 -6 -1 -11 -3 -22 -5 -5 -1 -33
-15 -63 -30 -121 -63 -214 -199 -236 -346 -31 -210 23 -411 140 -517 48 -43
95 -73 136 -86 8 -2 20 -6 25 -8 82 -26 283 -33 380 -14 54 10 149 35 153 40
6 6 7 483 1 489 -7 7 -47 8 -199 7 l-145 -1 1 -52 0 -53 110 -1 c60 -1 111 -2
114 -3 8 -2 5 -299 -3 -308 -4 -4 -15 -8 -25 -10 -375 -63 -567 68 -570 389
-1 101 19 196 52 253 100 169 314 225 549 143 32 -11 59 -18 60 -17 1 2 12 25
25 52 l22 48 -28 10 c-110 43 -328 61 -425 35z"/>
<path d="M1668 4144 c-32 -8 -75 -24 -96 -38 -60 -38 -124 -119 -137 -174 -3
-10 -8 -33 -13 -52 -14 -55 -14 -165 -2 -228 39 -191 172 -296 363 -288 90 4
174 40 228 97 38 41 79 113 79 140 0 9 3 19 7 23 18 18 17 205 -1 274 -52 194
-223 292 -428 246z m196 -109 c84 -40 127 -134 127 -273 -1 -205 -77 -302
-238 -302 -147 0 -232 128 -220 333 7 111 41 188 102 229 22 14 42 25 45 23 3
-2 12 0 19 4 21 14 126 4 165 -14z"/>
<path d="M3425 4152 c-38 -4 -120 -27 -168 -47 l-37 -15 15 -38 c22 -51 26
-54 59 -37 51 27 120 42 181 40 89 -3 139 -35 150 -99 9 -45 13 -99 8 -112 -2
-6 -35 -11 -75 -12 -226 -6 -340 -45 -393 -137 -29 -49 -36 -113 -20 -175 16
-59 30 -81 73 -111 51 -35 104 -48 185 -44 87 4 132 22 188 75 38 36 52 42 55
22 13 -86 14 -88 57 -87 l42 1 0 309 c0 298 -1 312 -22 350 -11 22 -36 53 -54
67 -43 36 -157 59 -244 50z m207 -462 c-3 -70 -7 -91 -25 -127 -35 -66 -105
-102 -200 -103 -98 0 -147 41 -147 125 0 78 32 117 114 140 74 20 82 21 176
21 l85 -1 -3 -55z"/>
</g>
</svg>
