<?xml version="1.0" encoding="UTF-8"?>
<svg xmlns="http://www.w3.org/2000/svg" version="1.1" width="350" height="350" viewBox="0 0 350 350"><rect x="0" y="0" width="350" height="350" fill="#ffffff"/><g transform="scale(9.459)"><g transform="translate(0,0)"><path fill-rule="evenodd" d="M9 0L9 1L8 1L8 2L9 2L9 5L8 5L8 8L4 8L4 9L0 9L0 12L1 12L1 11L2 11L2 13L3 13L3 14L2 14L2 15L1 15L1 14L0 14L0 15L1 15L1 16L2 16L2 17L3 17L3 16L4 16L4 15L3 15L3 14L4 14L4 11L3 11L3 10L5 10L5 12L6 12L6 13L7 13L7 14L6 14L6 15L9 15L9 13L8 13L8 12L10 12L10 17L8 17L8 16L6 16L6 17L7 17L7 18L3 18L3 22L4 22L4 23L2 23L2 22L1 22L1 21L2 21L2 20L1 20L1 21L0 21L0 22L1 22L1 23L0 23L0 24L3 24L3 25L2 25L2 26L3 26L3 25L5 25L5 27L3 27L3 28L0 28L0 29L4 29L4 28L5 28L5 29L7 29L7 28L6 28L6 27L8 27L8 33L9 33L9 35L10 35L10 36L9 36L9 37L10 37L10 36L12 36L12 37L13 37L13 34L12 34L12 33L14 33L14 32L13 32L13 31L15 31L15 34L14 34L14 35L15 35L15 37L17 37L17 33L18 33L18 32L19 32L19 33L20 33L20 31L24 31L24 32L22 32L22 34L23 34L23 33L25 33L25 34L26 34L26 35L27 35L27 34L26 34L26 33L27 33L27 32L26 32L26 33L25 33L25 30L26 30L26 29L27 29L27 28L26 28L26 29L25 29L25 30L24 30L24 29L22 29L22 28L24 28L24 27L26 27L26 26L27 26L27 27L29 27L29 28L28 28L28 35L29 35L29 37L31 37L31 36L32 36L32 37L37 37L37 36L36 36L36 34L35 34L35 33L37 33L37 31L36 31L36 30L34 30L34 29L33 29L33 28L32 28L32 27L34 27L34 28L36 28L36 29L37 29L37 28L36 28L36 26L34 26L34 25L35 25L35 24L36 24L36 25L37 25L37 23L36 23L36 22L35 22L35 23L34 23L34 22L33 22L33 21L32 21L32 22L33 22L33 23L34 23L34 25L33 25L33 24L32 24L32 23L31 23L31 24L30 24L30 23L29 23L29 24L25 24L25 23L28 23L28 20L29 20L29 22L30 22L30 21L31 21L31 19L30 19L30 20L29 20L29 18L30 18L30 17L31 17L31 18L33 18L33 20L34 20L34 21L35 21L35 20L37 20L37 19L35 19L35 18L33 18L33 17L36 17L36 16L37 16L37 15L36 15L36 12L37 12L37 11L36 11L36 12L35 12L35 11L34 11L34 12L35 12L35 13L34 13L34 14L33 14L33 13L32 13L32 12L30 12L30 10L31 10L31 11L33 11L33 10L36 10L36 8L35 8L35 9L32 9L32 8L30 8L30 10L29 10L29 9L28 9L28 8L27 8L27 9L26 9L26 8L23 8L23 5L24 5L24 4L25 4L25 6L24 6L24 7L25 7L25 6L26 6L26 7L27 7L27 6L26 6L26 5L28 5L28 7L29 7L29 5L28 5L28 4L27 4L27 3L29 3L29 2L27 2L27 1L28 1L28 0L27 0L27 1L26 1L26 0L25 0L25 1L24 1L24 0L23 0L23 1L22 1L22 0L19 0L19 1L18 1L18 0L17 0L17 1L15 1L15 0L13 0L13 1L12 1L12 0L11 0L11 1L10 1L10 0ZM9 1L9 2L10 2L10 1ZM11 1L11 2L12 2L12 3L11 3L11 4L10 4L10 5L9 5L9 7L10 7L10 10L7 10L7 9L5 9L5 10L7 10L7 11L6 11L6 12L7 12L7 11L10 11L10 12L12 12L12 13L11 13L11 15L12 15L12 13L16 13L16 14L13 14L13 17L12 17L12 16L11 16L11 19L12 19L12 18L13 18L13 17L14 17L14 15L17 15L17 14L18 14L18 13L19 13L19 14L20 14L20 15L18 15L18 16L17 16L17 17L15 17L15 18L14 18L14 19L13 19L13 20L12 20L12 21L15 21L15 22L12 22L12 23L13 23L13 24L11 24L11 22L10 22L10 23L9 23L9 24L7 24L7 23L6 23L6 24L5 24L5 25L6 25L6 26L9 26L9 24L10 24L10 26L11 26L11 27L9 27L9 29L10 29L10 28L12 28L12 29L13 29L13 30L11 30L11 31L13 31L13 30L14 30L14 29L13 29L13 27L12 27L12 26L13 26L13 24L14 24L14 25L15 25L15 24L16 24L16 23L15 23L15 22L16 22L16 21L15 21L15 20L18 20L18 23L17 23L17 25L18 25L18 26L20 26L20 27L21 27L21 26L22 26L22 25L23 25L23 26L24 26L24 25L25 25L25 24L24 24L24 23L25 23L25 22L23 22L23 21L26 21L26 22L27 22L27 20L28 20L28 19L27 19L27 17L26 17L26 16L27 16L27 13L28 13L28 11L29 11L29 10L28 10L28 9L27 9L27 10L25 10L25 9L24 9L24 10L25 10L25 13L24 13L24 12L22 12L22 10L21 10L21 9L23 9L23 8L22 8L22 5L23 5L23 4L24 4L24 1L23 1L23 2L21 2L21 1L20 1L20 3L23 3L23 4L21 4L21 7L20 7L20 6L19 6L19 5L20 5L20 4L19 4L19 2L16 2L16 3L15 3L15 1L13 1L13 2L12 2L12 1ZM25 1L25 3L26 3L26 1ZM13 2L13 3L12 3L12 4L11 4L11 5L10 5L10 7L11 7L11 5L12 5L12 7L13 7L13 6L14 6L14 8L16 8L16 7L17 7L17 6L18 6L18 8L20 8L20 7L19 7L19 6L18 6L18 5L19 5L19 4L18 4L18 3L16 3L16 5L14 5L14 4L13 4L13 3L14 3L14 2ZM12 4L12 5L13 5L13 4ZM16 5L16 6L15 6L15 7L16 7L16 6L17 6L17 5ZM8 8L8 9L9 9L9 8ZM12 8L12 9L13 9L13 10L17 10L17 9L13 9L13 8ZM18 9L18 12L16 12L16 13L18 13L18 12L19 12L19 11L21 11L21 10L20 10L20 9ZM31 9L31 10L32 10L32 9ZM10 10L10 11L12 11L12 12L14 12L14 11L12 11L12 10ZM27 10L27 11L26 11L26 13L25 13L25 14L26 14L26 13L27 13L27 11L28 11L28 10ZM20 12L20 14L21 14L21 17L20 17L20 19L21 19L21 20L19 20L19 21L22 21L22 19L23 19L23 20L25 20L25 18L24 18L24 17L22 17L22 16L25 16L25 15L24 15L24 14L23 14L23 13L22 13L22 12ZM29 12L29 13L30 13L30 14L28 14L28 15L30 15L30 14L32 14L32 13L30 13L30 12ZM21 13L21 14L22 14L22 13ZM31 15L31 16L32 16L32 17L33 17L33 16L34 16L34 15ZM29 16L29 17L28 17L28 18L29 18L29 17L30 17L30 16ZM17 17L17 19L19 19L19 17ZM1 18L1 19L2 19L2 18ZM7 18L7 19L6 19L6 20L5 20L5 19L4 19L4 20L5 20L5 21L4 21L4 22L5 22L5 21L6 21L6 22L9 22L9 21L11 21L11 20L9 20L9 19L10 19L10 18ZM15 18L15 19L16 19L16 18ZM21 18L21 19L22 19L22 18ZM7 19L7 20L6 20L6 21L9 21L9 20L8 20L8 19ZM26 19L26 20L27 20L27 19ZM19 22L19 23L20 23L20 24L19 24L19 25L20 25L20 26L21 26L21 25L22 25L22 24L23 24L23 25L24 25L24 24L23 24L23 23L22 23L22 22ZM6 24L6 25L7 25L7 24ZM20 24L20 25L21 25L21 24ZM31 24L31 27L32 27L32 24ZM0 25L0 26L1 26L1 25ZM11 25L11 26L12 26L12 25ZM27 25L27 26L28 26L28 25ZM29 25L29 26L30 26L30 25ZM14 26L14 27L16 27L16 29L17 29L17 30L21 30L21 28L19 28L19 27L18 27L18 29L17 29L17 27L16 27L16 26ZM29 29L29 32L32 32L32 29ZM9 30L9 31L10 31L10 30ZM30 30L30 31L31 31L31 30ZM16 31L16 33L17 33L17 31ZM33 31L33 32L34 32L34 31ZM35 31L35 32L36 32L36 31ZM9 32L9 33L10 33L10 35L12 35L12 34L11 34L11 33L12 33L12 32L11 32L11 33L10 33L10 32ZM29 33L29 34L30 34L30 33ZM31 33L31 34L32 34L32 36L33 36L33 33ZM15 34L15 35L16 35L16 34ZM18 34L18 37L19 37L19 36L21 36L21 35L19 35L19 34ZM34 34L34 35L35 35L35 34ZM24 35L24 36L23 36L23 37L25 37L25 35ZM30 35L30 36L31 36L31 35ZM0 0L0 7L7 7L7 0ZM1 1L1 6L6 6L6 1ZM2 2L2 5L5 5L5 2ZM30 0L30 7L37 7L37 0ZM31 1L31 6L36 6L36 1ZM32 2L32 5L35 5L35 2ZM0 30L0 37L7 37L7 30ZM1 31L1 36L6 36L6 31ZM2 32L2 35L5 35L5 32Z" fill="#000000"/></g></g></svg>
