<?xml version="1.0" encoding="UTF-8"?>
<svg xmlns="http://www.w3.org/2000/svg" version="1.1" width="350" height="350" viewBox="0 0 350 350"><rect x="0" y="0" width="350" height="350" fill="#ffffff"/><g transform="scale(9.459)"><g transform="translate(0,0)"><path fill-rule="evenodd" d="M8 0L8 1L10 1L10 0ZM11 0L11 3L12 3L12 4L10 4L10 2L9 2L9 3L8 3L8 4L9 4L9 6L8 6L8 7L9 7L9 8L8 8L8 9L7 9L7 8L4 8L4 10L6 10L6 11L2 11L2 10L1 10L1 9L0 9L0 12L1 12L1 11L2 11L2 14L3 14L3 15L2 15L2 16L1 16L1 17L0 17L0 19L1 19L1 20L2 20L2 19L3 19L3 20L4 20L4 21L5 21L5 22L3 22L3 24L4 24L4 23L5 23L5 24L6 24L6 25L8 25L8 26L6 26L6 27L5 27L5 28L3 28L3 29L8 29L8 30L9 30L9 31L8 31L8 33L9 33L9 34L8 34L8 35L9 35L9 34L12 34L12 33L13 33L13 32L14 32L14 30L15 30L15 27L16 27L16 26L17 26L17 25L16 25L16 26L15 26L15 27L14 27L14 26L13 26L13 25L12 25L12 26L10 26L10 28L11 28L11 29L8 29L8 28L9 28L9 27L8 27L8 26L9 26L9 25L11 25L11 24L14 24L14 25L15 25L15 24L16 24L16 23L17 23L17 19L21 19L21 20L19 20L19 21L18 21L18 23L19 23L19 24L22 24L22 25L23 25L23 26L19 26L19 25L18 25L18 26L19 26L19 27L20 27L20 28L19 28L19 29L18 29L18 27L17 27L17 28L16 28L16 31L15 31L15 33L14 33L14 34L15 34L15 37L17 37L17 36L18 36L18 37L19 37L19 36L18 36L18 35L22 35L22 37L23 37L23 35L22 35L22 34L24 34L24 37L26 37L26 35L25 35L25 34L27 34L27 35L28 35L28 37L34 37L34 35L33 35L33 33L34 33L34 34L36 34L36 35L35 35L35 37L37 37L37 36L36 36L36 35L37 35L37 28L36 28L36 27L37 27L37 21L36 21L36 19L37 19L37 17L36 17L36 16L37 16L37 13L36 13L36 12L37 12L37 8L36 8L36 10L35 10L35 9L34 9L34 8L33 8L33 9L34 9L34 10L33 10L33 11L34 11L34 10L35 10L35 11L36 11L36 12L34 12L34 13L33 13L33 14L34 14L34 15L35 15L35 18L34 18L34 16L33 16L33 18L32 18L32 17L31 17L31 16L32 16L32 14L31 14L31 12L30 12L30 11L32 11L32 9L30 9L30 8L29 8L29 2L28 2L28 1L29 1L29 0L27 0L27 2L28 2L28 4L27 4L27 3L26 3L26 4L25 4L25 3L24 3L24 0L21 0L21 1L22 1L22 2L20 2L20 4L19 4L19 3L18 3L18 4L16 4L16 5L18 5L18 8L19 8L19 11L18 11L18 9L17 9L17 10L16 10L16 9L15 9L15 8L17 8L17 6L16 6L16 7L15 7L15 6L14 6L14 7L15 7L15 8L12 8L12 9L11 9L11 6L12 6L12 7L13 7L13 6L12 6L12 4L13 4L13 5L14 5L14 3L15 3L15 0L14 0L14 2L13 2L13 3L12 3L12 1L13 1L13 0ZM16 0L16 2L17 2L17 0ZM19 0L19 1L18 1L18 2L19 2L19 1L20 1L20 0ZM22 2L22 4L23 4L23 5L24 5L24 6L23 6L23 7L22 7L22 5L20 5L20 6L19 6L19 8L20 8L20 9L21 9L21 8L22 8L22 9L24 9L24 10L25 10L25 11L24 11L24 12L25 12L25 11L26 11L26 10L27 10L27 15L26 15L26 14L25 14L25 15L26 15L26 16L27 16L27 15L28 15L28 17L27 17L27 20L26 20L26 21L24 21L24 20L23 20L23 21L21 21L21 22L20 22L20 21L19 21L19 22L20 22L20 23L21 23L21 22L22 22L22 23L23 23L23 25L24 25L24 26L23 26L23 27L21 27L21 28L20 28L20 29L19 29L19 31L20 31L20 29L21 29L21 33L23 33L23 32L24 32L24 31L26 31L26 32L27 32L27 33L28 33L28 31L26 31L26 30L24 30L24 29L25 29L25 28L24 28L24 27L25 27L25 25L26 25L26 26L27 26L27 27L26 27L26 28L27 28L27 29L28 29L28 26L27 26L27 24L28 24L28 23L30 23L30 24L31 24L31 25L30 25L30 26L29 26L29 27L31 27L31 28L33 28L33 32L34 32L34 33L35 33L35 32L36 32L36 30L35 30L35 29L36 29L36 28L35 28L35 27L36 27L36 26L35 26L35 25L36 25L36 24L35 24L35 23L36 23L36 22L35 22L35 19L34 19L34 18L33 18L33 19L32 19L32 18L31 18L31 19L32 19L32 21L31 21L31 23L30 23L30 21L27 21L27 20L30 20L30 19L28 19L28 18L30 18L30 16L29 16L29 14L30 14L30 15L31 15L31 14L30 14L30 12L28 12L28 11L30 11L30 10L27 10L27 8L28 8L28 6L27 6L27 5L24 5L24 3L23 3L23 2ZM18 4L18 5L19 5L19 4ZM9 6L9 7L10 7L10 6ZM20 6L20 7L21 7L21 6ZM24 6L24 8L26 8L26 7L27 7L27 6L26 6L26 7L25 7L25 6ZM2 8L2 9L3 9L3 8ZM6 9L6 10L7 10L7 11L6 11L6 12L5 12L5 13L6 13L6 14L7 14L7 15L5 15L5 17L4 17L4 16L3 16L3 17L4 17L4 18L3 18L3 19L4 19L4 20L5 20L5 19L6 19L6 20L8 20L8 19L9 19L9 18L11 18L11 19L10 19L10 21L9 21L9 22L8 22L8 21L6 21L6 22L5 22L5 23L6 23L6 24L8 24L8 25L9 25L9 24L10 24L10 23L12 23L12 22L13 22L13 23L14 23L14 24L15 24L15 23L16 23L16 21L15 21L15 20L16 20L16 19L17 19L17 17L19 17L19 18L20 18L20 17L21 17L21 18L22 18L22 17L21 17L21 15L22 15L22 16L23 16L23 19L26 19L26 17L25 17L25 16L23 16L23 15L24 15L24 14L23 14L23 11L22 11L22 14L21 14L21 13L19 13L19 12L18 12L18 11L15 11L15 10L14 10L14 9L13 9L13 12L12 12L12 10L11 10L11 9L8 9L8 10L7 10L7 9ZM25 9L25 10L26 10L26 9ZM8 10L8 12L11 12L11 13L10 13L10 14L9 14L9 13L7 13L7 12L6 12L6 13L7 13L7 14L8 14L8 16L6 16L6 17L8 17L8 18L9 18L9 17L8 17L8 16L9 16L9 15L10 15L10 17L11 17L11 16L12 16L12 17L13 17L13 18L12 18L12 19L11 19L11 21L12 21L12 20L13 20L13 21L14 21L14 19L15 19L15 18L16 18L16 14L15 14L15 13L14 13L14 12L13 12L13 14L12 14L12 12L11 12L11 10ZM20 10L20 12L21 12L21 10ZM17 12L17 15L18 15L18 16L19 16L19 15L20 15L20 14L18 14L18 12ZM0 13L0 14L1 14L1 13ZM3 13L3 14L4 14L4 13ZM28 13L28 14L29 14L29 13ZM35 13L35 15L36 15L36 13ZM11 14L11 15L12 15L12 16L13 16L13 15L14 15L14 14L13 14L13 15L12 15L12 14ZM22 14L22 15L23 15L23 14ZM1 17L1 18L2 18L2 17ZM14 17L14 18L15 18L15 17ZM24 17L24 18L25 18L25 17ZM4 18L4 19L5 19L5 18ZM6 18L6 19L7 19L7 18ZM33 19L33 20L34 20L34 19ZM26 21L26 23L24 23L24 25L25 25L25 24L26 24L26 23L27 23L27 21ZM33 21L33 22L32 22L32 23L33 23L33 22L34 22L34 21ZM0 22L0 24L1 24L1 26L0 26L0 27L1 27L1 28L0 28L0 29L1 29L1 28L2 28L2 27L3 27L3 26L2 26L2 24L1 24L1 23L2 23L2 22ZM6 22L6 23L8 23L8 24L9 24L9 23L8 23L8 22ZM14 22L14 23L15 23L15 22ZM32 24L32 25L33 25L33 24ZM1 26L1 27L2 27L2 26ZM12 26L12 27L11 27L11 28L12 28L12 29L11 29L11 30L12 30L12 32L10 32L10 31L9 31L9 32L10 32L10 33L12 33L12 32L13 32L13 30L14 30L14 29L13 29L13 26ZM34 26L34 27L35 27L35 26ZM6 27L6 28L7 28L7 27ZM34 28L34 29L35 29L35 28ZM17 29L17 31L18 31L18 29ZM29 29L29 32L32 32L32 29ZM22 30L22 32L23 32L23 30ZM30 30L30 31L31 31L31 30ZM34 30L34 31L35 31L35 30ZM15 33L15 34L16 34L16 33ZM19 33L19 34L20 34L20 33ZM30 33L30 34L29 34L29 35L30 35L30 36L33 36L33 35L31 35L31 34L32 34L32 33ZM10 35L10 36L11 36L11 37L14 37L14 35L13 35L13 36L12 36L12 35ZM16 35L16 36L17 36L17 35ZM0 0L0 7L7 7L7 0ZM1 1L1 6L6 6L6 1ZM2 2L2 5L5 5L5 2ZM30 0L30 7L37 7L37 0ZM31 1L31 6L36 6L36 1ZM32 2L32 5L35 5L35 2ZM0 30L0 37L7 37L7 30ZM1 31L1 36L6 36L6 31ZM2 32L2 35L5 35L5 32Z" fill="#000000"/></g></g></svg>
