<?xml version="1.0" encoding="UTF-8"?>
<svg xmlns="http://www.w3.org/2000/svg" version="1.1" width="200" height="200" viewBox="0 0 200 200"><rect x="0" y="0" width="200" height="200" fill="#ffffff"/><g transform="scale(5.405)"><g transform="translate(0,0)"><path fill-rule="evenodd" d="M10 0L10 1L8 1L8 2L9 2L9 5L8 5L8 8L4 8L4 9L2 9L2 11L4 11L4 10L5 10L5 12L6 12L6 13L9 13L9 12L10 12L10 14L8 14L8 17L9 17L9 20L8 20L8 18L6 18L6 17L7 17L7 16L6 16L6 15L7 15L7 14L5 14L5 13L4 13L4 12L2 12L2 13L1 13L1 9L0 9L0 13L1 13L1 14L0 14L0 15L1 15L1 16L2 16L2 17L3 17L3 16L5 16L5 17L4 17L4 18L3 18L3 21L4 21L4 19L7 19L7 20L6 20L6 21L5 21L5 22L3 22L3 23L2 23L2 22L0 22L0 23L1 23L1 25L0 25L0 26L1 26L1 25L2 25L2 27L3 27L3 28L0 28L0 29L4 29L4 28L5 28L5 29L7 29L7 28L6 28L6 27L8 27L8 33L9 33L9 34L10 34L10 35L11 35L11 34L12 34L12 32L13 32L13 33L14 33L14 32L13 32L13 31L15 31L15 34L14 34L14 35L15 35L15 37L16 37L16 36L17 36L17 37L18 37L18 36L19 36L19 37L20 37L20 36L21 36L21 35L19 35L19 34L17 34L17 33L18 33L18 32L19 32L19 33L20 33L20 34L21 34L21 32L19 32L19 31L20 31L20 29L19 29L19 31L18 31L18 27L19 27L19 28L21 28L21 27L20 27L20 26L23 26L23 25L20 25L20 24L22 24L22 22L19 22L19 23L20 23L20 24L19 24L19 25L20 25L20 26L18 26L18 25L17 25L17 24L16 24L16 23L18 23L18 21L22 21L22 19L23 19L23 20L25 20L25 18L24 18L24 17L22 17L22 16L25 16L25 15L24 15L24 14L23 14L23 13L25 13L25 14L26 14L26 13L27 13L27 16L26 16L26 17L27 17L27 19L26 19L26 20L27 20L27 22L25 22L25 21L24 21L24 22L23 22L23 23L24 23L24 25L25 25L25 27L24 27L24 28L22 28L22 29L21 29L21 31L24 31L24 32L22 32L22 34L23 34L23 36L24 36L24 37L25 37L25 36L24 36L24 35L25 35L25 34L26 34L26 35L27 35L27 34L26 34L26 33L27 33L27 32L26 32L26 33L24 33L24 32L25 32L25 30L26 30L26 29L27 29L27 28L26 28L26 29L25 29L25 30L24 30L24 28L25 28L25 27L26 27L26 26L27 26L27 27L28 27L28 35L29 35L29 37L31 37L31 36L32 36L32 37L37 37L37 36L36 36L36 34L35 34L35 33L37 33L37 31L36 31L36 30L34 30L34 29L35 29L35 28L36 28L36 29L37 29L37 28L36 28L36 26L35 26L35 27L34 27L34 28L31 28L31 27L33 27L33 26L34 26L34 25L35 25L35 24L36 24L36 25L37 25L37 23L36 23L36 22L35 22L35 23L34 23L34 22L33 22L33 21L32 21L32 22L33 22L33 23L34 23L34 25L32 25L32 26L29 26L29 27L28 27L28 26L27 26L27 25L28 25L28 24L27 24L27 25L26 25L26 23L28 23L28 20L29 20L29 22L30 22L30 23L29 23L29 25L31 25L31 24L32 24L32 23L31 23L31 22L30 22L30 21L31 21L31 19L30 19L30 20L29 20L29 18L30 18L30 17L31 17L31 18L33 18L33 20L34 20L34 21L37 21L37 19L36 19L36 20L35 20L35 18L33 18L33 17L36 17L36 16L37 16L37 15L36 15L36 12L37 12L37 11L36 11L36 12L35 12L35 11L34 11L34 14L33 14L33 13L32 13L32 12L33 12L33 11L32 11L32 10L36 10L36 8L35 8L35 9L32 9L32 8L30 8L30 9L32 9L32 10L31 10L31 11L32 11L32 12L30 12L30 10L29 10L29 9L28 9L28 8L27 8L27 5L28 5L28 7L29 7L29 5L28 5L28 4L27 4L27 3L29 3L29 2L27 2L27 1L28 1L28 0L27 0L27 1L26 1L26 0L25 0L25 1L24 1L24 0L23 0L23 1L22 1L22 0L19 0L19 1L20 1L20 2L23 2L23 1L24 1L24 3L25 3L25 6L24 6L24 7L23 7L23 6L22 6L22 4L23 4L23 3L20 3L20 5L19 5L19 2L17 2L17 1L15 1L15 0L12 0L12 1L15 1L15 3L16 3L16 2L17 2L17 5L16 5L16 8L15 8L15 6L14 6L14 5L12 5L12 4L13 4L13 3L14 3L14 2L12 2L12 4L11 4L11 5L10 5L10 3L11 3L11 2L10 2L10 1L11 1L11 0ZM25 1L25 3L26 3L26 1ZM9 5L9 7L10 7L10 10L7 10L7 9L5 9L5 10L7 10L7 11L6 11L6 12L7 12L7 11L10 11L10 12L12 12L12 11L14 11L14 12L13 12L13 13L12 13L12 16L10 16L10 15L11 15L11 14L10 14L10 15L9 15L9 17L11 17L11 18L10 18L10 20L9 20L9 21L8 21L8 20L7 20L7 21L6 21L6 22L9 22L9 21L10 21L10 23L9 23L9 24L7 24L7 23L6 23L6 24L5 24L5 25L4 25L4 23L3 23L3 26L4 26L4 27L5 27L5 25L6 25L6 26L9 26L9 24L10 24L10 26L11 26L11 27L9 27L9 30L10 30L10 31L9 31L9 33L11 33L11 32L12 32L12 31L11 31L11 30L10 30L10 28L12 28L12 29L13 29L13 30L14 30L14 28L15 28L15 27L14 27L14 28L13 28L13 27L12 27L12 26L15 26L15 25L16 25L16 26L17 26L17 25L16 25L16 24L15 24L15 23L13 23L13 22L14 22L14 21L15 21L15 22L17 22L17 21L18 21L18 19L19 19L19 18L21 18L21 19L20 19L20 20L21 20L21 19L22 19L22 18L21 18L21 17L19 17L19 15L20 15L20 16L21 16L21 15L20 15L20 14L22 14L22 13L20 13L20 12L23 12L23 11L19 11L19 12L18 12L18 9L20 9L20 10L23 10L23 9L22 9L22 8L23 8L23 7L22 7L22 6L21 6L21 7L20 7L20 6L19 6L19 5L18 5L18 6L17 6L17 8L16 8L16 10L15 10L15 8L14 8L14 6L13 6L13 7L12 7L12 5L11 5L11 7L10 7L10 5ZM18 6L18 8L20 8L20 7L19 7L19 6ZM25 6L25 8L26 8L26 6ZM21 7L21 8L22 8L22 7ZM8 8L8 9L9 9L9 8ZM12 8L12 9L14 9L14 8ZM26 9L26 10L24 10L24 12L25 12L25 13L26 13L26 11L27 11L27 12L29 12L29 13L30 13L30 14L28 14L28 15L30 15L30 14L32 14L32 13L30 13L30 12L29 12L29 11L28 11L28 9ZM10 10L10 11L12 11L12 10ZM14 10L14 11L15 11L15 10ZM14 12L14 13L13 13L13 14L14 14L14 13L15 13L15 14L16 14L16 13L17 13L17 15L14 15L14 17L12 17L12 20L13 20L13 19L14 19L14 18L15 18L15 19L16 19L16 18L15 18L15 17L18 17L18 18L19 18L19 17L18 17L18 14L20 14L20 13L18 13L18 12ZM2 13L2 14L1 14L1 15L2 15L2 14L3 14L3 15L5 15L5 14L3 14L3 13ZM31 15L31 16L32 16L32 17L33 17L33 16L34 16L34 15ZM29 16L29 17L28 17L28 18L29 18L29 17L30 17L30 16ZM1 18L1 19L2 19L2 18ZM27 19L27 20L28 20L28 19ZM1 20L1 21L2 21L2 20ZM10 20L10 21L11 21L11 24L13 24L13 25L14 25L14 24L13 24L13 23L12 23L12 22L13 22L13 21L11 21L11 20ZM15 20L15 21L16 21L16 20ZM6 24L6 25L7 25L7 24ZM11 25L11 26L12 26L12 25ZM16 28L16 29L17 29L17 28ZM22 29L22 30L23 30L23 29ZM29 29L29 32L32 32L32 29ZM30 30L30 31L31 31L31 30ZM10 31L10 32L11 32L11 31ZM16 31L16 33L17 33L17 32L18 32L18 31ZM33 31L33 32L34 32L34 31ZM35 31L35 32L36 32L36 31ZM23 33L23 34L24 34L24 33ZM29 33L29 34L30 34L30 33ZM31 33L31 34L32 34L32 36L33 36L33 33ZM15 34L15 35L16 35L16 34ZM34 34L34 35L35 35L35 34ZM12 35L12 37L13 37L13 35ZM17 35L17 36L18 36L18 35ZM30 35L30 36L31 36L31 35ZM9 36L9 37L10 37L10 36ZM0 0L0 7L7 7L7 0ZM1 1L1 6L6 6L6 1ZM2 2L2 5L5 5L5 2ZM30 0L30 7L37 7L37 0ZM31 1L31 6L36 6L36 1ZM32 2L32 5L35 5L35 2ZM0 30L0 37L7 37L7 30ZM1 31L1 36L6 36L6 31ZM2 32L2 35L5 35L5 32Z" fill="#000000"/></g></g></svg>
