<?xml version="1.0" encoding="UTF-8"?>
<svg xmlns="http://www.w3.org/2000/svg" version="1.1" width="350" height="350" viewBox="0 0 350 350"><rect x="0" y="0" width="350" height="350" fill="#ffffff"/><g transform="scale(8.537)"><g transform="translate(0,0)"><path fill-rule="evenodd" d="M9 0L9 1L10 1L10 0ZM11 0L11 2L8 2L8 4L9 4L9 6L8 6L8 7L9 7L9 9L10 9L10 10L9 10L9 12L11 12L11 11L12 11L12 13L10 13L10 14L8 14L8 12L6 12L6 13L5 13L5 11L7 11L7 10L8 10L8 8L6 8L6 9L7 9L7 10L5 10L5 8L3 8L3 9L4 9L4 13L3 13L3 11L1 11L1 10L2 10L2 9L1 9L1 10L0 10L0 12L2 12L2 14L1 14L1 13L0 13L0 16L1 16L1 15L2 15L2 18L1 18L1 19L0 19L0 20L2 20L2 21L0 21L0 22L1 22L1 23L2 23L2 21L3 21L3 25L4 25L4 22L6 22L6 23L5 23L5 24L6 24L6 25L5 25L5 26L4 26L4 30L5 30L5 31L7 31L7 30L8 30L8 32L6 32L6 33L8 33L8 35L9 35L9 36L8 36L8 38L10 38L10 39L11 39L11 40L13 40L13 41L20 41L20 40L22 40L22 41L23 41L23 40L22 40L22 39L21 39L21 38L23 38L23 39L24 39L24 41L25 41L25 38L26 38L26 39L27 39L27 40L26 40L26 41L29 41L29 40L28 40L28 38L29 38L29 39L30 39L30 41L31 41L31 39L30 39L30 38L32 38L32 37L35 37L35 39L34 39L34 38L33 38L33 39L34 39L34 40L32 40L32 41L34 41L34 40L35 40L35 39L36 39L36 41L37 41L37 40L39 40L39 39L40 39L40 40L41 40L41 35L40 35L40 34L39 34L39 35L40 35L40 36L39 36L39 37L38 37L38 38L36 38L36 37L37 37L37 36L38 36L38 33L41 33L41 30L40 30L40 31L38 31L38 30L39 30L39 29L40 29L40 28L41 28L41 24L39 24L39 25L38 25L38 23L39 23L39 19L40 19L40 20L41 20L41 18L40 18L40 17L41 17L41 12L40 12L40 11L39 11L39 10L38 10L38 11L37 11L37 12L38 12L38 11L39 11L39 13L36 13L36 16L37 16L37 17L35 17L35 18L33 18L33 17L34 17L34 16L33 16L33 15L34 15L34 14L35 14L35 12L34 12L34 14L33 14L33 13L32 13L32 12L31 12L31 15L30 15L30 14L29 14L29 12L30 12L30 10L29 10L29 9L31 9L31 10L33 10L33 6L32 6L32 8L31 8L31 5L32 5L32 4L33 4L33 1L31 1L31 0L30 0L30 1L29 1L29 3L32 3L32 4L28 4L28 5L30 5L30 8L29 8L29 9L24 9L24 10L22 10L22 11L20 11L20 10L19 10L19 9L18 9L18 11L17 11L17 6L16 6L16 7L15 7L15 5L16 5L16 4L18 4L18 5L19 5L19 6L18 6L18 7L19 7L19 6L20 6L20 7L21 7L21 9L23 9L23 8L24 8L24 7L25 7L25 8L27 8L27 6L26 6L26 4L27 4L27 3L28 3L28 2L27 2L27 0L25 0L25 2L23 2L23 1L24 1L24 0L22 0L22 1L21 1L21 0L20 0L20 2L18 2L18 1L19 1L19 0L17 0L17 1L16 1L16 2L15 2L15 1L14 1L14 0L13 0L13 1L14 1L14 2L12 2L12 0ZM30 1L30 2L31 2L31 1ZM16 2L16 3L9 3L9 4L10 4L10 6L9 6L9 7L10 7L10 6L11 6L11 8L12 8L12 6L11 6L11 4L12 4L12 5L13 5L13 7L14 7L14 9L12 9L12 11L13 11L13 13L12 13L12 15L11 15L11 14L10 14L10 16L8 16L8 17L6 17L6 16L7 16L7 15L5 15L5 16L4 16L4 17L3 17L3 18L2 18L2 19L4 19L4 20L3 20L3 21L4 21L4 20L5 20L5 21L6 21L6 22L7 22L7 23L6 23L6 24L7 24L7 25L6 25L6 26L5 26L5 28L7 28L7 29L5 29L5 30L7 30L7 29L9 29L9 30L10 30L10 29L12 29L12 28L13 28L13 27L14 27L14 26L12 26L12 25L15 25L15 24L14 24L14 22L13 22L13 21L14 21L14 20L15 20L15 19L14 19L14 18L15 18L15 17L12 17L12 15L13 15L13 16L15 16L15 15L16 15L16 20L17 20L17 21L15 21L15 23L16 23L16 22L18 22L18 23L19 23L19 24L20 24L20 26L19 26L19 27L18 27L18 28L17 28L17 27L16 27L16 26L15 26L15 28L14 28L14 31L15 31L15 32L17 32L17 33L19 33L19 35L17 35L17 34L16 34L16 35L15 35L15 34L14 34L14 32L13 32L13 33L12 33L12 34L11 34L11 31L9 31L9 35L10 35L10 36L9 36L9 37L10 37L10 38L11 38L11 39L13 39L13 38L11 38L11 37L13 37L13 36L14 36L14 37L15 37L15 40L17 40L17 39L18 39L18 40L20 40L20 39L19 39L19 38L20 38L20 37L21 37L21 36L22 36L22 37L23 37L23 33L26 33L26 32L24 32L24 31L27 31L27 32L28 32L28 34L29 34L29 36L28 36L28 35L27 35L27 34L26 34L26 35L25 35L25 34L24 34L24 35L25 35L25 36L26 36L26 37L27 37L27 36L28 36L28 37L29 37L29 36L30 36L30 37L31 37L31 36L30 36L30 35L31 35L31 34L32 34L32 32L33 32L33 31L35 31L35 32L37 32L37 33L38 33L38 32L37 32L37 31L35 31L35 30L34 30L34 29L37 29L37 30L38 30L38 29L39 29L39 28L38 28L38 29L37 29L37 28L36 28L36 27L37 27L37 26L38 26L38 27L40 27L40 26L38 26L38 25L37 25L37 24L36 24L36 23L38 23L38 22L36 22L36 23L35 23L35 21L37 21L37 20L38 20L38 19L37 19L37 20L36 20L36 19L33 19L33 18L32 18L32 19L29 19L29 17L32 17L32 15L31 15L31 16L30 16L30 15L28 15L28 12L29 12L29 10L28 10L28 12L27 12L27 10L26 10L26 11L25 11L25 10L24 10L24 12L25 12L25 13L23 13L23 11L22 11L22 12L21 12L21 13L20 13L20 11L19 11L19 12L16 12L16 11L15 11L15 10L14 10L14 9L15 9L15 7L14 7L14 4L16 4L16 3L18 3L18 4L21 4L21 7L22 7L22 8L23 8L23 7L24 7L24 6L25 6L25 7L26 7L26 6L25 6L25 5L24 5L24 4L23 4L23 3L22 3L22 4L21 4L21 3L18 3L18 2ZM25 3L25 4L26 4L26 3ZM23 5L23 6L22 6L22 7L23 7L23 6L24 6L24 5ZM28 6L28 7L29 7L29 6ZM37 8L37 9L35 9L35 10L37 10L37 9L39 9L39 8ZM10 10L10 11L11 11L11 10ZM14 11L14 12L15 12L15 13L13 13L13 14L14 14L14 15L15 15L15 13L16 13L16 12L15 12L15 11ZM26 12L26 13L25 13L25 14L26 14L26 15L25 15L25 16L23 16L23 17L19 17L19 19L18 19L18 16L17 16L17 20L19 20L19 21L21 21L21 22L22 22L22 20L19 20L19 19L21 19L21 18L23 18L23 19L24 19L24 18L25 18L25 16L26 16L26 17L27 17L27 18L26 18L26 19L25 19L25 21L24 21L24 20L23 20L23 22L24 22L24 23L21 23L21 24L22 24L22 25L21 25L21 26L20 26L20 27L19 27L19 28L20 28L20 29L19 29L19 30L20 30L20 31L19 31L19 33L20 33L20 34L22 34L22 33L20 33L20 31L24 31L24 30L25 30L25 29L24 29L24 30L23 30L23 27L22 27L22 30L20 30L20 29L21 29L21 28L20 28L20 27L21 27L21 26L22 26L22 25L23 25L23 24L24 24L24 25L26 25L26 24L25 24L25 23L26 23L26 22L25 22L25 21L27 21L27 27L26 27L26 28L27 28L27 29L28 29L28 30L27 30L27 31L28 31L28 30L31 30L31 29L32 29L32 31L33 31L33 29L34 29L34 27L35 27L35 25L36 25L36 26L37 26L37 25L36 25L36 24L35 24L35 23L34 23L34 27L33 27L33 25L32 25L32 26L31 26L31 24L33 24L33 23L31 23L31 24L30 24L30 23L29 23L29 24L28 24L28 21L29 21L29 20L28 20L28 17L27 17L27 16L28 16L28 15L27 15L27 14L26 14L26 13L27 13L27 12ZM6 13L6 14L7 14L7 13ZM19 13L19 14L18 14L18 15L19 15L19 16L20 16L20 13ZM22 13L22 14L21 14L21 15L24 15L24 14L23 14L23 13ZM2 14L2 15L4 15L4 14ZM37 14L37 16L38 16L38 18L39 18L39 16L38 16L38 15L40 15L40 14ZM26 15L26 16L27 16L27 15ZM4 17L4 18L5 18L5 20L6 20L6 21L8 21L8 23L7 23L7 24L8 24L8 25L7 25L7 26L6 26L6 27L7 27L7 28L8 28L8 27L9 27L9 26L10 26L10 27L11 27L11 28L12 28L12 27L11 27L11 26L10 26L10 25L11 25L11 23L10 23L10 22L12 22L12 24L13 24L13 22L12 22L12 21L10 21L10 22L9 22L9 20L10 20L10 18L11 18L11 17L9 17L9 20L8 20L8 18L5 18L5 17ZM23 17L23 18L24 18L24 17ZM6 19L6 20L7 20L7 19ZM11 19L11 20L14 20L14 19ZM26 19L26 20L27 20L27 19ZM30 20L30 21L31 21L31 22L32 22L32 21L33 21L33 22L34 22L34 21L35 21L35 20ZM19 22L19 23L20 23L20 22ZM8 23L8 24L10 24L10 23ZM1 24L1 26L0 26L0 27L2 27L2 24ZM29 24L29 25L28 25L28 26L30 26L30 24ZM8 25L8 26L9 26L9 25ZM24 26L24 28L25 28L25 26ZM27 27L27 28L28 28L28 27ZM29 27L29 29L31 29L31 27ZM32 27L32 28L33 28L33 27ZM0 28L0 33L3 33L3 32L4 32L4 33L5 33L5 32L4 32L4 31L3 31L3 28L2 28L2 29L1 29L1 28ZM15 28L15 31L16 31L16 28ZM17 29L17 30L18 30L18 29ZM12 30L12 31L13 31L13 30ZM2 31L2 32L3 32L3 31ZM17 31L17 32L18 32L18 31ZM29 32L29 34L31 34L31 33L30 33L30 32ZM33 33L33 36L36 36L36 33ZM10 34L10 35L11 35L11 36L13 36L13 34L12 34L12 35L11 35L11 34ZM34 34L34 35L35 35L35 34ZM14 35L14 36L15 36L15 37L16 37L16 38L18 38L18 37L19 37L19 36L17 36L17 35L16 35L16 36L15 36L15 35ZM20 35L20 36L21 36L21 35ZM38 38L38 39L39 39L39 38ZM0 0L0 7L7 7L7 0ZM1 1L1 6L6 6L6 1ZM2 2L2 5L5 5L5 2ZM34 0L34 7L41 7L41 0ZM35 1L35 6L40 6L40 1ZM36 2L36 5L39 5L39 2ZM0 34L0 41L7 41L7 34ZM1 35L1 40L6 40L6 35ZM2 36L2 39L5 39L5 36Z" fill="#000000"/></g></g></svg>
