<?xml version="1.0" encoding="UTF-8"?>
<svg xmlns="http://www.w3.org/2000/svg" version="1.1" width="350" height="350" viewBox="0 0 350 350"><rect x="0" y="0" width="350" height="350" fill="#ffffff"/><g transform="scale(8.537)"><g transform="translate(0,0)"><path fill-rule="evenodd" d="M12 0L12 1L11 1L11 2L12 2L12 3L11 3L11 5L10 5L10 3L9 3L9 1L8 1L8 7L9 7L9 8L5 8L5 9L3 9L3 8L2 8L2 9L1 9L1 10L0 10L0 11L3 11L3 12L4 12L4 13L3 13L3 14L2 14L2 13L1 13L1 14L0 14L0 15L3 15L3 16L1 16L1 17L0 17L0 18L1 18L1 19L2 19L2 18L3 18L3 17L5 17L5 20L4 20L4 19L3 19L3 21L4 21L4 23L7 23L7 24L6 24L6 25L9 25L9 26L10 26L10 29L11 29L11 28L12 28L12 31L10 31L10 30L9 30L9 29L8 29L8 28L9 28L9 27L8 27L8 26L5 26L5 25L4 25L4 26L5 26L5 27L2 27L2 26L1 26L1 25L2 25L2 23L1 23L1 22L2 22L2 21L1 21L1 22L0 22L0 23L1 23L1 24L0 24L0 28L1 28L1 27L2 27L2 28L5 28L5 27L7 27L7 28L6 28L6 29L5 29L5 31L7 31L7 32L4 32L4 31L3 31L3 29L2 29L2 30L0 30L0 31L2 31L2 32L0 32L0 33L2 33L2 32L4 32L4 33L8 33L8 36L9 36L9 38L8 38L8 39L9 39L9 38L10 38L10 41L11 41L11 40L12 40L12 36L13 36L13 35L11 35L11 34L10 34L10 33L13 33L13 34L14 34L14 33L15 33L15 32L14 32L14 33L13 33L13 32L12 32L12 31L13 31L13 28L14 28L14 27L12 27L12 26L10 26L10 25L11 25L11 24L12 24L12 23L14 23L14 24L15 24L15 26L16 26L16 28L15 28L15 29L16 29L16 33L17 33L17 34L18 34L18 35L19 35L19 33L20 33L20 36L21 36L21 38L22 38L22 36L23 36L23 38L24 38L24 39L25 39L25 38L24 38L24 37L26 37L26 35L25 35L25 31L24 31L24 30L22 30L22 32L23 32L23 31L24 31L24 33L23 33L23 34L22 34L22 33L20 33L20 30L21 30L21 29L20 29L20 28L21 28L21 27L19 27L19 26L18 26L18 25L20 25L20 26L22 26L22 25L23 25L23 24L22 24L22 23L23 23L23 22L24 22L24 23L25 23L25 22L24 22L24 20L25 20L25 21L26 21L26 22L27 22L27 25L26 25L26 24L24 24L24 26L23 26L23 27L25 27L25 26L26 26L26 27L29 27L29 26L28 26L28 25L29 25L29 21L30 21L30 22L31 22L31 23L30 23L30 25L31 25L31 26L30 26L30 28L32 28L32 31L31 31L31 30L29 30L29 31L30 31L30 32L26 32L26 34L27 34L27 35L28 35L28 36L29 36L29 37L27 37L27 39L26 39L26 40L24 40L24 41L28 41L28 40L29 40L29 39L28 39L28 38L30 38L30 35L28 35L28 34L30 34L30 32L32 32L32 34L31 34L31 38L32 38L32 40L30 40L30 41L35 41L35 40L33 40L33 39L34 39L34 38L32 38L32 37L35 37L35 38L36 38L36 39L37 39L37 40L36 40L36 41L39 41L39 40L38 40L38 39L41 39L41 36L39 36L39 38L37 38L37 36L38 36L38 35L37 35L37 34L39 34L39 35L41 35L41 28L39 28L39 29L38 29L38 30L35 30L35 31L33 31L33 29L35 29L35 28L33 28L33 27L32 27L32 25L31 25L31 24L33 24L33 23L32 23L32 22L34 22L34 23L35 23L35 24L34 24L34 25L36 25L36 24L37 24L37 28L38 28L38 27L39 27L39 26L40 26L40 27L41 27L41 26L40 26L40 25L41 25L41 21L40 21L40 24L39 24L39 26L38 26L38 24L37 24L37 23L39 23L39 22L38 22L38 19L40 19L40 20L41 20L41 17L40 17L40 15L41 15L41 10L40 10L40 8L35 8L35 10L34 10L34 11L35 11L35 12L34 12L34 13L35 13L35 12L38 12L38 11L39 11L39 10L40 10L40 13L39 13L39 14L38 14L38 15L39 15L39 18L38 18L38 17L37 17L37 18L35 18L35 15L37 15L37 14L35 14L35 15L34 15L34 14L33 14L33 15L34 15L34 16L31 16L31 17L32 17L32 18L29 18L29 19L28 19L28 17L30 17L30 16L29 16L29 14L31 14L31 15L32 15L32 14L31 14L31 13L32 13L32 12L31 12L31 11L32 11L32 7L33 7L33 6L32 6L32 7L31 7L31 6L30 6L30 5L31 5L31 4L32 4L32 3L31 3L31 1L32 1L32 2L33 2L33 1L32 1L32 0L30 0L30 1L29 1L29 2L27 2L27 3L28 3L28 4L29 4L29 5L28 5L28 7L29 7L29 6L30 6L30 7L31 7L31 8L30 8L30 10L28 10L28 9L27 9L27 8L26 8L26 9L25 9L25 10L26 10L26 9L27 9L27 12L26 12L26 13L25 13L25 11L24 11L24 10L23 10L23 9L24 9L24 8L25 8L25 6L26 6L26 7L27 7L27 6L26 6L26 5L25 5L25 4L24 4L24 3L26 3L26 2L25 2L25 1L26 1L26 0L24 0L24 1L23 1L23 2L22 2L22 1L21 1L21 2L20 2L20 5L17 5L17 4L18 4L18 3L19 3L19 1L20 1L20 0L19 0L19 1L18 1L18 3L17 3L17 0L14 0L14 1L16 1L16 2L15 2L15 5L14 5L14 3L13 3L13 0ZM27 0L27 1L28 1L28 0ZM23 2L23 3L24 3L24 2ZM29 2L29 4L30 4L30 2ZM16 3L16 4L17 4L17 3ZM21 3L21 7L22 7L22 8L23 8L23 7L24 7L24 4L22 4L22 3ZM12 4L12 5L11 5L11 9L8 9L8 12L7 12L7 11L6 11L6 12L5 12L5 13L6 13L6 14L5 14L5 15L4 15L4 14L3 14L3 15L4 15L4 16L5 16L5 17L6 17L6 18L8 18L8 19L6 19L6 20L8 20L8 21L9 21L9 22L10 22L10 21L14 21L14 22L15 22L15 23L16 23L16 24L20 24L20 25L22 25L22 24L21 24L21 23L22 23L22 22L20 22L20 21L22 21L22 20L23 20L23 19L27 19L27 20L26 20L26 21L27 21L27 20L28 20L28 19L27 19L27 17L28 17L28 16L27 16L27 15L28 15L28 12L27 12L27 15L26 15L26 14L25 14L25 13L24 13L24 14L25 14L25 15L26 15L26 16L27 16L27 17L25 17L25 16L24 16L24 15L23 15L23 14L21 14L21 16L20 16L20 17L19 17L19 16L18 16L18 17L19 17L19 18L17 18L17 19L16 19L16 18L15 18L15 16L16 16L16 15L17 15L17 13L23 13L23 12L24 12L24 11L23 11L23 10L22 10L22 9L21 9L21 10L20 10L20 8L18 8L18 6L17 6L17 8L18 8L18 9L16 9L16 11L15 11L15 9L13 9L13 10L12 10L12 12L11 12L11 11L10 11L10 12L9 12L9 10L11 10L11 9L12 9L12 8L14 8L14 5L13 5L13 4ZM15 5L15 7L16 7L16 5ZM22 5L22 7L23 7L23 5ZM9 6L9 7L10 7L10 6ZM12 6L12 7L13 7L13 6ZM19 6L19 7L20 7L20 6ZM33 8L33 9L34 9L34 8ZM2 9L2 10L3 10L3 9ZM5 9L5 10L7 10L7 9ZM36 9L36 10L35 10L35 11L37 11L37 10L38 10L38 9ZM13 10L13 11L14 11L14 12L15 12L15 13L17 13L17 12L15 12L15 11L14 11L14 10ZM18 10L18 11L19 11L19 10ZM30 10L30 11L29 11L29 13L31 13L31 12L30 12L30 11L31 11L31 10ZM20 11L20 12L23 12L23 11ZM6 12L6 13L7 13L7 12ZM8 13L8 14L6 14L6 15L7 15L7 16L6 16L6 17L7 17L7 16L8 16L8 14L11 14L11 15L10 15L10 17L9 17L9 19L8 19L8 20L9 20L9 21L10 21L10 20L9 20L9 19L11 19L11 20L13 20L13 19L12 19L12 18L10 18L10 17L11 17L11 16L12 16L12 15L13 15L13 13ZM14 14L14 15L15 15L15 14ZM39 14L39 15L40 15L40 14ZM22 15L22 16L21 16L21 17L22 17L22 18L23 18L23 17L24 17L24 18L25 18L25 17L24 17L24 16L23 16L23 15ZM13 16L13 17L14 17L14 16ZM22 16L22 17L23 17L23 16ZM1 17L1 18L2 18L2 17ZM33 17L33 18L32 18L32 19L31 19L31 21L33 21L33 20L35 20L35 21L36 21L36 22L37 22L37 21L36 21L36 20L37 20L37 19L33 19L33 18L34 18L34 17ZM14 18L14 19L15 19L15 20L14 20L14 21L16 21L16 22L17 22L17 23L18 23L18 22L19 22L19 21L20 21L20 20L22 20L22 19L20 19L20 18L19 18L19 19L17 19L17 20L16 20L16 19L15 19L15 18ZM19 19L19 20L20 20L20 19ZM29 19L29 20L30 20L30 19ZM32 19L32 20L33 20L33 19ZM17 20L17 22L18 22L18 20ZM6 21L6 22L7 22L7 23L8 23L8 24L11 24L11 23L12 23L12 22L11 22L11 23L8 23L8 22L7 22L7 21ZM17 26L17 27L18 27L18 26ZM34 26L34 27L36 27L36 26ZM16 28L16 29L19 29L19 30L17 30L17 33L18 33L18 31L19 31L19 30L20 30L20 29L19 29L19 28ZM25 28L25 29L26 29L26 28ZM27 28L27 29L28 29L28 28ZM6 29L6 30L7 30L7 31L8 31L8 33L10 33L10 32L9 32L9 31L8 31L8 30L7 30L7 29ZM39 29L39 30L38 30L38 31L37 31L37 33L39 33L39 34L40 34L40 33L39 33L39 31L40 31L40 29ZM14 30L14 31L15 31L15 30ZM27 30L27 31L28 31L28 30ZM35 31L35 32L36 32L36 31ZM27 33L27 34L28 34L28 33ZM33 33L33 36L36 36L36 33ZM21 34L21 36L22 36L22 34ZM23 34L23 36L24 36L24 34ZM34 34L34 35L35 35L35 34ZM10 35L10 36L11 36L11 35ZM16 35L16 38L17 38L17 39L16 39L16 40L14 40L14 38L13 38L13 40L14 40L14 41L16 41L16 40L17 40L17 41L19 41L19 39L20 39L20 37L19 37L19 36L18 36L18 37L17 37L17 35ZM14 36L14 37L15 37L15 36ZM10 37L10 38L11 38L11 37ZM18 37L18 39L19 39L19 37ZM21 39L21 40L23 40L23 39ZM40 40L40 41L41 41L41 40ZM0 0L0 7L7 7L7 0ZM1 1L1 6L6 6L6 1ZM2 2L2 5L5 5L5 2ZM34 0L34 7L41 7L41 0ZM35 1L35 6L40 6L40 1ZM36 2L36 5L39 5L39 2ZM0 34L0 41L7 41L7 34ZM1 35L1 40L6 40L6 35ZM2 36L2 39L5 39L5 36Z" fill="#000000"/></g></g></svg>
