<?xml version="1.0" encoding="UTF-8"?>
<svg xmlns="http://www.w3.org/2000/svg" version="1.1" width="350" height="350" viewBox="0 0 350 350"><rect x="0" y="0" width="350" height="350" fill="#ffffff"/><g transform="scale(8.537)"><g transform="translate(0,0)"><path fill-rule="evenodd" d="M8 0L8 3L9 3L9 4L10 4L10 5L8 5L8 10L6 10L6 11L5 11L5 10L4 10L4 9L5 9L5 8L2 8L2 9L0 9L0 10L1 10L1 11L0 11L0 14L1 14L1 16L0 16L0 17L1 17L1 16L2 16L2 13L3 13L3 11L4 11L4 12L6 12L6 13L4 13L4 14L6 14L6 15L7 15L7 16L5 16L5 15L4 15L4 16L5 16L5 18L4 18L4 17L3 17L3 18L2 18L2 20L1 20L1 19L0 19L0 20L1 20L1 21L0 21L0 22L2 22L2 21L3 21L3 22L4 22L4 23L1 23L1 24L0 24L0 25L1 25L1 26L0 26L0 27L1 27L1 28L2 28L2 29L0 29L0 33L1 33L1 30L4 30L4 32L6 32L6 33L7 33L7 32L8 32L8 30L9 30L9 28L11 28L11 27L9 27L9 25L11 25L11 26L13 26L13 28L12 28L12 29L13 29L13 31L12 31L12 30L11 30L11 32L10 32L10 33L11 33L11 35L9 35L9 36L8 36L8 39L9 39L9 37L10 37L10 36L11 36L11 38L10 38L10 39L11 39L11 40L9 40L9 41L12 41L12 40L15 40L15 41L17 41L17 37L18 37L18 40L19 40L19 41L20 41L20 40L19 40L19 38L20 38L20 39L22 39L22 38L23 38L23 39L24 39L24 40L22 40L22 41L26 41L26 40L27 40L27 41L31 41L31 39L32 39L32 40L33 40L33 41L34 41L34 39L36 39L36 40L35 40L35 41L37 41L37 38L38 38L38 37L39 37L39 40L40 40L40 38L41 38L41 37L40 37L40 34L41 34L41 33L40 33L40 32L41 32L41 31L40 31L40 32L35 32L35 30L34 30L34 29L36 29L36 31L37 31L37 29L38 29L38 31L39 31L39 30L41 30L41 29L40 29L40 27L39 27L39 28L38 28L38 27L36 27L36 28L35 28L35 26L34 26L34 25L33 25L33 24L34 24L34 23L33 23L33 21L34 21L34 22L36 22L36 21L37 21L37 22L38 22L38 21L39 21L39 22L41 22L41 19L40 19L40 18L41 18L41 16L37 16L37 15L38 15L38 14L37 14L37 13L39 13L39 12L40 12L40 14L41 14L41 12L40 12L40 11L39 11L39 12L38 12L38 11L37 11L37 13L36 13L36 10L37 10L37 9L36 9L36 8L32 8L32 7L33 7L33 6L32 6L32 7L31 7L31 5L33 5L33 4L31 4L31 3L30 3L30 4L31 4L31 5L29 5L29 2L28 2L28 1L26 1L26 0L25 0L25 1L24 1L24 0L22 0L22 1L21 1L21 2L18 2L18 4L19 4L19 5L16 5L16 2L17 2L17 1L18 1L18 0ZM19 0L19 1L20 1L20 0ZM30 0L30 2L31 2L31 0ZM32 0L32 1L33 1L33 0ZM9 1L9 2L10 2L10 3L11 3L11 5L10 5L10 6L9 6L9 8L10 8L10 9L11 9L11 10L10 10L10 11L9 11L9 10L8 10L8 11L6 11L6 12L8 12L8 11L9 11L9 14L10 14L10 15L8 15L8 13L6 13L6 14L7 14L7 15L8 15L8 17L9 17L9 18L7 18L7 17L6 17L6 18L5 18L5 19L3 19L3 20L4 20L4 22L5 22L5 24L3 24L3 27L2 27L2 28L3 28L3 29L4 29L4 30L5 30L5 31L6 31L6 32L7 32L7 31L6 31L6 30L7 30L7 29L8 29L8 28L9 28L9 27L5 27L5 25L6 25L6 26L8 26L8 25L9 25L9 24L8 24L8 23L9 23L9 22L11 22L11 21L12 21L12 22L13 22L13 21L14 21L14 20L15 20L15 19L14 19L14 17L15 17L15 18L17 18L17 19L16 19L16 21L17 21L17 23L16 23L16 22L14 22L14 24L13 24L13 26L15 26L15 24L17 24L17 25L21 25L21 26L20 26L20 27L22 27L22 28L21 28L21 29L22 29L22 30L21 30L21 31L18 31L18 34L19 34L19 36L18 36L18 37L19 37L19 36L20 36L20 34L19 34L19 33L20 33L20 32L21 32L21 33L22 33L22 30L23 30L23 31L24 31L24 32L25 32L25 33L23 33L23 34L21 34L21 37L20 37L20 38L22 38L22 35L23 35L23 34L24 34L24 35L25 35L25 33L26 33L26 34L27 34L27 33L28 33L28 31L29 31L29 34L28 34L28 36L29 36L29 37L30 37L30 39L29 39L29 40L30 40L30 39L31 39L31 37L32 37L32 39L33 39L33 37L32 37L32 36L31 36L31 35L32 35L32 34L31 34L31 33L32 33L32 32L34 32L34 30L33 30L33 29L34 29L34 28L33 28L33 29L31 29L31 27L32 27L32 26L33 26L33 27L34 27L34 26L33 26L33 25L32 25L32 26L31 26L31 27L29 27L29 26L30 26L30 25L29 25L29 24L31 24L31 23L32 23L32 22L30 22L30 21L32 21L32 20L33 20L33 19L32 19L32 17L31 17L31 18L30 18L30 19L32 19L32 20L28 20L28 19L29 19L29 18L28 18L28 19L26 19L26 21L25 21L25 20L23 20L23 19L25 19L25 18L23 18L23 19L21 19L21 18L22 18L22 16L23 16L23 17L24 17L24 16L25 16L25 14L26 14L26 15L27 15L27 14L26 14L26 13L28 13L28 14L29 14L29 15L28 15L28 16L31 16L31 14L32 14L32 15L33 15L33 14L35 14L35 16L34 16L34 17L35 17L35 18L34 18L34 21L36 21L36 17L37 17L37 16L36 16L36 13L35 13L35 9L32 9L32 8L31 8L31 9L28 9L28 8L30 8L30 6L29 6L29 7L28 7L28 6L27 6L27 7L26 7L26 6L25 6L25 5L23 5L23 4L22 4L22 6L21 6L21 9L22 9L22 6L23 6L23 7L24 7L24 8L23 8L23 9L24 9L24 8L25 8L25 9L26 9L26 10L28 10L28 11L25 11L25 12L26 12L26 13L23 13L23 15L22 15L22 14L21 14L21 15L20 15L20 13L22 13L22 10L21 10L21 11L19 11L19 12L18 12L18 11L17 11L17 12L16 12L16 10L15 10L15 13L12 13L12 12L14 12L14 9L15 9L15 8L16 8L16 6L15 6L15 5L14 5L14 6L13 6L13 9L11 9L11 8L12 8L12 5L13 5L13 3L14 3L14 1L12 1L12 2L11 2L11 1ZM15 1L15 2L16 2L16 1ZM22 1L22 2L21 2L21 3L23 3L23 2L24 2L24 3L25 3L25 4L26 4L26 5L28 5L28 4L26 4L26 3L27 3L27 2L26 2L26 3L25 3L25 2L24 2L24 1ZM32 2L32 3L33 3L33 2ZM20 4L20 5L21 5L21 4ZM10 6L10 7L11 7L11 6ZM14 6L14 7L15 7L15 6ZM17 6L17 7L18 7L18 8L19 8L19 7L20 7L20 6L19 6L19 7L18 7L18 6ZM24 6L24 7L25 7L25 6ZM27 7L27 8L26 8L26 9L27 9L27 8L28 8L28 7ZM6 8L6 9L7 9L7 8ZM38 8L38 10L39 10L39 9L41 9L41 8ZM2 9L2 11L3 11L3 9ZM17 9L17 10L18 10L18 9ZM19 9L19 10L20 10L20 9ZM31 9L31 10L32 10L32 11L34 11L34 10L32 10L32 9ZM11 10L11 11L13 11L13 10ZM23 10L23 11L24 11L24 10ZM28 11L28 13L30 13L30 12L29 12L29 11ZM1 12L1 13L2 13L2 12ZM10 12L10 14L11 14L11 12ZM17 12L17 13L16 13L16 14L18 14L18 12ZM33 12L33 13L32 13L32 14L33 14L33 13L34 13L34 12ZM14 14L14 15L15 15L15 14ZM12 15L12 16L11 16L11 17L10 17L10 20L14 20L14 19L13 19L13 18L11 18L11 17L14 17L14 16L13 16L13 15ZM17 15L17 16L16 16L16 17L17 17L17 16L18 16L18 20L17 20L17 21L20 21L20 22L19 22L19 23L21 23L21 24L22 24L22 27L26 27L26 24L27 24L27 25L28 25L28 24L29 24L29 23L30 23L30 22L29 22L29 21L28 21L28 20L27 20L27 21L26 21L26 22L25 22L25 21L23 21L23 20L22 20L22 23L21 23L21 20L20 20L20 19L19 19L19 18L21 18L21 17L19 17L19 15ZM23 15L23 16L24 16L24 15ZM35 16L35 17L36 17L36 16ZM26 17L26 18L27 18L27 17ZM38 17L38 18L37 18L37 19L38 19L38 20L37 20L37 21L38 21L38 20L39 20L39 21L40 21L40 20L39 20L39 18L40 18L40 17ZM6 18L6 19L5 19L5 20L6 20L6 21L5 21L5 22L6 22L6 23L8 23L8 22L9 22L9 19L8 19L8 20L6 20L6 19L7 19L7 18ZM6 21L6 22L8 22L8 21ZM27 21L27 22L28 22L28 23L27 23L27 24L28 24L28 23L29 23L29 22L28 22L28 21ZM10 23L10 24L11 24L11 23ZM17 23L17 24L18 24L18 23ZM23 23L23 24L24 24L24 26L25 26L25 24L26 24L26 23L25 23L25 24L24 24L24 23ZM35 23L35 24L36 24L36 23ZM37 23L37 24L38 24L38 23ZM40 23L40 25L39 25L39 26L40 26L40 25L41 25L41 23ZM6 24L6 25L8 25L8 24ZM36 25L36 26L38 26L38 25ZM27 26L27 28L26 28L26 29L25 29L25 28L24 28L24 29L25 29L25 30L24 30L24 31L25 31L25 32L26 32L26 33L27 33L27 30L29 30L29 29L30 29L30 32L31 32L31 29L30 29L30 28L29 28L29 29L28 29L28 26ZM14 27L14 28L16 28L16 27ZM18 27L18 29L17 29L17 30L20 30L20 29L19 29L19 27ZM6 28L6 29L5 29L5 30L6 30L6 29L7 29L7 28ZM22 28L22 29L23 29L23 28ZM36 28L36 29L37 29L37 28ZM14 29L14 30L15 30L15 29ZM26 29L26 30L27 30L27 29ZM32 30L32 31L33 31L33 30ZM2 31L2 33L3 33L3 31ZM14 31L14 32L15 32L15 33L14 33L14 34L13 34L13 33L12 33L12 32L11 32L11 33L12 33L12 37L13 37L13 38L11 38L11 39L13 39L13 38L15 38L15 39L16 39L16 38L15 38L15 37L17 37L17 36L16 36L16 34L17 34L17 33L16 33L16 32L17 32L17 31L16 31L16 32L15 32L15 31ZM8 33L8 34L9 34L9 33ZM15 33L15 34L16 34L16 33ZM33 33L33 36L36 36L36 33ZM30 34L30 35L31 35L31 34ZM34 34L34 35L35 35L35 34ZM14 35L14 36L13 36L13 37L15 37L15 35ZM26 35L26 36L25 36L25 37L27 37L27 38L28 38L28 37L27 37L27 35ZM38 35L38 36L39 36L39 35ZM30 36L30 37L31 37L31 36ZM34 37L34 38L35 38L35 37ZM36 37L36 38L37 38L37 37ZM27 39L27 40L28 40L28 39ZM0 0L0 7L7 7L7 0ZM1 1L1 6L6 6L6 1ZM2 2L2 5L5 5L5 2ZM34 0L34 7L41 7L41 0ZM35 1L35 6L40 6L40 1ZM36 2L36 5L39 5L39 2ZM0 34L0 41L7 41L7 34ZM1 35L1 40L6 40L6 35ZM2 36L2 39L5 39L5 36Z" fill="#000000"/></g></g></svg>
