<?xml version="1.0" encoding="UTF-8"?>
<svg xmlns="http://www.w3.org/2000/svg" version="1.1" width="200" height="200" viewBox="0 0 200 200"><rect x="0" y="0" width="200" height="200" fill="#ffffff"/><g transform="scale(5.405)"><g transform="translate(0,0)"><path fill-rule="evenodd" d="M9 0L9 1L11 1L11 0ZM15 0L15 2L17 2L17 4L15 4L15 5L13 5L13 4L12 4L12 3L11 3L11 2L9 2L9 4L8 4L8 5L10 5L10 4L12 4L12 5L13 5L13 6L12 6L12 7L13 7L13 6L14 6L14 8L13 8L13 9L15 9L15 11L14 11L14 10L13 10L13 11L12 11L12 10L11 10L11 12L9 12L9 11L10 11L10 10L8 10L8 12L9 12L9 13L7 13L7 12L6 12L6 13L5 13L5 15L4 15L4 13L3 13L3 12L4 12L4 11L7 11L7 10L5 10L5 9L4 9L4 8L2 8L2 9L0 9L0 10L1 10L1 12L0 12L0 19L2 19L2 20L0 20L0 22L1 22L1 23L0 23L0 24L3 24L3 25L5 25L5 23L8 23L8 24L6 24L6 25L7 25L7 26L6 26L6 27L7 27L7 26L8 26L8 28L6 28L6 29L8 29L8 31L9 31L9 33L8 33L8 35L9 35L9 37L15 37L15 36L14 36L14 35L13 35L13 36L12 36L12 35L11 35L11 36L10 36L10 30L9 30L9 26L10 26L10 29L11 29L11 30L12 30L12 31L11 31L11 33L12 33L12 34L15 34L15 35L16 35L16 37L17 37L17 36L18 36L18 37L19 37L19 36L20 36L20 37L22 37L22 35L25 35L25 36L24 36L24 37L28 37L28 34L29 34L29 35L33 35L33 33L34 33L34 37L37 37L37 36L35 36L35 35L36 35L36 34L35 34L35 33L36 33L36 32L37 32L37 29L36 29L36 28L37 28L37 27L36 27L36 28L34 28L34 29L33 29L33 28L32 28L32 27L31 27L31 26L33 26L33 27L34 27L34 25L35 25L35 26L37 26L37 23L36 23L36 22L34 22L34 21L33 21L33 19L34 19L34 18L35 18L35 19L37 19L37 16L36 16L36 18L35 18L35 16L33 16L33 17L34 17L34 18L33 18L33 19L32 19L32 21L31 21L31 22L30 22L30 20L31 20L31 18L32 18L32 17L30 17L30 16L28 16L28 15L27 15L27 16L23 16L23 18L25 18L25 17L26 17L26 18L27 18L27 20L26 20L26 21L25 21L25 23L26 23L26 22L27 22L27 21L29 21L29 22L28 22L28 23L27 23L27 24L26 24L26 26L27 26L27 24L28 24L28 25L29 25L29 26L30 26L30 27L31 27L31 28L28 28L28 27L27 27L27 28L24 28L24 26L25 26L25 24L24 24L24 25L23 25L23 23L24 23L24 21L23 21L23 20L25 20L25 19L22 19L22 20L21 20L21 21L20 21L20 20L18 20L18 18L17 18L17 16L19 16L19 17L20 17L20 19L21 19L21 18L22 18L22 15L23 15L23 14L25 14L25 15L26 15L26 14L25 14L25 13L26 13L26 12L28 12L28 13L27 13L27 14L29 14L29 15L31 15L31 14L32 14L32 15L33 15L33 13L34 13L34 15L35 15L35 13L36 13L36 14L37 14L37 13L36 13L36 12L37 12L37 11L35 11L35 10L36 10L36 9L34 9L34 10L31 10L31 8L29 8L29 6L28 6L28 7L27 7L27 6L26 6L26 5L28 5L28 4L29 4L29 2L28 2L28 4L27 4L27 0L26 0L26 1L25 1L25 2L24 2L24 0L23 0L23 1L21 1L21 0L20 0L20 1L19 1L19 0L17 0L17 1L16 1L16 0ZM13 1L13 2L14 2L14 1ZM17 1L17 2L18 2L18 3L21 3L21 2L18 2L18 1ZM22 2L22 5L20 5L20 6L19 6L19 7L20 7L20 6L21 6L21 9L22 9L22 10L23 10L23 11L24 11L24 10L25 10L25 11L26 11L26 9L27 9L27 7L26 7L26 6L25 6L25 5L26 5L26 4L25 4L25 3L24 3L24 4L25 4L25 5L24 5L24 6L23 6L23 2ZM17 4L17 5L19 5L19 4ZM15 5L15 9L16 9L16 10L17 10L17 11L15 11L15 12L17 12L17 11L18 11L18 6L17 6L17 9L16 9L16 5ZM8 6L8 8L6 8L6 9L11 9L11 6L10 6L10 8L9 8L9 6ZM22 6L22 9L23 9L23 10L24 10L24 9L23 9L23 6ZM24 6L24 8L25 8L25 9L26 9L26 8L25 8L25 6ZM19 8L19 10L20 10L20 12L22 12L22 11L21 11L21 10L20 10L20 8ZM32 8L32 9L33 9L33 8ZM2 9L2 10L3 10L3 11L2 11L2 12L1 12L1 14L3 14L3 13L2 13L2 12L3 12L3 11L4 11L4 9ZM29 9L29 10L28 10L28 12L29 12L29 14L30 14L30 12L31 12L31 13L32 13L32 12L33 12L33 11L31 11L31 10L30 10L30 9ZM29 10L29 11L30 11L30 10ZM13 11L13 12L12 12L12 13L13 13L13 14L10 14L10 15L9 15L9 14L8 14L8 15L6 15L6 16L8 16L8 17L6 17L6 18L5 18L5 16L3 16L3 18L2 18L2 17L1 17L1 18L2 18L2 19L3 19L3 21L4 21L4 23L5 23L5 22L7 22L7 21L9 21L9 22L8 22L8 23L10 23L10 24L9 24L9 25L8 25L8 26L9 26L9 25L10 25L10 26L12 26L12 25L13 25L13 26L15 26L15 27L16 27L16 26L17 26L17 28L16 28L16 31L15 31L15 32L16 32L16 31L17 31L17 32L19 32L19 33L17 33L17 34L16 34L16 33L15 33L15 34L16 34L16 35L18 35L18 36L19 36L19 35L18 35L18 34L19 34L19 33L20 33L20 32L19 32L19 30L20 30L20 31L21 31L21 30L20 30L20 29L19 29L19 30L17 30L17 29L18 29L18 25L20 25L20 24L19 24L19 21L18 21L18 24L17 24L17 25L16 25L16 26L15 26L15 23L17 23L17 20L16 20L16 22L15 22L15 21L14 21L14 19L15 19L15 18L16 18L16 17L14 17L14 19L12 19L12 20L11 20L11 17L12 17L12 18L13 18L13 17L12 17L12 16L14 16L14 15L15 15L15 13L13 13L13 12L14 12L14 11ZM18 12L18 13L16 13L16 16L17 16L17 14L18 14L18 15L20 15L20 17L21 17L21 15L22 15L22 14L23 14L23 13L20 13L20 14L19 14L19 12ZM34 12L34 13L35 13L35 12ZM6 13L6 14L7 14L7 13ZM13 14L13 15L14 15L14 14ZM8 17L8 18L9 18L9 17ZM3 18L3 19L4 19L4 21L7 21L7 20L9 20L9 21L11 21L11 22L10 22L10 23L12 23L12 24L14 24L14 21L13 21L13 20L12 20L12 21L11 21L11 20L9 20L9 19L7 19L7 18L6 18L6 19L7 19L7 20L5 20L5 19L4 19L4 18ZM28 18L28 20L30 20L30 19L29 19L29 18ZM35 20L35 21L36 21L36 20ZM21 21L21 22L20 22L20 23L23 23L23 21ZM32 21L32 22L31 22L31 24L30 24L30 22L29 22L29 23L28 23L28 24L30 24L30 26L31 26L31 25L32 25L32 24L33 24L33 23L34 23L34 22L33 22L33 21ZM2 22L2 23L3 23L3 22ZM12 22L12 23L13 23L13 22ZM32 22L32 23L33 23L33 22ZM35 23L35 25L36 25L36 23ZM22 25L22 26L19 26L19 27L21 27L21 29L22 29L22 31L23 31L23 32L21 32L21 33L23 33L23 34L24 34L24 33L23 33L23 32L24 32L24 31L25 31L25 35L26 35L26 36L27 36L27 34L26 34L26 33L28 33L28 32L26 32L26 31L28 31L28 28L27 28L27 30L23 30L23 29L24 29L24 28L22 28L22 26L23 26L23 25ZM1 26L1 27L0 27L0 28L1 28L1 27L2 27L2 29L4 29L4 28L3 28L3 27L4 27L4 26L3 26L3 27L2 27L2 26ZM11 28L11 29L12 29L12 30L15 30L15 29L14 29L14 28L13 28L13 29L12 29L12 28ZM29 29L29 32L32 32L32 29ZM35 29L35 30L34 30L34 33L35 33L35 32L36 32L36 29ZM30 30L30 31L31 31L31 30ZM13 31L13 32L12 32L12 33L13 33L13 32L14 32L14 31ZM29 33L29 34L30 34L30 33ZM20 34L20 35L21 35L21 34ZM29 36L29 37L32 37L32 36ZM0 0L0 7L7 7L7 0ZM1 1L1 6L6 6L6 1ZM2 2L2 5L5 5L5 2ZM30 0L30 7L37 7L37 0ZM31 1L31 6L36 6L36 1ZM32 2L32 5L35 5L35 2ZM0 30L0 37L7 37L7 30ZM1 31L1 36L6 36L6 31ZM2 32L2 35L5 35L5 32Z" fill="#000000"/></g></g></svg>
