<?xml version="1.0" encoding="UTF-8"?>
<svg xmlns="http://www.w3.org/2000/svg" version="1.1" width="350" height="350" viewBox="0 0 350 350"><rect x="0" y="0" width="350" height="350" fill="#ffffff"/><g transform="scale(8.537)"><g transform="translate(0,0)"><path fill-rule="evenodd" d="M10 0L10 1L11 1L11 0ZM13 0L13 2L12 2L12 3L11 3L11 2L8 2L8 4L9 4L9 3L11 3L11 4L10 4L10 7L9 7L9 6L8 6L8 7L9 7L9 9L8 9L8 8L6 8L6 9L5 9L5 8L3 8L3 9L2 9L2 11L3 11L3 12L0 12L0 14L4 14L4 15L1 15L1 16L0 16L0 17L1 17L1 16L2 16L2 17L3 17L3 16L4 16L4 15L5 15L5 14L6 14L6 15L7 15L7 16L6 16L6 17L7 17L7 18L5 18L5 17L4 17L4 18L3 18L3 20L2 20L2 18L1 18L1 19L0 19L0 20L2 20L2 21L0 21L0 23L1 23L1 25L0 25L0 26L1 26L1 27L0 27L0 33L3 33L3 32L4 32L4 33L5 33L5 32L6 32L6 33L8 33L8 35L9 35L9 33L11 33L11 34L10 34L10 35L11 35L11 34L13 34L13 33L14 33L14 34L15 34L15 35L13 35L13 36L15 36L15 37L16 37L16 38L17 38L17 37L18 37L18 40L14 40L14 39L15 39L15 38L14 38L14 37L10 37L10 36L8 36L8 38L14 38L14 39L9 39L9 41L11 41L11 40L14 40L14 41L18 41L18 40L19 40L19 41L21 41L21 40L22 40L22 41L23 41L23 39L24 39L24 41L29 41L29 40L28 40L28 38L29 38L29 39L30 39L30 41L31 41L31 39L30 39L30 37L31 37L31 38L32 38L32 37L35 37L35 39L34 39L34 38L33 38L33 39L34 39L34 40L32 40L32 41L34 41L34 40L35 40L35 39L36 39L36 41L37 41L37 39L38 39L38 41L39 41L39 39L40 39L40 40L41 40L41 35L40 35L40 34L39 34L39 35L40 35L40 36L39 36L39 37L38 37L38 38L36 38L36 37L37 37L37 36L38 36L38 33L41 33L41 30L40 30L40 31L38 31L38 30L39 30L39 29L40 29L40 28L41 28L41 26L40 26L40 25L39 25L39 24L40 24L40 23L39 23L39 19L40 19L40 20L41 20L41 18L40 18L40 17L41 17L41 12L40 12L40 11L39 11L39 10L38 10L38 11L37 11L37 12L38 12L38 11L39 11L39 13L36 13L36 16L37 16L37 17L35 17L35 18L33 18L33 17L34 17L34 16L32 16L32 15L31 15L31 16L30 16L30 18L31 18L31 19L29 19L29 18L27 18L27 19L28 19L28 20L27 20L27 23L26 23L26 22L25 22L25 21L23 21L23 20L26 20L26 18L25 18L25 17L28 17L28 16L29 16L29 15L30 15L30 14L29 14L29 15L28 15L28 14L26 14L26 15L25 15L25 17L24 17L24 13L21 13L21 14L20 14L20 12L19 12L19 11L20 11L20 10L19 10L19 8L18 8L18 7L19 7L19 6L20 6L20 7L21 7L21 8L20 8L20 9L21 9L21 8L24 8L24 9L23 9L23 10L22 10L22 11L21 11L21 12L22 12L22 11L24 11L24 12L25 12L25 11L26 11L26 10L27 10L27 12L26 12L26 13L27 13L27 12L28 12L28 10L29 10L29 12L30 12L30 10L29 10L29 9L31 9L31 10L33 10L33 12L31 12L31 14L32 14L32 13L33 13L33 15L34 15L34 13L35 13L35 11L34 11L34 10L37 10L37 9L39 9L39 8L37 8L37 9L34 9L34 10L33 10L33 6L32 6L32 8L31 8L31 5L32 5L32 4L33 4L33 1L32 1L32 0L28 0L28 1L30 1L30 2L32 2L32 4L31 4L31 3L30 3L30 4L28 4L28 5L30 5L30 8L29 8L29 9L27 9L27 4L25 4L25 1L24 1L24 2L22 2L22 0L20 0L20 1L21 1L21 2L22 2L22 3L24 3L24 5L23 5L23 4L20 4L20 3L19 3L19 4L17 4L17 3L18 3L18 2L17 2L17 3L16 3L16 1L14 1L14 0ZM17 0L17 1L19 1L19 0ZM26 0L26 1L27 1L27 0ZM13 2L13 3L12 3L12 5L13 5L13 4L15 4L15 3L14 3L14 2ZM16 4L16 5L14 5L14 6L13 6L13 7L14 7L14 6L15 6L15 7L16 7L16 6L17 6L17 7L18 7L18 5L17 5L17 4ZM30 4L30 5L31 5L31 4ZM21 5L21 7L22 7L22 5ZM24 5L24 6L23 6L23 7L24 7L24 8L25 8L25 7L26 7L26 6L25 6L25 5ZM11 6L11 7L10 7L10 8L12 8L12 6ZM24 6L24 7L25 7L25 6ZM28 6L28 7L29 7L29 6ZM14 8L14 9L9 9L9 10L8 10L8 11L6 11L6 10L7 10L7 9L6 9L6 10L5 10L5 9L4 9L4 10L3 10L3 11L4 11L4 12L3 12L3 13L5 13L5 12L8 12L8 14L9 14L9 13L11 13L11 14L10 14L10 15L9 15L9 17L10 17L10 19L11 19L11 18L12 18L12 22L11 22L11 24L10 24L10 23L9 23L9 22L7 22L7 21L8 21L8 20L9 20L9 21L11 21L11 20L9 20L9 19L8 19L8 20L7 20L7 19L6 19L6 20L5 20L5 18L4 18L4 20L3 20L3 21L4 21L4 20L5 20L5 21L6 21L6 22L7 22L7 23L3 23L3 24L4 24L4 27L3 27L3 31L2 31L2 32L3 32L3 31L5 31L5 30L4 30L4 29L6 29L6 30L7 30L7 31L6 31L6 32L8 32L8 33L9 33L9 32L8 32L8 30L7 30L7 29L6 29L6 28L7 28L7 27L9 27L9 28L8 28L8 29L11 29L11 28L13 28L13 27L14 27L14 26L11 26L11 25L12 25L12 22L13 22L13 18L15 18L15 19L14 19L14 20L15 20L15 21L14 21L14 22L15 22L15 23L14 23L14 24L15 24L15 23L16 23L16 22L18 22L18 23L17 23L17 24L16 24L16 25L15 25L15 26L16 26L16 29L15 29L15 28L14 28L14 30L15 30L15 31L14 31L14 33L15 33L15 31L16 31L16 33L18 33L18 34L16 34L16 35L15 35L15 36L16 36L16 35L17 35L17 36L19 36L19 35L21 35L21 34L23 34L23 35L22 35L22 36L20 36L20 37L19 37L19 38L20 38L20 37L23 37L23 36L24 36L24 35L25 35L25 39L26 39L26 40L27 40L27 39L26 39L26 38L27 38L27 36L26 36L26 35L27 35L27 34L31 34L31 35L30 35L30 36L31 36L31 35L32 35L32 33L31 33L31 32L30 32L30 31L29 31L29 33L28 33L28 32L25 32L25 33L24 33L24 32L20 32L20 30L21 30L21 31L26 31L26 30L27 30L27 31L28 31L28 30L29 30L29 29L31 29L31 30L32 30L32 31L35 31L35 32L37 32L37 33L38 33L38 32L37 32L37 31L35 31L35 30L34 30L34 28L35 28L35 29L37 29L37 30L38 30L38 29L39 29L39 28L40 28L40 26L38 26L38 25L37 25L37 23L38 23L38 24L39 24L39 23L38 23L38 22L37 22L37 21L36 21L36 19L33 19L33 18L32 18L32 17L31 17L31 18L32 18L32 19L31 19L31 20L29 20L29 21L28 21L28 24L29 24L29 25L28 25L28 26L30 26L30 24L31 24L31 26L32 26L32 25L33 25L33 27L32 27L32 29L31 29L31 27L29 27L29 28L28 28L28 27L27 27L27 26L26 26L26 23L25 23L25 24L23 24L23 23L24 23L24 22L23 22L23 23L22 23L22 22L21 22L21 21L19 21L19 22L18 22L18 20L21 20L21 19L25 19L25 18L23 18L23 17L20 17L20 16L23 16L23 15L20 15L20 16L19 16L19 15L18 15L18 16L17 16L17 17L15 17L15 16L13 16L13 15L12 15L12 17L10 17L10 15L11 15L11 14L13 14L13 13L16 13L16 14L14 14L14 15L16 15L16 14L19 14L19 12L17 12L17 11L18 11L18 9L17 9L17 8L16 8L16 9L15 9L15 8ZM40 9L40 10L41 10L41 9ZM0 10L0 11L1 11L1 10ZM4 10L4 11L5 11L5 10ZM9 10L9 12L11 12L11 13L13 13L13 12L12 12L12 11L13 11L13 10L12 10L12 11L10 11L10 10ZM16 10L16 11L14 11L14 12L16 12L16 11L17 11L17 10ZM6 13L6 14L7 14L7 13ZM37 14L37 16L38 16L38 18L39 18L39 16L38 16L38 15L40 15L40 14ZM27 15L27 16L28 16L28 15ZM12 17L12 18L13 18L13 17ZM16 18L16 21L17 21L17 18ZM19 18L19 19L21 19L21 18ZM37 19L37 20L38 20L38 19ZM6 20L6 21L7 21L7 20ZM31 20L31 21L30 21L30 22L32 22L32 21L33 21L33 22L34 22L34 21L35 21L35 23L34 23L34 25L36 25L36 26L37 26L37 27L36 27L36 28L37 28L37 29L38 29L38 28L39 28L39 27L38 27L38 26L37 26L37 25L36 25L36 24L35 24L35 23L36 23L36 21L35 21L35 20ZM1 22L1 23L2 23L2 22ZM19 22L19 23L20 23L20 22ZM7 23L7 24L6 24L6 25L5 25L5 28L6 28L6 27L7 27L7 26L8 26L8 25L7 25L7 24L8 24L8 23ZM29 23L29 24L30 24L30 23ZM31 23L31 24L33 24L33 23ZM9 24L9 26L10 26L10 27L11 27L11 26L10 26L10 24ZM17 24L17 25L16 25L16 26L17 26L17 28L18 28L18 27L19 27L19 30L18 30L18 29L17 29L17 31L18 31L18 32L19 32L19 34L20 34L20 32L19 32L19 30L20 30L20 29L21 29L21 30L24 30L24 29L25 29L25 28L23 28L23 27L25 27L25 26L24 26L24 25L21 25L21 24L19 24L19 25L18 25L18 24ZM1 25L1 26L3 26L3 25ZM6 25L6 26L7 26L7 25ZM19 25L19 27L20 27L20 28L21 28L21 29L22 29L22 27L23 27L23 26L21 26L21 25ZM26 27L26 28L27 28L27 29L28 29L28 28L27 28L27 27ZM1 29L1 30L2 30L2 29ZM12 29L12 30L11 30L11 31L10 31L10 32L12 32L12 33L13 33L13 31L12 31L12 30L13 30L13 29ZM26 33L26 34L25 34L25 35L26 35L26 34L27 34L27 33ZM33 33L33 36L36 36L36 33ZM34 34L34 35L35 35L35 34ZM28 36L28 37L29 37L29 36ZM39 37L39 38L40 38L40 37ZM19 39L19 40L20 40L20 39ZM0 0L0 7L7 7L7 0ZM1 1L1 6L6 6L6 1ZM2 2L2 5L5 5L5 2ZM34 0L34 7L41 7L41 0ZM35 1L35 6L40 6L40 1ZM36 2L36 5L39 5L39 2ZM0 34L0 41L7 41L7 34ZM1 35L1 40L6 40L6 35ZM2 36L2 39L5 39L5 36Z" fill="#000000"/></g></g></svg>
