<?xml version="1.0" encoding="UTF-8"?>
<svg xmlns="http://www.w3.org/2000/svg" version="1.1" width="350" height="350" viewBox="0 0 350 350"><rect x="0" y="0" width="350" height="350" fill="#ffffff"/><g transform="scale(9.459)"><g transform="translate(0,0)"><path fill-rule="evenodd" d="M8 0L8 2L9 2L9 0ZM10 0L10 3L8 3L8 7L9 7L9 9L11 9L11 10L12 10L12 11L10 11L10 10L8 10L8 9L7 9L7 8L6 8L6 9L4 9L4 8L3 8L3 9L2 9L2 10L1 10L1 11L0 11L0 14L1 14L1 13L2 13L2 17L3 17L3 18L1 18L1 17L0 17L0 19L3 19L3 20L2 20L2 22L0 22L0 25L3 25L3 24L1 24L1 23L3 23L3 22L4 22L4 21L8 21L8 22L9 22L9 21L8 21L8 20L10 20L10 19L9 19L9 17L8 17L8 18L6 18L6 19L7 19L7 20L4 20L4 19L5 19L5 16L4 16L4 14L3 14L3 13L5 13L5 14L6 14L6 15L7 15L7 16L6 16L6 17L7 17L7 16L10 16L10 18L12 18L12 19L11 19L11 21L12 21L12 19L15 19L15 18L16 18L16 17L17 17L17 16L18 16L18 14L17 14L17 13L18 13L18 12L19 12L19 13L20 13L20 15L21 15L21 16L19 16L19 18L17 18L17 19L18 19L18 20L13 20L13 21L15 21L15 22L14 22L14 24L13 24L13 22L12 22L12 24L13 24L13 25L12 25L12 26L13 26L13 27L15 27L15 28L14 28L14 30L13 30L13 31L12 31L12 32L13 32L13 31L14 31L14 30L15 30L15 28L16 28L16 27L17 27L17 29L16 29L16 31L15 31L15 32L14 32L14 34L13 34L13 33L11 33L11 32L10 32L10 34L9 34L9 33L8 33L8 34L9 34L9 35L10 35L10 36L9 36L9 37L11 37L11 35L12 35L12 34L13 34L13 36L12 36L12 37L14 37L14 36L15 36L15 37L18 37L18 36L20 36L20 35L22 35L22 37L23 37L23 34L24 34L24 33L21 33L21 32L20 32L20 33L18 33L18 31L21 31L21 30L20 30L20 29L18 29L18 26L19 26L19 27L20 27L20 28L21 28L21 27L22 27L22 29L23 29L23 30L22 30L22 31L23 31L23 30L26 30L26 31L28 31L28 33L26 33L26 32L25 32L25 31L24 31L24 32L25 32L25 36L24 36L24 37L26 37L26 36L27 36L27 35L28 35L28 37L34 37L34 35L35 35L35 34L36 34L36 35L37 35L37 28L36 28L36 27L37 27L37 17L36 17L36 16L37 16L37 13L36 13L36 12L37 12L37 8L35 8L35 9L34 9L34 8L31 8L31 9L29 9L29 8L27 8L27 6L28 6L28 7L29 7L29 5L28 5L28 4L29 4L29 0L27 0L27 2L26 2L26 1L25 1L25 2L26 2L26 4L25 4L25 5L24 5L24 7L23 7L23 5L22 5L22 2L21 2L21 1L23 1L23 2L24 2L24 0L19 0L19 1L17 1L17 0L16 0L16 1L17 1L17 3L16 3L16 4L17 4L17 5L14 5L14 7L13 7L13 6L12 6L12 7L13 7L13 8L10 8L10 7L11 7L11 5L12 5L12 4L14 4L14 2L15 2L15 0L14 0L14 1L13 1L13 0ZM11 1L11 2L13 2L13 1ZM19 1L19 2L18 2L18 3L21 3L21 2L20 2L20 1ZM27 2L27 4L28 4L28 2ZM11 3L11 4L10 4L10 5L11 5L11 4L12 4L12 3ZM19 4L19 5L20 5L20 4ZM21 5L21 7L20 7L20 6L19 6L19 7L20 7L20 8L21 8L21 9L22 9L22 10L19 10L19 8L18 8L18 6L17 6L17 8L16 8L16 6L15 6L15 7L14 7L14 8L13 8L13 10L14 10L14 11L13 11L13 12L14 12L14 11L16 11L16 13L15 13L15 14L14 14L14 13L13 13L13 15L12 15L12 16L11 16L11 17L12 17L12 18L13 18L13 17L14 17L14 16L13 16L13 15L15 15L15 14L16 14L16 16L17 16L17 14L16 14L16 13L17 13L17 11L16 11L16 9L17 9L17 8L18 8L18 11L21 11L21 12L22 12L22 14L21 14L21 15L22 15L22 17L20 17L20 21L19 21L19 23L18 23L18 21L16 21L16 22L15 22L15 23L18 23L18 24L17 24L17 26L18 26L18 25L20 25L20 27L21 27L21 26L22 26L22 27L23 27L23 28L24 28L24 29L26 29L26 30L27 30L27 29L26 29L26 28L27 28L27 27L29 27L29 26L27 26L27 24L28 24L28 22L30 22L30 24L31 24L31 25L32 25L32 27L31 27L31 26L30 26L30 27L31 27L31 28L32 28L32 27L33 27L33 32L34 32L34 33L33 33L33 35L34 35L34 33L36 33L36 28L35 28L35 25L36 25L36 22L35 22L35 21L36 21L36 19L35 19L35 20L33 20L33 19L34 19L34 18L36 18L36 17L34 17L34 18L33 18L33 19L32 19L32 18L31 18L31 20L33 20L33 21L31 21L31 22L30 22L30 19L29 19L29 21L27 21L27 22L26 22L26 21L25 21L25 20L26 20L26 18L27 18L27 20L28 20L28 18L29 18L29 17L30 17L30 16L29 16L29 15L31 15L31 14L30 14L30 12L31 12L31 13L32 13L32 14L33 14L33 15L32 15L32 17L33 17L33 16L35 16L35 15L34 15L34 14L36 14L36 13L35 13L35 11L33 11L33 10L34 10L34 9L31 9L31 11L30 11L30 10L28 10L28 11L26 11L26 12L28 12L28 13L27 13L27 14L26 14L26 13L25 13L25 15L26 15L26 16L23 16L23 15L22 15L22 14L23 14L23 13L24 13L24 8L23 8L23 9L22 9L22 8L21 8L21 7L22 7L22 5ZM9 6L9 7L10 7L10 6ZM25 6L25 9L27 9L27 8L26 8L26 6ZM14 8L14 10L15 10L15 9L16 9L16 8ZM6 9L6 10L5 10L5 13L6 13L6 14L7 14L7 15L8 15L8 14L7 14L7 13L8 13L8 12L9 12L9 13L10 13L10 14L12 14L12 13L11 13L11 12L9 12L9 11L6 11L6 10L7 10L7 9ZM35 9L35 10L36 10L36 9ZM2 11L2 13L3 13L3 11ZM22 11L22 12L23 12L23 11ZM28 11L28 12L29 12L29 11ZM6 12L6 13L7 13L7 12ZM33 13L33 14L34 14L34 13ZM27 15L27 16L26 16L26 17L29 17L29 16L28 16L28 15ZM3 16L3 17L4 17L4 16ZM12 16L12 17L13 17L13 16ZM22 17L22 18L21 18L21 21L20 21L20 22L22 22L22 23L21 23L21 24L22 24L22 26L24 26L24 28L26 28L26 26L25 26L25 23L23 23L23 22L24 22L24 20L25 20L25 19L23 19L23 18L25 18L25 17ZM3 18L3 19L4 19L4 18ZM22 19L22 20L23 20L23 19ZM22 21L22 22L23 22L23 21ZM33 21L33 22L31 22L31 23L32 23L32 24L33 24L33 22L34 22L34 23L35 23L35 22L34 22L34 21ZM6 22L6 23L7 23L7 22ZM10 22L10 24L9 24L9 25L8 25L8 24L6 24L6 25L7 25L7 26L5 26L5 25L4 25L4 26L3 26L3 27L1 27L1 26L0 26L0 27L1 27L1 28L0 28L0 29L2 29L2 28L3 28L3 29L4 29L4 26L5 26L5 29L7 29L7 28L8 28L8 30L9 30L9 31L11 31L11 30L12 30L12 28L11 28L11 22ZM19 23L19 24L20 24L20 23ZM22 23L22 24L23 24L23 25L24 25L24 24L23 24L23 23ZM26 23L26 24L27 24L27 23ZM14 24L14 26L16 26L16 24ZM9 25L9 29L10 29L10 25ZM33 26L33 27L34 27L34 26ZM6 27L6 28L7 28L7 27ZM34 28L34 29L35 29L35 28ZM17 29L17 30L18 30L18 29ZM29 29L29 32L32 32L32 29ZM30 30L30 31L31 31L31 30ZM34 30L34 32L35 32L35 30ZM16 31L16 32L17 32L17 31ZM15 33L15 34L14 34L14 35L15 35L15 34L16 34L16 36L17 36L17 35L19 35L19 34L16 34L16 33ZM30 33L30 34L28 34L28 35L29 35L29 36L32 36L32 33ZM10 34L10 35L11 35L11 34ZM26 34L26 35L27 35L27 34ZM35 36L35 37L37 37L37 36ZM0 0L0 7L7 7L7 0ZM1 1L1 6L6 6L6 1ZM2 2L2 5L5 5L5 2ZM30 0L30 7L37 7L37 0ZM31 1L31 6L36 6L36 1ZM32 2L32 5L35 5L35 2ZM0 30L0 37L7 37L7 30ZM1 31L1 36L6 36L6 31ZM2 32L2 35L5 35L5 32Z" fill="#000000"/></g></g></svg>
