<?xml version="1.0" encoding="UTF-8"?>
<svg xmlns="http://www.w3.org/2000/svg" version="1.1" width="350" height="350" viewBox="0 0 350 350"><rect x="0" y="0" width="350" height="350" fill="#ffffff"/><g transform="scale(8.537)"><g transform="translate(0,0)"><path fill-rule="evenodd" d="M8 0L8 1L9 1L9 2L8 2L8 3L10 3L10 5L9 5L9 4L8 4L8 5L9 5L9 6L8 6L8 8L9 8L9 9L12 9L12 10L13 10L13 9L15 9L15 10L14 10L14 12L15 12L15 10L16 10L16 11L18 11L18 12L19 12L19 13L20 13L20 14L18 14L18 13L17 13L17 12L16 12L16 13L15 13L15 14L16 14L16 16L15 16L15 15L14 15L14 13L13 13L13 17L12 17L12 13L8 13L8 15L7 15L7 14L6 14L6 13L7 13L7 12L6 12L6 13L5 13L5 12L4 12L4 13L3 13L3 14L6 14L6 15L2 15L2 16L3 16L3 17L2 17L2 18L1 18L1 19L0 19L0 20L1 20L1 22L0 22L0 24L1 24L1 23L4 23L4 22L2 22L2 20L1 20L1 19L3 19L3 21L4 21L4 19L3 19L3 17L5 17L5 16L6 16L6 17L8 17L8 18L9 18L9 15L11 15L11 16L10 16L10 17L11 17L11 18L10 18L10 21L11 21L11 22L8 22L8 21L9 21L9 19L8 19L8 20L6 20L6 19L7 19L7 18L5 18L5 20L6 20L6 21L5 21L5 24L2 24L2 25L0 25L0 26L2 26L2 25L4 25L4 26L5 26L5 27L4 27L4 30L5 30L5 28L6 28L6 29L7 29L7 30L6 30L6 31L3 31L3 28L2 28L2 27L0 27L0 28L2 28L2 29L0 29L0 33L1 33L1 31L2 31L2 33L3 33L3 32L5 32L5 33L7 33L7 32L8 32L8 34L9 34L9 35L8 35L8 36L9 36L9 37L10 37L10 41L12 41L12 40L13 40L13 41L14 41L14 40L13 40L13 39L14 39L14 38L13 38L13 37L14 37L14 36L13 36L13 37L12 37L12 33L13 33L13 34L14 34L14 35L15 35L15 37L16 37L16 39L18 39L18 40L15 40L15 41L21 41L21 40L23 40L23 41L31 41L31 39L32 39L32 37L35 37L35 38L33 38L33 39L34 39L34 40L33 40L33 41L34 41L34 40L35 40L35 41L38 41L38 40L39 40L39 39L40 39L40 40L41 40L41 39L40 39L40 38L41 38L41 36L39 36L39 37L40 37L40 38L39 38L39 39L38 39L38 38L36 38L36 37L37 37L37 36L38 36L38 35L40 35L40 34L38 34L38 33L40 33L40 32L41 32L41 29L40 29L40 31L39 31L39 32L35 32L35 31L38 31L38 30L39 30L39 27L36 27L36 28L34 28L34 29L36 29L36 30L35 30L35 31L33 31L33 32L32 32L32 35L31 35L31 34L30 34L30 35L31 35L31 36L29 36L29 35L28 35L28 34L29 34L29 33L30 33L30 32L31 32L31 31L32 31L32 30L31 30L31 29L33 29L33 28L32 28L32 27L33 27L33 26L32 26L32 25L31 25L31 24L34 24L34 25L36 25L36 26L38 26L38 25L39 25L39 24L40 24L40 23L39 23L39 22L38 22L38 21L39 21L39 20L38 20L38 19L40 19L40 21L41 21L41 15L38 15L38 14L37 14L37 13L36 13L36 16L35 16L35 17L34 17L34 16L33 16L33 17L34 17L34 18L33 18L33 19L32 19L32 14L33 14L33 15L35 15L35 14L34 14L34 13L35 13L35 12L36 12L36 10L37 10L37 8L36 8L36 9L35 9L35 8L34 8L34 10L33 10L33 8L32 8L32 7L33 7L33 6L32 6L32 7L31 7L31 5L33 5L33 3L32 3L32 4L31 4L31 3L30 3L30 4L31 4L31 5L29 5L29 4L28 4L28 3L29 3L29 2L27 2L27 1L25 1L25 2L24 2L24 3L22 3L22 2L23 2L23 1L24 1L24 0L22 0L22 2L21 2L21 0L19 0L19 2L18 2L18 1L17 1L17 0L16 0L16 4L15 4L15 5L14 5L14 4L13 4L13 5L12 5L12 8L10 8L10 7L11 7L11 6L10 6L10 5L11 5L11 2L10 2L10 0ZM29 0L29 1L30 1L30 2L31 2L31 1L32 1L32 0L31 0L31 1L30 1L30 0ZM12 1L12 2L13 2L13 3L15 3L15 1ZM17 2L17 4L16 4L16 5L15 5L15 7L16 7L16 5L17 5L17 8L18 8L18 9L17 9L17 10L18 10L18 9L19 9L19 7L20 7L20 6L19 6L19 7L18 7L18 2ZM19 2L19 3L20 3L20 5L22 5L22 6L21 6L21 8L20 8L20 9L21 9L21 11L20 11L20 10L19 10L19 11L20 11L20 12L21 12L21 13L23 13L23 14L24 14L24 16L22 16L22 17L21 17L21 16L20 16L20 17L19 17L19 15L18 15L18 16L17 16L17 17L16 17L16 19L15 19L15 17L13 17L13 18L11 18L11 19L13 19L13 20L12 20L12 22L13 22L13 24L14 24L14 25L13 25L13 26L12 26L12 24L11 24L11 23L10 23L10 24L11 24L11 26L9 26L9 27L6 27L6 28L9 28L9 30L10 30L10 31L8 31L8 30L7 30L7 31L6 31L6 32L7 32L7 31L8 31L8 32L9 32L9 33L10 33L10 35L9 35L9 36L11 36L11 33L12 33L12 32L13 32L13 33L14 33L14 34L15 34L15 33L18 33L18 34L19 34L19 35L18 35L18 36L17 36L17 34L16 34L16 36L17 36L17 37L18 37L18 39L19 39L19 40L20 40L20 38L21 38L21 39L22 39L22 36L23 36L23 37L24 37L24 36L25 36L25 37L26 37L26 35L27 35L27 36L28 36L28 37L29 37L29 36L28 36L28 35L27 35L27 34L24 34L24 33L23 33L23 34L22 34L22 36L21 36L21 33L22 33L22 32L25 32L25 33L26 33L26 32L25 32L25 31L26 31L26 30L27 30L27 31L28 31L28 29L29 29L29 32L27 32L27 33L29 33L29 32L30 32L30 31L31 31L31 30L30 30L30 29L31 29L31 27L32 27L32 26L31 26L31 27L29 27L29 26L30 26L30 24L31 24L31 23L32 23L32 22L33 22L33 23L36 23L36 25L37 25L37 23L38 23L38 22L37 22L37 21L38 21L38 20L37 20L37 21L36 21L36 19L33 19L33 20L34 20L34 22L33 22L33 21L32 21L32 19L31 19L31 16L30 16L30 14L32 14L32 13L31 13L31 12L33 12L33 11L32 11L32 10L31 10L31 9L32 9L32 8L31 8L31 9L29 9L29 10L28 10L28 11L29 11L29 12L27 12L27 11L24 11L24 9L26 9L26 10L27 10L27 9L28 9L28 8L30 8L30 6L29 6L29 7L28 7L28 4L27 4L27 2L26 2L26 3L25 3L25 5L23 5L23 4L22 4L22 3L20 3L20 2ZM25 5L25 6L24 6L24 7L23 7L23 6L22 6L22 7L23 7L23 8L22 8L22 9L23 9L23 8L24 8L24 7L25 7L25 8L26 8L26 9L27 9L27 8L26 8L26 7L27 7L27 6L26 6L26 5ZM9 6L9 7L10 7L10 6ZM13 6L13 8L14 8L14 6ZM25 6L25 7L26 7L26 6ZM5 8L5 9L7 9L7 10L4 10L4 9L1 9L1 10L0 10L0 11L1 11L1 12L2 12L2 11L8 11L8 12L10 12L10 10L8 10L8 9L7 9L7 8ZM38 8L38 9L39 9L39 8ZM40 8L40 10L39 10L39 11L40 11L40 10L41 10L41 8ZM22 10L22 11L21 11L21 12L23 12L23 13L24 13L24 14L25 14L25 16L26 16L26 15L28 15L28 16L27 16L27 17L28 17L28 18L26 18L26 17L24 17L24 18L20 18L20 21L22 21L22 22L19 22L19 20L18 20L18 19L19 19L19 17L18 17L18 19L16 19L16 20L15 20L15 19L14 19L14 18L13 18L13 19L14 19L14 21L13 21L13 22L14 22L14 21L16 21L16 20L17 20L17 21L18 21L18 22L16 22L16 23L14 23L14 24L15 24L15 25L16 25L16 26L17 26L17 29L16 29L16 28L15 28L15 26L13 26L13 29L11 29L11 31L10 31L10 32L12 32L12 31L13 31L13 32L14 32L14 31L16 31L16 30L18 30L18 32L19 32L19 33L21 33L21 32L22 32L22 31L20 31L20 32L19 32L19 30L21 30L21 28L20 28L20 27L19 27L19 26L20 26L20 25L21 25L21 26L22 26L22 29L23 29L23 30L26 30L26 29L28 29L28 28L29 28L29 29L30 29L30 28L29 28L29 27L28 27L28 25L29 25L29 23L30 23L30 22L32 22L32 21L30 21L30 22L29 22L29 23L28 23L28 20L27 20L27 22L26 22L26 23L27 23L27 25L24 25L24 27L23 27L23 26L22 26L22 25L23 25L23 24L18 24L18 23L22 23L22 22L23 22L23 23L24 23L24 24L25 24L25 21L26 21L26 19L29 19L29 20L31 20L31 19L29 19L29 18L30 18L30 16L29 16L29 14L27 14L27 12L26 12L26 14L25 14L25 12L23 12L23 10ZM34 10L34 12L35 12L35 10ZM11 11L11 12L13 12L13 11ZM37 11L37 12L38 12L38 11ZM40 12L40 13L39 13L39 14L41 14L41 12ZM1 13L1 14L0 14L0 15L1 15L1 14L2 14L2 13ZM16 13L16 14L17 14L17 13ZM20 14L20 15L22 15L22 14ZM6 15L6 16L7 16L7 15ZM37 15L37 16L36 16L36 17L35 17L35 18L36 18L36 17L37 17L37 16L38 16L38 15ZM28 16L28 17L29 17L29 16ZM38 17L38 18L39 18L39 17ZM24 18L24 19L23 19L23 20L22 20L22 19L21 19L21 20L22 20L22 21L25 21L25 18ZM6 21L6 22L7 22L7 23L6 23L6 24L7 24L7 23L8 23L8 24L9 24L9 23L8 23L8 22L7 22L7 21ZM35 21L35 22L36 22L36 21ZM16 23L16 25L17 25L17 23ZM5 25L5 26L8 26L8 25ZM18 25L18 26L19 26L19 25ZM40 25L40 26L41 26L41 25ZM26 26L26 27L24 27L24 29L26 29L26 27L27 27L27 28L28 28L28 27L27 27L27 26ZM34 26L34 27L35 27L35 26ZM11 27L11 28L12 28L12 27ZM18 27L18 30L19 30L19 29L20 29L20 28L19 28L19 27ZM40 27L40 28L41 28L41 27ZM36 28L36 29L37 29L37 30L38 30L38 29L37 29L37 28ZM13 29L13 30L15 30L15 29ZM33 33L33 36L36 36L36 33ZM34 34L34 35L35 35L35 34ZM19 36L19 38L20 38L20 36ZM30 37L30 39L28 39L28 40L30 40L30 39L31 39L31 37ZM11 38L11 39L13 39L13 38ZM25 38L25 40L26 40L26 38ZM23 39L23 40L24 40L24 39ZM35 39L35 40L36 40L36 39ZM37 39L37 40L38 40L38 39ZM0 0L0 7L7 7L7 0ZM1 1L1 6L6 6L6 1ZM2 2L2 5L5 5L5 2ZM34 0L34 7L41 7L41 0ZM35 1L35 6L40 6L40 1ZM36 2L36 5L39 5L39 2ZM0 34L0 41L7 41L7 34ZM1 35L1 40L6 40L6 35ZM2 36L2 39L5 39L5 36Z" fill="#000000"/></g></g></svg>
