<?xml version="1.0" encoding="UTF-8"?>
<svg xmlns="http://www.w3.org/2000/svg" version="1.1" width="350" height="350" viewBox="0 0 350 350"><rect x="0" y="0" width="350" height="350" fill="#ffffff"/><g transform="scale(9.459)"><g transform="translate(0,0)"><path fill-rule="evenodd" d="M10 0L10 2L9 2L9 1L8 1L8 7L9 7L9 3L10 3L10 9L9 9L9 8L5 8L5 9L4 9L4 10L2 10L2 11L1 11L1 10L0 10L0 14L1 14L1 16L2 16L2 17L0 17L0 19L1 19L1 18L2 18L2 19L7 19L7 20L6 20L6 21L5 21L5 22L4 22L4 21L3 21L3 22L2 22L2 20L1 20L1 21L0 21L0 23L2 23L2 24L1 24L1 25L3 25L3 26L0 26L0 27L2 27L2 28L0 28L0 29L2 29L2 28L4 28L4 29L5 29L5 28L4 28L4 27L3 27L3 26L4 26L4 24L3 24L3 22L4 22L4 23L7 23L7 24L5 24L5 27L7 27L7 26L9 26L9 27L8 27L8 28L9 28L9 29L8 29L8 32L9 32L9 34L8 34L8 35L9 35L9 37L13 37L13 35L14 35L14 34L16 34L16 35L17 35L17 36L16 36L16 37L18 37L18 35L17 35L17 34L19 34L19 33L18 33L18 32L20 32L20 34L21 34L21 33L22 33L22 34L23 34L23 35L21 35L21 37L23 37L23 35L24 35L24 37L25 37L25 35L26 35L26 34L27 34L27 33L28 33L28 35L27 35L27 37L29 37L29 35L30 35L30 34L29 34L29 33L31 33L31 34L32 34L32 35L31 35L31 36L30 36L30 37L31 37L31 36L32 36L32 37L33 37L33 36L32 36L32 35L34 35L34 34L35 34L35 35L37 35L37 28L34 28L34 26L35 26L35 27L37 27L37 21L36 21L36 20L37 20L37 17L36 17L36 19L35 19L35 18L31 18L31 17L32 17L32 16L31 16L31 15L30 15L30 16L29 16L29 18L28 18L28 17L27 17L27 16L26 16L26 17L24 17L24 16L25 16L25 15L28 15L28 14L32 14L32 12L33 12L33 13L34 13L34 14L33 14L33 16L34 16L34 15L36 15L36 16L37 16L37 13L35 13L35 12L37 12L37 9L36 9L36 8L31 8L31 10L29 10L29 9L30 9L30 8L29 8L29 2L27 2L27 3L26 3L26 0L25 0L25 3L23 3L23 4L22 4L22 5L21 5L21 2L23 2L23 0L22 0L22 1L20 1L20 0L19 0L19 1L17 1L17 0L13 0L13 1L12 1L12 0ZM28 0L28 1L29 1L29 0ZM11 1L11 2L10 2L10 3L13 3L13 4L11 4L11 7L12 7L12 8L13 8L13 10L14 10L14 11L13 11L13 12L14 12L14 13L13 13L13 14L12 14L12 16L11 16L11 15L10 15L10 14L9 14L9 12L10 12L10 13L12 13L12 12L10 12L10 10L12 10L12 9L10 9L10 10L9 10L9 9L5 9L5 10L4 10L4 11L3 11L3 13L4 13L4 11L5 11L5 12L7 12L7 11L5 11L5 10L9 10L9 12L8 12L8 17L9 17L9 15L10 15L10 16L11 16L11 17L10 17L10 19L11 19L11 18L13 18L13 19L12 19L12 20L11 20L11 21L10 21L10 20L9 20L9 18L7 18L7 17L6 17L6 18L7 18L7 19L8 19L8 20L9 20L9 21L10 21L10 23L11 23L11 24L12 24L12 25L13 25L13 26L11 26L11 25L10 25L10 24L7 24L7 25L6 25L6 26L7 26L7 25L10 25L10 26L11 26L11 27L12 27L12 28L10 28L10 29L9 29L9 32L10 32L10 33L11 33L11 35L10 35L10 36L12 36L12 35L13 35L13 34L12 34L12 33L13 33L13 32L14 32L14 33L16 33L16 31L15 31L15 30L13 30L13 28L15 28L15 24L16 24L16 26L17 26L17 20L21 20L21 22L19 22L19 21L18 21L18 22L19 22L19 23L18 23L18 25L19 25L19 24L20 24L20 26L18 26L18 27L16 27L16 28L17 28L17 30L18 30L18 31L17 31L17 32L18 32L18 31L19 31L19 30L21 30L21 29L25 29L25 30L24 30L24 31L25 31L25 33L24 33L24 32L22 32L22 33L23 33L23 34L26 34L26 32L27 32L27 31L28 31L28 28L30 28L30 27L31 27L31 28L32 28L32 27L33 27L33 26L34 26L34 25L35 25L35 26L36 26L36 25L35 25L35 24L36 24L36 23L35 23L35 22L36 22L36 21L35 21L35 19L31 19L31 21L32 21L32 22L34 22L34 25L32 25L32 26L31 26L31 25L30 25L30 23L31 23L31 22L30 22L30 23L29 23L29 21L30 21L30 20L29 20L29 19L30 19L30 18L29 18L29 19L28 19L28 20L26 20L26 19L25 19L25 18L24 18L24 19L23 19L23 20L24 20L24 19L25 19L25 21L28 21L28 23L29 23L29 26L28 26L28 24L26 24L26 22L23 22L23 21L22 21L22 18L20 18L20 17L22 17L22 16L24 16L24 15L21 15L21 16L20 16L20 14L24 14L24 13L21 13L21 10L22 10L22 8L23 8L23 7L24 7L24 6L25 6L25 8L24 8L24 9L23 9L23 10L24 10L24 11L23 11L23 12L24 12L24 11L25 11L25 14L26 14L26 11L25 11L25 10L28 10L28 8L27 8L27 7L28 7L28 4L27 4L27 5L26 5L26 4L24 4L24 5L22 5L22 6L21 6L21 5L20 5L20 3L19 3L19 2L20 2L20 1L19 1L19 2L18 2L18 3L19 3L19 4L17 4L17 5L19 5L19 7L20 7L20 8L18 8L18 9L17 9L17 7L18 7L18 6L17 6L17 7L16 7L16 6L15 6L15 7L16 7L16 8L13 8L13 7L14 7L14 6L13 6L13 5L15 5L15 3L14 3L14 2L12 2L12 1ZM16 2L16 3L17 3L17 2ZM25 5L25 6L26 6L26 7L27 7L27 6L26 6L26 5ZM12 6L12 7L13 7L13 6ZM20 6L20 7L21 7L21 6ZM22 6L22 7L23 7L23 6ZM2 8L2 9L3 9L3 8ZM25 8L25 9L26 9L26 8ZM14 9L14 10L15 10L15 11L14 11L14 12L15 12L15 14L13 14L13 15L14 15L14 17L15 17L15 14L16 14L16 11L17 11L17 12L19 12L19 11L17 11L17 10L15 10L15 9ZM20 9L20 10L21 10L21 9ZM32 9L32 10L33 10L33 11L34 11L34 12L35 12L35 11L36 11L36 10L33 10L33 9ZM27 11L27 13L29 13L29 12L31 12L31 11L29 11L29 12L28 12L28 11ZM5 13L5 14L7 14L7 13ZM2 14L2 15L3 15L3 16L4 16L4 14ZM18 14L18 15L17 15L17 16L18 16L18 17L17 17L17 18L19 18L19 17L20 17L20 16L19 16L19 14ZM6 15L6 16L7 16L7 15ZM3 17L3 18L4 18L4 17ZM14 18L14 19L15 19L15 20L17 20L17 19L16 19L16 18ZM28 20L28 21L29 21L29 20ZM33 20L33 21L34 21L34 20ZM6 21L6 22L7 22L7 23L9 23L9 22L7 22L7 21ZM11 21L11 23L12 23L12 24L13 24L13 25L14 25L14 24L13 24L13 22L14 22L14 21L13 21L13 22L12 22L12 21ZM15 21L15 22L16 22L16 21ZM21 22L21 23L20 23L20 24L22 24L22 22ZM24 23L24 24L23 24L23 25L24 25L24 27L23 27L23 26L22 26L22 25L21 25L21 26L20 26L20 27L19 27L19 28L20 28L20 29L21 29L21 28L25 28L25 25L26 25L26 24L25 24L25 23ZM32 23L32 24L33 24L33 23ZM21 26L21 27L22 27L22 26ZM26 26L26 27L27 27L27 28L26 28L26 30L25 30L25 31L27 31L27 28L28 28L28 26ZM29 26L29 27L30 27L30 26ZM6 28L6 29L7 29L7 28ZM10 29L10 30L11 30L11 31L12 31L12 32L11 32L11 33L12 33L12 32L13 32L13 31L12 31L12 29ZM18 29L18 30L19 30L19 29ZM29 29L29 32L32 32L32 29ZM34 29L34 30L36 30L36 29ZM30 30L30 31L31 31L31 30ZM34 31L34 32L33 32L33 33L35 33L35 34L36 34L36 32L35 32L35 31ZM19 36L19 37L20 37L20 36ZM36 36L36 37L37 37L37 36ZM0 0L0 7L7 7L7 0ZM1 1L1 6L6 6L6 1ZM2 2L2 5L5 5L5 2ZM30 0L30 7L37 7L37 0ZM31 1L31 6L36 6L36 1ZM32 2L32 5L35 5L35 2ZM0 30L0 37L7 37L7 30ZM1 31L1 36L6 36L6 31ZM2 32L2 35L5 35L5 32Z" fill="#000000"/></g></g></svg>
