<?xml version="1.0" encoding="UTF-8"?>
<svg xmlns="http://www.w3.org/2000/svg" version="1.1" width="350" height="350" viewBox="0 0 350 350"><rect x="0" y="0" width="350" height="350" fill="#ffffff"/><g transform="scale(8.537)"><g transform="translate(0,0)"><path fill-rule="evenodd" d="M9 0L9 1L10 1L10 2L11 2L11 3L13 3L13 2L11 2L11 1L14 1L14 2L15 2L15 3L16 3L16 4L13 4L13 5L12 5L12 4L11 4L11 5L10 5L10 4L9 4L9 2L8 2L8 4L9 4L9 5L10 5L10 8L9 8L9 9L10 9L10 10L8 10L8 8L6 8L6 9L5 9L5 8L3 8L3 9L2 9L2 10L0 10L0 11L1 11L1 12L0 12L0 15L2 15L2 17L1 17L1 16L0 16L0 17L1 17L1 19L0 19L0 20L3 20L3 19L4 19L4 18L5 18L5 20L4 20L4 22L6 22L6 23L7 23L7 22L8 22L8 23L9 23L9 24L10 24L10 25L8 25L8 24L6 24L6 25L8 25L8 26L10 26L10 27L11 27L11 26L12 26L12 25L11 25L11 23L10 23L10 21L9 21L9 22L8 22L8 20L6 20L6 19L7 19L7 18L6 18L6 17L8 17L8 18L9 18L9 20L11 20L11 22L12 22L12 24L13 24L13 22L14 22L14 21L15 21L15 20L16 20L16 21L17 21L17 22L16 22L16 23L14 23L14 25L13 25L13 26L14 26L14 27L12 27L12 28L13 28L13 29L10 29L10 30L9 30L9 29L7 29L7 28L6 28L6 27L7 27L7 26L6 26L6 27L4 27L4 30L6 30L6 31L5 31L5 32L4 32L4 31L3 31L3 29L2 29L2 30L1 30L1 29L0 29L0 33L5 33L5 32L6 32L6 33L8 33L8 35L9 35L9 36L8 36L8 38L9 38L9 37L10 37L10 39L11 39L11 40L13 40L13 39L14 39L14 38L15 38L15 37L16 37L16 38L17 38L17 40L19 40L19 41L20 41L20 40L21 40L21 41L23 41L23 39L24 39L24 41L25 41L25 38L27 38L27 41L29 41L29 40L28 40L28 38L29 38L29 39L30 39L30 41L31 41L31 39L30 39L30 38L32 38L32 39L34 39L34 40L32 40L32 41L34 41L34 40L35 40L35 39L36 39L36 41L38 41L38 40L39 40L39 39L40 39L40 40L41 40L41 35L40 35L40 34L39 34L39 35L40 35L40 36L39 36L39 37L38 37L38 38L36 38L36 37L37 37L37 36L38 36L38 33L41 33L41 30L40 30L40 31L38 31L38 30L39 30L39 29L40 29L40 27L41 27L41 23L40 23L40 26L39 26L39 25L38 25L38 26L37 26L37 25L36 25L36 24L38 24L38 23L39 23L39 19L40 19L40 20L41 20L41 18L40 18L40 17L41 17L41 11L40 11L40 12L39 12L39 13L36 13L36 16L37 16L37 17L35 17L35 18L33 18L33 17L34 17L34 16L32 16L32 17L29 17L29 19L32 19L32 18L33 18L33 19L36 19L36 20L37 20L37 21L36 21L36 22L35 22L35 23L36 23L36 24L34 24L34 23L31 23L31 24L30 24L30 23L29 23L29 24L28 24L28 21L29 21L29 20L28 20L28 21L27 21L27 22L25 22L25 21L23 21L23 20L27 20L27 19L28 19L28 17L26 17L26 16L23 16L23 15L24 15L24 14L25 14L25 15L26 15L26 13L27 13L27 12L28 12L28 15L27 15L27 16L28 16L28 15L29 15L29 12L30 12L30 10L29 10L29 9L31 9L31 10L33 10L33 11L34 11L34 13L35 13L35 11L34 11L34 10L37 10L37 9L39 9L39 10L38 10L38 11L37 11L37 12L38 12L38 11L39 11L39 10L41 10L41 9L39 9L39 8L37 8L37 9L34 9L34 10L33 10L33 6L32 6L32 8L31 8L31 5L32 5L32 4L33 4L33 3L32 3L32 4L28 4L28 3L27 3L27 0L25 0L25 2L24 2L24 5L22 5L22 4L23 4L23 3L21 3L21 2L20 2L20 0L16 0L16 1L15 1L15 0L11 0L11 1L10 1L10 0ZM22 0L22 2L23 2L23 1L24 1L24 0ZM30 0L30 1L29 1L29 3L31 3L31 2L33 2L33 1L31 1L31 0ZM16 1L16 2L17 2L17 3L18 3L18 2L19 2L19 4L21 4L21 3L20 3L20 2L19 2L19 1ZM30 1L30 2L31 2L31 1ZM25 3L25 4L26 4L26 5L27 5L27 9L29 9L29 8L30 8L30 5L28 5L28 4L26 4L26 3ZM16 4L16 5L14 5L14 6L13 6L13 8L12 8L12 6L11 6L11 8L10 8L10 9L11 9L11 8L12 8L12 10L10 10L10 11L11 11L11 12L8 12L8 10L7 10L7 9L6 9L6 10L7 10L7 11L5 11L5 10L4 10L4 9L3 9L3 10L2 10L2 12L1 12L1 13L4 13L4 12L3 12L3 10L4 10L4 11L5 11L5 13L6 13L6 14L7 14L7 13L8 13L8 14L9 14L9 16L10 16L10 17L9 17L9 18L11 18L11 16L12 16L12 15L13 15L13 16L14 16L14 15L15 15L15 17L14 17L14 19L13 19L13 18L12 18L12 19L11 19L11 20L12 20L12 22L13 22L13 20L15 20L15 19L16 19L16 18L17 18L17 19L19 19L19 20L18 20L18 21L19 21L19 22L17 22L17 25L18 25L18 26L19 26L19 24L21 24L21 25L20 25L20 26L21 26L21 27L20 27L20 29L22 29L22 27L23 27L23 25L25 25L25 27L24 27L24 28L25 28L25 29L23 29L23 30L24 30L24 32L25 32L25 30L28 30L28 31L26 31L26 32L28 32L28 34L29 34L29 36L28 36L28 37L29 37L29 36L30 36L30 37L31 37L31 36L30 36L30 35L31 35L31 34L32 34L32 33L31 33L31 32L30 32L30 31L31 31L31 30L30 30L30 29L31 29L31 27L29 27L29 30L28 30L28 29L27 29L27 28L28 28L28 27L27 27L27 26L26 26L26 24L21 24L21 23L24 23L24 22L21 22L21 21L22 21L22 20L23 20L23 19L22 19L22 18L25 18L25 17L21 17L21 16L20 16L20 15L19 15L19 17L18 17L18 16L17 16L17 15L18 15L18 14L21 14L21 15L22 15L22 13L23 13L23 12L25 12L25 13L26 13L26 12L27 12L27 10L26 10L26 11L24 11L24 9L25 9L25 7L26 7L26 6L25 6L25 5L24 5L24 6L23 6L23 7L24 7L24 8L22 8L22 9L20 9L20 8L21 8L21 7L22 7L22 5L21 5L21 7L20 7L20 6L19 6L19 10L21 10L21 11L20 11L20 12L17 12L17 14L16 14L16 15L15 15L15 14L14 14L14 15L13 15L13 13L16 13L16 12L14 12L14 11L16 11L16 9L15 9L15 8L14 8L14 6L15 6L15 7L16 7L16 6L17 6L17 11L18 11L18 6L17 6L17 5L18 5L18 4ZM8 6L8 7L9 7L9 6ZM24 6L24 7L25 7L25 6ZM28 6L28 7L29 7L29 6ZM14 9L14 10L15 10L15 9ZM22 9L22 11L21 11L21 12L20 12L20 13L21 13L21 12L22 12L22 11L23 11L23 9ZM12 10L12 12L13 12L13 10ZM28 10L28 12L29 12L29 10ZM6 12L6 13L7 13L7 12ZM31 12L31 14L30 14L30 15L32 15L32 14L33 14L33 15L34 15L34 14L33 14L33 12ZM10 13L10 14L12 14L12 13ZM2 14L2 15L5 15L5 16L4 16L4 17L3 17L3 18L2 18L2 19L3 19L3 18L4 18L4 17L6 17L6 16L7 16L7 15L5 15L5 14ZM37 14L37 16L38 16L38 18L39 18L39 16L38 16L38 15L40 15L40 14ZM10 15L10 16L11 16L11 15ZM15 17L15 18L16 18L16 17ZM17 17L17 18L18 18L18 17ZM19 17L19 19L20 19L20 20L19 20L19 21L21 21L21 20L22 20L22 19L21 19L21 18L20 18L20 17ZM37 19L37 20L38 20L38 19ZM5 20L5 21L6 21L6 22L7 22L7 21L6 21L6 20ZM30 20L30 21L31 21L31 22L32 22L32 21L33 21L33 22L34 22L34 21L35 21L35 20L32 20L32 21L31 21L31 20ZM0 21L0 23L1 23L1 22L2 22L2 21ZM37 21L37 23L38 23L38 21ZM19 22L19 23L18 23L18 24L19 24L19 23L20 23L20 22ZM3 23L3 24L0 24L0 25L1 25L1 26L0 26L0 28L1 28L1 26L2 26L2 28L3 28L3 26L5 26L5 23ZM29 24L29 25L28 25L28 26L30 26L30 24ZM31 24L31 26L32 26L32 25L33 25L33 27L32 27L32 28L33 28L33 29L34 29L34 30L33 30L33 31L32 31L32 32L33 32L33 31L35 31L35 32L37 32L37 33L38 33L38 32L37 32L37 31L35 31L35 29L37 29L37 30L38 30L38 29L39 29L39 28L38 28L38 29L37 29L37 28L36 28L36 27L37 27L37 26L36 26L36 25L35 25L35 26L34 26L34 24ZM2 25L2 26L3 26L3 25ZM10 25L10 26L11 26L11 25ZM21 25L21 26L22 26L22 25ZM38 26L38 27L39 27L39 26ZM8 27L8 28L9 28L9 27ZM15 27L15 28L14 28L14 29L13 29L13 31L12 31L12 30L11 30L11 31L10 31L10 32L9 32L9 33L10 33L10 34L9 34L9 35L10 35L10 34L11 34L11 35L13 35L13 33L10 33L10 32L14 32L14 33L15 33L15 34L16 34L16 35L14 35L14 37L13 37L13 36L10 36L10 37L13 37L13 38L11 38L11 39L13 39L13 38L14 38L14 37L15 37L15 36L16 36L16 35L17 35L17 37L19 37L19 38L18 38L18 39L19 39L19 40L20 40L20 39L19 39L19 38L20 38L20 37L21 37L21 36L22 36L22 39L23 39L23 37L24 37L24 36L26 36L26 37L27 37L27 34L26 34L26 33L24 33L24 34L25 34L25 35L24 35L24 36L23 36L23 32L22 32L22 30L21 30L21 32L19 32L19 31L18 31L18 30L19 30L19 27L18 27L18 28L16 28L16 27ZM26 27L26 28L27 28L27 27ZM34 27L34 28L35 28L35 27ZM15 28L15 30L14 30L14 31L15 31L15 30L16 30L16 28ZM6 29L6 30L7 30L7 31L6 31L6 32L8 32L8 30L7 30L7 29ZM29 30L29 31L30 31L30 30ZM2 31L2 32L3 32L3 31ZM17 31L17 32L18 32L18 33L17 33L17 35L19 35L19 36L20 36L20 35L19 35L19 34L21 34L21 35L22 35L22 34L21 34L21 33L19 33L19 32L18 32L18 31ZM29 32L29 34L30 34L30 32ZM18 33L18 34L19 34L19 33ZM33 33L33 36L36 36L36 33ZM34 34L34 35L35 35L35 34ZM33 37L33 38L34 38L34 39L35 39L35 37ZM15 40L15 41L16 41L16 40ZM0 0L0 7L7 7L7 0ZM1 1L1 6L6 6L6 1ZM2 2L2 5L5 5L5 2ZM34 0L34 7L41 7L41 0ZM35 1L35 6L40 6L40 1ZM36 2L36 5L39 5L39 2ZM0 34L0 41L7 41L7 34ZM1 35L1 40L6 40L6 35ZM2 36L2 39L5 39L5 36Z" fill="#000000"/></g></g></svg>
