<?xml version="1.0" encoding="UTF-8"?>
<svg xmlns="http://www.w3.org/2000/svg" version="1.1" width="350" height="350" viewBox="0 0 350 350"><rect x="0" y="0" width="350" height="350" fill="#ffffff"/><g transform="scale(8.537)"><g transform="translate(0,0)"><path fill-rule="evenodd" d="M9 0L9 2L8 2L8 4L9 4L9 2L10 2L10 5L11 5L11 6L10 6L10 7L9 7L9 6L8 6L8 7L9 7L9 9L10 9L10 10L9 10L9 12L13 12L13 11L10 11L10 10L11 10L11 9L12 9L12 8L15 8L15 9L16 9L16 10L15 10L15 11L14 11L14 12L16 12L16 13L17 13L17 12L19 12L19 13L20 13L20 12L22 12L22 11L23 11L23 13L22 13L22 14L20 14L20 15L19 15L19 14L18 14L18 15L19 15L19 16L21 16L21 15L23 15L23 16L24 16L24 18L23 18L23 17L19 17L19 18L17 18L17 20L16 20L16 17L15 17L15 16L12 16L12 15L11 15L11 17L10 17L10 19L9 19L9 16L10 16L10 14L14 14L14 15L16 15L16 16L17 16L17 17L18 17L18 16L17 16L17 15L16 15L16 14L15 14L15 13L10 13L10 14L8 14L8 12L5 12L5 10L4 10L4 12L5 12L5 13L3 13L3 11L2 11L2 9L1 9L1 11L0 11L0 12L1 12L1 13L0 13L0 15L1 15L1 19L0 19L0 20L2 20L2 21L0 21L0 22L1 22L1 23L3 23L3 25L4 25L4 23L3 23L3 21L4 21L4 22L6 22L6 23L5 23L5 24L6 24L6 25L5 25L5 27L4 27L4 29L5 29L5 30L4 30L4 31L3 31L3 28L2 28L2 27L1 27L1 28L0 28L0 33L4 33L4 31L5 31L5 32L6 32L6 33L8 33L8 35L10 35L10 36L8 36L8 38L9 38L9 37L10 37L10 39L9 39L9 40L10 40L10 41L11 41L11 40L12 40L12 41L13 41L13 39L11 39L11 38L14 38L14 37L10 37L10 36L13 36L13 34L12 34L12 33L13 33L13 32L14 32L14 34L15 34L15 35L14 35L14 36L15 36L15 37L16 37L16 38L18 38L18 40L17 40L17 41L20 41L20 40L21 40L21 41L22 41L22 40L23 40L23 39L24 39L24 41L25 41L25 40L26 40L26 39L25 39L25 37L26 37L26 38L27 38L27 41L29 41L29 40L28 40L28 38L29 38L29 39L30 39L30 41L31 41L31 39L30 39L30 38L32 38L32 37L35 37L35 39L34 39L34 38L33 38L33 39L34 39L34 40L32 40L32 41L34 41L34 40L35 40L35 39L36 39L36 41L37 41L37 40L39 40L39 39L40 39L40 40L41 40L41 35L40 35L40 34L39 34L39 35L40 35L40 36L39 36L39 37L38 37L38 38L36 38L36 37L37 37L37 36L38 36L38 33L41 33L41 30L40 30L40 31L38 31L38 30L39 30L39 29L40 29L40 28L41 28L41 25L40 25L40 24L41 24L41 23L40 23L40 24L39 24L39 25L38 25L38 22L39 22L39 19L40 19L40 20L41 20L41 18L40 18L40 17L41 17L41 11L39 11L39 10L40 10L40 9L39 9L39 8L37 8L37 9L35 9L35 10L37 10L37 9L39 9L39 10L38 10L38 11L37 11L37 12L38 12L38 11L39 11L39 13L36 13L36 16L37 16L37 17L35 17L35 18L33 18L33 17L34 17L34 16L32 16L32 17L29 17L29 18L31 18L31 19L30 19L30 20L28 20L28 17L27 17L27 16L28 16L28 15L30 15L30 16L31 16L31 15L32 15L32 14L31 14L31 15L30 15L30 14L29 14L29 12L30 12L30 10L29 10L29 9L31 9L31 10L33 10L33 12L31 12L31 13L33 13L33 12L34 12L34 14L33 14L33 15L34 15L34 14L35 14L35 12L34 12L34 10L33 10L33 6L32 6L32 8L31 8L31 5L32 5L32 4L33 4L33 1L31 1L31 0L29 0L29 1L31 1L31 2L30 2L30 3L29 3L29 4L28 4L28 5L30 5L30 8L29 8L29 9L26 9L26 8L27 8L27 5L25 5L25 3L26 3L26 4L27 4L27 3L28 3L28 2L27 2L27 0L25 0L25 2L23 2L23 4L24 4L24 5L21 5L21 4L17 4L17 3L21 3L21 2L22 2L22 1L24 1L24 0L20 0L20 2L19 2L19 0L17 0L17 1L16 1L16 2L15 2L15 3L16 3L16 4L14 4L14 7L13 7L13 5L12 5L12 4L11 4L11 3L14 3L14 0L13 0L13 2L12 2L12 0L11 0L11 2L10 2L10 0ZM16 2L16 3L17 3L17 2ZM30 3L30 4L32 4L32 3ZM16 4L16 5L15 5L15 7L16 7L16 6L17 6L17 7L18 7L18 6L19 6L19 9L20 9L20 10L21 10L21 11L22 11L22 10L23 10L23 11L25 11L25 12L24 12L24 13L23 13L23 14L25 14L25 15L24 15L24 16L25 16L25 18L24 18L24 19L23 19L23 18L22 18L22 20L21 20L21 19L19 19L19 20L17 20L17 21L14 21L14 20L15 20L15 17L11 17L11 19L13 19L13 18L14 18L14 20L11 20L11 21L10 21L10 23L6 23L6 24L9 24L9 25L8 25L8 26L9 26L9 27L8 27L8 28L7 28L7 27L6 27L6 28L7 28L7 29L6 29L6 30L5 30L5 31L6 31L6 32L8 32L8 33L10 33L10 35L12 35L12 34L11 34L11 33L12 33L12 31L9 31L9 32L8 32L8 30L7 30L7 29L9 29L9 30L10 30L10 29L11 29L11 28L12 28L12 29L13 29L13 27L14 27L14 26L12 26L12 27L10 27L10 26L9 26L9 25L10 25L10 23L11 23L11 25L14 25L14 24L12 24L12 22L13 22L13 23L16 23L16 22L17 22L17 24L18 24L18 25L19 25L19 27L18 27L18 28L16 28L16 27L17 27L17 26L16 26L16 27L15 27L15 28L14 28L14 31L16 31L16 32L15 32L15 33L16 33L16 32L17 32L17 34L16 34L16 35L15 35L15 36L16 36L16 35L17 35L17 36L18 36L18 37L19 37L19 38L20 38L20 37L21 37L21 36L22 36L22 38L21 38L21 39L22 39L22 38L23 38L23 33L25 33L25 34L24 34L24 35L26 35L26 37L27 37L27 36L28 36L28 37L31 37L31 36L28 36L28 35L27 35L27 34L26 34L26 32L25 32L25 31L27 31L27 30L28 30L28 31L29 31L29 32L28 32L28 34L29 34L29 35L31 35L31 34L32 34L32 33L31 33L31 32L32 32L32 31L35 31L35 32L37 32L37 33L38 33L38 32L37 32L37 31L35 31L35 29L37 29L37 30L38 30L38 29L39 29L39 28L38 28L38 29L37 29L37 28L36 28L36 27L37 27L37 26L38 26L38 27L40 27L40 25L39 25L39 26L38 26L38 25L37 25L37 24L36 24L36 25L35 25L35 28L34 28L34 23L36 23L36 22L35 22L35 21L34 21L34 22L33 22L33 21L32 21L32 22L30 22L30 21L31 21L31 20L36 20L36 21L37 21L37 22L38 22L38 21L37 21L37 20L38 20L38 19L37 19L37 20L36 20L36 19L33 19L33 18L32 18L32 19L31 19L31 20L30 20L30 21L28 21L28 24L29 24L29 25L28 25L28 26L30 26L30 24L31 24L31 26L32 26L32 25L33 25L33 27L32 27L32 28L33 28L33 29L34 29L34 30L32 30L32 31L31 31L31 30L28 30L28 29L31 29L31 27L29 27L29 28L28 28L28 27L27 27L27 26L26 26L26 25L27 25L27 23L26 23L26 22L27 22L27 20L25 20L25 18L26 18L26 19L27 19L27 17L26 17L26 16L27 16L27 15L28 15L28 12L29 12L29 10L28 10L28 12L27 12L27 10L26 10L26 11L25 11L25 10L24 10L24 9L25 9L25 8L26 8L26 6L25 6L25 5L24 5L24 6L23 6L23 7L22 7L22 6L21 6L21 7L20 7L20 6L19 6L19 5L17 5L17 4ZM11 6L11 7L10 7L10 9L11 9L11 8L12 8L12 6ZM24 6L24 7L23 7L23 8L22 8L22 7L21 7L21 8L20 8L20 9L21 9L21 8L22 8L22 9L23 9L23 8L24 8L24 7L25 7L25 6ZM28 6L28 7L29 7L29 6ZM3 8L3 9L5 9L5 8ZM6 8L6 9L7 9L7 10L6 10L6 11L7 11L7 10L8 10L8 8ZM16 8L16 9L17 9L17 11L16 11L16 12L17 12L17 11L18 11L18 8ZM19 11L19 12L20 12L20 11ZM26 12L26 13L25 13L25 14L26 14L26 15L25 15L25 16L26 16L26 15L27 15L27 14L26 14L26 13L27 13L27 12ZM5 13L5 14L2 14L2 15L5 15L5 17L6 17L6 18L7 18L7 17L6 17L6 16L7 16L7 15L6 15L6 14L7 14L7 13ZM37 14L37 16L38 16L38 18L39 18L39 16L38 16L38 15L40 15L40 14ZM3 16L3 17L4 17L4 16ZM3 18L3 19L2 19L2 20L5 20L5 21L6 21L6 22L8 22L8 21L9 21L9 20L8 20L8 19L6 19L6 20L5 20L5 18ZM6 20L6 21L8 21L8 20ZM19 20L19 21L17 21L17 22L18 22L18 24L19 24L19 25L20 25L20 27L19 27L19 30L20 30L20 32L19 32L19 33L18 33L18 36L19 36L19 33L20 33L20 34L21 34L21 35L20 35L20 36L21 36L21 35L22 35L22 34L21 34L21 33L20 33L20 32L21 32L21 31L23 31L23 32L24 32L24 31L23 31L23 30L25 30L25 25L26 25L26 24L25 24L25 22L26 22L26 21L24 21L24 20L23 20L23 21L21 21L21 20ZM11 21L11 22L12 22L12 21ZM19 21L19 22L20 22L20 23L19 23L19 24L20 24L20 25L22 25L22 26L21 26L21 27L20 27L20 30L22 30L22 27L23 27L23 26L24 26L24 24L22 24L22 23L24 23L24 22L21 22L21 21ZM29 23L29 24L30 24L30 23ZM31 23L31 24L33 24L33 23ZM1 24L1 25L0 25L0 26L2 26L2 24ZM6 25L6 26L7 26L7 25ZM36 25L36 26L37 26L37 25ZM26 27L26 28L27 28L27 29L28 29L28 28L27 28L27 27ZM1 28L1 29L2 29L2 28ZM23 28L23 29L24 29L24 28ZM16 29L16 31L17 31L17 32L18 32L18 31L17 31L17 30L18 30L18 29ZM6 30L6 31L7 31L7 30ZM2 31L2 32L3 32L3 31ZM29 32L29 33L30 33L30 34L31 34L31 33L30 33L30 32ZM33 33L33 36L36 36L36 33ZM34 34L34 35L35 35L35 34ZM38 38L38 39L39 39L39 38ZM19 39L19 40L20 40L20 39ZM15 40L15 41L16 41L16 40ZM0 0L0 7L7 7L7 0ZM1 1L1 6L6 6L6 1ZM2 2L2 5L5 5L5 2ZM34 0L34 7L41 7L41 0ZM35 1L35 6L40 6L40 1ZM36 2L36 5L39 5L39 2ZM0 34L0 41L7 41L7 34ZM1 35L1 40L6 40L6 35ZM2 36L2 39L5 39L5 36Z" fill="#000000"/></g></g></svg>
