<?xml version="1.0" encoding="UTF-8"?>
<svg xmlns="http://www.w3.org/2000/svg" version="1.1" width="200" height="200" viewBox="0 0 200 200"><rect x="0" y="0" width="200" height="200" fill="#ffffff"/><g transform="scale(5.405)"><g transform="translate(0,0)"><path fill-rule="evenodd" d="M10 0L10 1L11 1L11 2L10 2L10 3L9 3L9 5L8 5L8 8L4 8L4 10L1 10L1 9L0 9L0 10L1 10L1 11L4 11L4 10L5 10L5 12L6 12L6 13L8 13L8 14L9 14L9 16L8 16L8 17L9 17L9 16L11 16L11 17L12 17L12 16L13 16L13 15L12 15L12 14L11 14L11 13L12 13L12 12L15 12L15 14L16 14L16 13L17 13L17 14L19 14L19 16L20 16L20 17L18 17L18 15L14 15L14 17L13 17L13 19L14 19L14 18L15 18L15 19L16 19L16 18L15 18L15 17L18 17L18 19L17 19L17 20L15 20L15 21L14 21L14 22L15 22L15 23L14 23L14 25L13 25L13 26L12 26L12 25L11 25L11 26L10 26L10 24L9 24L9 23L10 23L10 20L12 20L12 19L11 19L11 18L10 18L10 19L9 19L9 18L5 18L5 17L7 17L7 16L5 16L5 15L3 15L3 14L4 14L4 12L0 12L0 13L1 13L1 14L0 14L0 15L1 15L1 16L2 16L2 17L3 17L3 16L5 16L5 17L4 17L4 18L3 18L3 20L4 20L4 19L7 19L7 20L5 20L5 21L9 21L9 22L4 22L4 24L3 24L3 22L2 22L2 23L1 23L1 22L0 22L0 24L1 24L1 25L0 25L0 26L2 26L2 28L0 28L0 29L2 29L2 28L3 28L3 29L4 29L4 28L5 28L5 29L7 29L7 28L6 28L6 27L8 27L8 33L9 33L9 32L10 32L10 35L11 35L11 33L14 33L14 32L13 32L13 31L15 31L15 34L14 34L14 35L15 35L15 37L17 37L17 33L18 33L18 35L19 35L19 36L18 36L18 37L19 37L19 36L21 36L21 35L20 35L20 34L21 34L21 32L20 32L20 30L18 30L18 27L19 27L19 28L20 28L20 29L21 29L21 31L24 31L24 32L22 32L22 34L23 34L23 36L24 36L24 37L25 37L25 36L24 36L24 35L25 35L25 34L26 34L26 35L27 35L27 34L26 34L26 33L27 33L27 32L26 32L26 33L24 33L24 32L25 32L25 30L26 30L26 29L27 29L27 28L28 28L28 35L29 35L29 37L31 37L31 36L32 36L32 37L37 37L37 36L36 36L36 34L35 34L35 33L37 33L37 31L36 31L36 30L34 30L34 29L35 29L35 28L36 28L36 29L37 29L37 28L36 28L36 26L35 26L35 27L34 27L34 29L33 29L33 28L32 28L32 27L31 27L31 25L32 25L32 26L33 26L33 25L32 25L32 23L31 23L31 22L30 22L30 21L31 21L31 19L30 19L30 20L29 20L29 18L30 18L30 17L31 17L31 18L33 18L33 20L34 20L34 21L37 21L37 20L35 20L35 18L33 18L33 17L36 17L36 16L37 16L37 15L36 15L36 12L37 12L37 11L36 11L36 12L35 12L35 11L34 11L34 12L33 12L33 13L32 13L32 11L33 11L33 10L36 10L36 8L35 8L35 9L32 9L32 8L30 8L30 10L29 10L29 9L28 9L28 8L27 8L27 5L28 5L28 7L29 7L29 5L28 5L28 4L27 4L27 3L29 3L29 2L27 2L27 1L28 1L28 0L27 0L27 1L26 1L26 0L25 0L25 1L24 1L24 0L23 0L23 1L22 1L22 0L20 0L20 1L19 1L19 2L20 2L20 3L19 3L19 4L17 4L17 3L16 3L16 2L18 2L18 0L17 0L17 1L15 1L15 0L12 0L12 1L11 1L11 0ZM8 1L8 2L9 2L9 1ZM13 1L13 2L14 2L14 3L13 3L13 4L12 4L12 5L11 5L11 3L10 3L10 5L9 5L9 7L10 7L10 10L7 10L7 9L5 9L5 10L7 10L7 11L6 11L6 12L7 12L7 11L10 11L10 12L9 12L9 14L10 14L10 15L11 15L11 14L10 14L10 12L12 12L12 11L13 11L13 9L14 9L14 10L16 10L16 12L18 12L18 13L19 13L19 14L20 14L20 16L21 16L21 14L24 14L24 15L25 15L25 16L22 16L22 17L24 17L24 18L25 18L25 21L24 21L24 20L23 20L23 19L22 19L22 18L19 18L19 19L18 19L18 23L17 23L17 25L18 25L18 26L20 26L20 27L21 27L21 29L23 29L23 28L24 28L24 30L25 30L25 29L26 29L26 28L27 28L27 26L28 26L28 27L29 27L29 26L30 26L30 25L31 25L31 24L30 24L30 25L27 25L27 24L29 24L29 23L30 23L30 22L29 22L29 20L28 20L28 19L27 19L27 17L26 17L26 16L27 16L27 13L26 13L26 11L27 11L27 12L29 12L29 13L30 13L30 14L28 14L28 15L30 15L30 14L32 14L32 13L30 13L30 12L31 12L31 11L32 11L32 10L30 10L30 12L29 12L29 11L28 11L28 9L26 9L26 10L24 10L24 11L25 11L25 13L24 13L24 12L23 12L23 13L22 13L22 12L21 12L21 11L23 11L23 10L22 10L22 6L23 6L23 9L24 9L24 6L23 6L23 5L25 5L25 4L24 4L24 1L23 1L23 2L21 2L21 3L23 3L23 4L21 4L21 5L22 5L22 6L21 6L21 7L20 7L20 6L19 6L19 5L20 5L20 4L19 4L19 5L18 5L18 6L17 6L17 5L15 5L15 4L16 4L16 3L15 3L15 1ZM25 1L25 3L26 3L26 1ZM13 4L13 5L12 5L12 7L13 7L13 8L12 8L12 9L13 9L13 8L14 8L14 7L15 7L15 8L16 8L16 10L17 10L17 8L16 8L16 7L17 7L17 6L16 6L16 7L15 7L15 5L14 5L14 4ZM10 5L10 7L11 7L11 5ZM13 6L13 7L14 7L14 6ZM18 6L18 8L20 8L20 7L19 7L19 6ZM25 6L25 8L26 8L26 6ZM8 8L8 9L9 9L9 8ZM18 9L18 12L19 12L19 11L21 11L21 10L20 10L20 9ZM10 10L10 11L12 11L12 10ZM2 13L2 14L1 14L1 15L2 15L2 14L3 14L3 13ZM13 13L13 14L14 14L14 13ZM25 13L25 14L26 14L26 13ZM33 13L33 14L34 14L34 13ZM6 14L6 15L7 15L7 14ZM31 15L31 16L32 16L32 17L33 17L33 16L34 16L34 15ZM29 16L29 17L28 17L28 18L29 18L29 17L30 17L30 16ZM1 18L1 19L2 19L2 18ZM8 19L8 20L9 20L9 19ZM20 19L20 21L22 21L22 19ZM26 19L26 20L27 20L27 22L25 22L25 24L24 24L24 21L23 21L23 22L19 22L19 23L20 23L20 24L19 24L19 25L20 25L20 26L21 26L21 27L23 27L23 26L22 26L22 25L23 25L23 24L24 24L24 25L25 25L25 27L24 27L24 28L25 28L25 27L26 27L26 26L27 26L27 25L26 25L26 23L28 23L28 20L27 20L27 19ZM1 20L1 21L2 21L2 20ZM11 21L11 24L13 24L13 23L12 23L12 22L13 22L13 21ZM15 21L15 22L17 22L17 21ZM32 21L32 22L33 22L33 23L34 23L34 25L35 25L35 24L36 24L36 25L37 25L37 23L36 23L36 22L35 22L35 23L34 23L34 22L33 22L33 21ZM6 23L6 24L5 24L5 25L4 25L4 27L3 27L3 28L4 28L4 27L5 27L5 25L6 25L6 26L9 26L9 24L7 24L7 23ZM15 23L15 25L16 25L16 23ZM6 24L6 25L7 25L7 24ZM20 24L20 25L21 25L21 24ZM11 26L11 27L9 27L9 29L10 29L10 28L12 28L12 29L13 29L13 30L12 30L12 31L13 31L13 30L14 30L14 29L13 29L13 27L14 27L14 26L13 26L13 27L12 27L12 26ZM16 27L16 29L17 29L17 27ZM29 29L29 32L32 32L32 29ZM10 30L10 32L11 32L11 30ZM30 30L30 31L31 31L31 30ZM16 31L16 33L17 33L17 31ZM33 31L33 32L34 32L34 31ZM35 31L35 32L36 32L36 31ZM18 32L18 33L19 33L19 34L20 34L20 32ZM23 33L23 34L24 34L24 33ZM29 33L29 34L30 34L30 33ZM31 33L31 34L32 34L32 36L33 36L33 33ZM15 34L15 35L16 35L16 34ZM34 34L34 35L35 35L35 34ZM30 35L30 36L31 36L31 35ZM10 36L10 37L11 37L11 36ZM12 36L12 37L13 37L13 36ZM0 0L0 7L7 7L7 0ZM1 1L1 6L6 6L6 1ZM2 2L2 5L5 5L5 2ZM30 0L30 7L37 7L37 0ZM31 1L31 6L36 6L36 1ZM32 2L32 5L35 5L35 2ZM0 30L0 37L7 37L7 30ZM1 31L1 36L6 36L6 31ZM2 32L2 35L5 35L5 32Z" fill="#000000"/></g></g></svg>
