<?xml version="1.0" encoding="UTF-8"?>
<svg xmlns="http://www.w3.org/2000/svg" version="1.1" width="350" height="350" viewBox="0 0 350 350"><rect x="0" y="0" width="350" height="350" fill="#ffffff"/><g transform="scale(9.459)"><g transform="translate(0,0)"><path fill-rule="evenodd" d="M9 0L9 2L8 2L8 4L9 4L9 3L10 3L10 4L11 4L11 3L10 3L10 0ZM11 0L11 1L12 1L12 2L13 2L13 1L15 1L15 3L14 3L14 4L15 4L15 5L11 5L11 6L10 6L10 9L8 9L8 8L6 8L6 9L8 9L8 11L7 11L7 10L4 10L4 9L5 9L5 8L3 8L3 9L0 9L0 11L1 11L1 15L0 15L0 16L1 16L1 18L0 18L0 20L1 20L1 21L0 21L0 22L1 22L1 23L2 23L2 24L1 24L1 25L0 25L0 29L1 29L1 27L2 27L2 29L3 29L3 26L4 26L4 25L2 25L2 24L5 24L5 26L6 26L6 27L7 27L7 26L6 26L6 25L7 25L7 24L10 24L10 25L9 25L9 26L8 26L8 27L9 27L9 29L8 29L8 28L6 28L6 29L8 29L8 31L9 31L9 32L8 32L8 34L10 34L10 35L9 35L9 37L13 37L13 34L14 34L14 33L15 33L15 34L16 34L16 33L17 33L17 35L16 35L16 36L17 36L17 35L18 35L18 37L20 37L20 35L18 35L18 34L20 34L20 33L19 33L19 32L20 32L20 29L21 29L21 33L22 33L22 32L23 32L23 33L25 33L25 32L27 32L27 33L30 33L30 34L29 34L29 36L28 36L28 35L27 35L27 37L29 37L29 36L30 36L30 37L31 37L31 36L32 36L32 37L33 37L33 36L32 36L32 35L34 35L34 36L36 36L36 37L37 37L37 34L34 34L34 33L33 33L33 32L34 32L34 31L35 31L35 33L37 33L37 32L36 32L36 31L37 31L37 30L36 30L36 29L37 29L37 26L36 26L36 28L35 28L35 26L34 26L34 24L35 24L35 25L37 25L37 24L36 24L36 23L37 23L37 22L35 22L35 21L37 21L37 20L35 20L35 21L34 21L34 20L33 20L33 19L35 19L35 18L36 18L36 19L37 19L37 18L36 18L36 17L35 17L35 14L36 14L36 15L37 15L37 14L36 14L36 13L34 13L34 12L35 12L35 10L36 10L36 11L37 11L37 10L36 10L36 9L35 9L35 8L33 8L33 9L31 9L31 10L29 10L29 9L28 9L28 10L27 10L27 8L29 8L29 6L28 6L28 7L27 7L27 4L28 4L28 3L29 3L29 2L27 2L27 1L26 1L26 0L25 0L25 1L24 1L24 2L23 2L23 0L22 0L22 1L21 1L21 2L23 2L23 3L22 3L22 4L25 4L25 5L21 5L21 4L19 4L19 3L20 3L20 2L19 2L19 1L20 1L20 0L19 0L19 1L18 1L18 0ZM28 0L28 1L29 1L29 0ZM17 1L17 2L16 2L16 3L17 3L17 2L18 2L18 1ZM25 1L25 2L24 2L24 3L25 3L25 2L26 2L26 1ZM26 3L26 4L27 4L27 3ZM17 4L17 7L18 7L18 8L17 8L17 9L15 9L15 8L16 8L16 5L15 5L15 7L14 7L14 6L13 6L13 8L14 8L14 10L13 10L13 9L12 9L12 8L11 8L11 10L9 10L9 12L10 12L10 13L11 13L11 14L10 14L10 15L8 15L8 14L9 14L9 13L8 13L8 14L7 14L7 13L4 13L4 12L5 12L5 11L4 11L4 10L3 10L3 11L4 11L4 12L3 12L3 13L2 13L2 14L3 14L3 15L2 15L2 16L4 16L4 14L5 14L5 16L7 16L7 15L8 15L8 16L9 16L9 17L11 17L11 19L10 19L10 18L9 18L9 19L8 19L8 17L5 17L5 18L7 18L7 19L6 19L6 20L8 20L8 23L9 23L9 21L10 21L10 22L11 22L11 20L12 20L12 21L14 21L14 20L13 20L13 19L14 19L14 18L16 18L16 19L17 19L17 20L18 20L18 21L19 21L19 20L20 20L20 23L19 23L19 24L18 24L18 23L16 23L16 22L17 22L17 21L16 21L16 20L15 20L15 21L16 21L16 22L15 22L15 23L12 23L12 27L13 27L13 28L11 28L11 27L10 27L10 28L11 28L11 29L10 29L10 31L12 31L12 33L11 33L11 32L9 32L9 33L10 33L10 34L13 34L13 31L15 31L15 33L16 33L16 31L15 31L15 30L13 30L13 31L12 31L12 29L13 29L13 28L15 28L15 29L16 29L16 30L17 30L17 31L18 31L18 32L19 32L19 28L18 28L18 27L20 27L20 28L22 28L22 29L23 29L23 30L24 30L24 32L25 32L25 30L26 30L26 29L25 29L25 28L26 28L26 27L28 27L28 28L27 28L27 31L28 31L28 28L31 28L31 27L33 27L33 26L32 26L32 25L33 25L33 23L32 23L32 22L31 22L31 21L32 21L32 20L31 20L31 19L30 19L30 18L34 18L34 16L32 16L32 13L33 13L33 14L34 14L34 13L33 13L33 12L32 12L32 13L30 13L30 15L29 15L29 14L28 14L28 15L27 15L27 13L26 13L26 9L25 9L25 10L24 10L24 6L23 6L23 7L22 7L22 6L21 6L21 5L19 5L19 4ZM8 6L8 7L9 7L9 6ZM11 6L11 7L12 7L12 6ZM18 6L18 7L19 7L19 6ZM20 6L20 9L21 9L21 10L23 10L23 9L22 9L22 8L21 8L21 6ZM25 6L25 8L26 8L26 6ZM18 9L18 10L19 10L19 11L20 11L20 10L19 10L19 9ZM34 9L34 10L33 10L33 11L34 11L34 10L35 10L35 9ZM1 10L1 11L2 11L2 10ZM11 10L11 11L13 11L13 10ZM14 10L14 12L13 12L13 13L12 13L12 14L11 14L11 16L12 16L12 17L15 17L15 16L12 16L12 15L14 15L14 13L15 13L15 14L16 14L16 12L17 12L17 10ZM6 11L6 12L7 12L7 11ZM15 11L15 12L16 12L16 11ZM21 11L21 13L22 13L22 12L23 12L23 13L25 13L25 14L24 14L24 15L26 15L26 16L25 16L25 20L24 20L24 21L25 21L25 20L26 20L26 21L27 21L27 22L26 22L26 24L25 24L25 25L24 25L24 26L26 26L26 25L27 25L27 24L28 24L28 27L29 27L29 25L30 25L30 26L31 26L31 25L32 25L32 23L31 23L31 24L28 24L28 23L29 23L29 22L30 22L30 21L31 21L31 20L30 20L30 19L29 19L29 17L31 17L31 16L29 16L29 15L28 15L28 17L27 17L27 15L26 15L26 13L25 13L25 11L24 11L24 12L23 12L23 11ZM27 11L27 12L28 12L28 13L29 13L29 12L28 12L28 11ZM3 13L3 14L4 14L4 13ZM17 13L17 15L16 15L16 18L17 18L17 19L19 19L19 17L21 17L21 18L22 18L22 22L21 22L21 23L20 23L20 24L19 24L19 25L20 25L20 26L21 26L21 27L22 27L22 28L23 28L23 29L24 29L24 28L25 28L25 27L24 27L24 28L23 28L23 27L22 27L22 26L23 26L23 25L22 25L22 24L24 24L24 23L25 23L25 22L23 22L23 19L24 19L24 18L22 18L22 17L21 17L21 16L20 16L20 15L22 15L22 16L23 16L23 17L24 17L24 16L23 16L23 14L19 14L19 13ZM6 14L6 15L7 15L7 14ZM18 14L18 15L17 15L17 17L18 17L18 15L19 15L19 14ZM3 17L3 18L4 18L4 17ZM1 18L1 19L2 19L2 18ZM3 19L3 22L4 22L4 23L5 23L5 22L4 22L4 20L5 20L5 19ZM9 19L9 20L10 20L10 19ZM20 19L20 20L21 20L21 19ZM26 19L26 20L27 20L27 21L28 21L28 20L29 20L29 19L28 19L28 20L27 20L27 19ZM6 21L6 22L7 22L7 21ZM33 21L33 22L34 22L34 21ZM22 22L22 23L21 23L21 24L20 24L20 25L21 25L21 26L22 26L22 25L21 25L21 24L22 24L22 23L23 23L23 22ZM6 23L6 24L7 24L7 23ZM10 23L10 24L11 24L11 23ZM15 23L15 24L13 24L13 25L15 25L15 26L16 26L16 25L17 25L17 26L18 26L18 24L16 24L16 23ZM15 24L15 25L16 25L16 24ZM1 25L1 26L2 26L2 25ZM10 25L10 26L11 26L11 25ZM4 27L4 28L5 28L5 27ZM15 27L15 28L17 28L17 27ZM29 29L29 32L32 32L32 29ZM30 30L30 31L31 31L31 30ZM32 33L32 34L33 34L33 33ZM22 34L22 35L21 35L21 37L23 37L23 36L22 36L22 35L23 35L23 34ZM24 34L24 35L25 35L25 34ZM30 34L30 35L31 35L31 34ZM10 35L10 36L11 36L11 35ZM24 36L24 37L25 37L25 36ZM0 0L0 7L7 7L7 0ZM1 1L1 6L6 6L6 1ZM2 2L2 5L5 5L5 2ZM30 0L30 7L37 7L37 0ZM31 1L31 6L36 6L36 1ZM32 2L32 5L35 5L35 2ZM0 30L0 37L7 37L7 30ZM1 31L1 36L6 36L6 31ZM2 32L2 35L5 35L5 32Z" fill="#000000"/></g></g></svg>
