<?xml version="1.0" encoding="UTF-8"?>
<svg xmlns="http://www.w3.org/2000/svg" version="1.1" width="350" height="350" viewBox="0 0 350 350"><rect x="0" y="0" width="350" height="350" fill="#ffffff"/><g transform="scale(8.537)"><g transform="translate(0,0)"><path fill-rule="evenodd" d="M10 0L10 2L8 2L8 4L9 4L9 5L11 5L11 6L10 6L10 7L9 7L9 6L8 6L8 7L9 7L9 8L10 8L10 7L11 7L11 6L12 6L12 8L11 8L11 9L10 9L10 10L9 10L9 9L8 9L8 8L6 8L6 9L5 9L5 8L3 8L3 10L1 10L1 9L0 9L0 10L1 10L1 11L0 11L0 13L2 13L2 14L0 14L0 15L2 15L2 17L1 17L1 16L0 16L0 17L1 17L1 19L0 19L0 20L2 20L2 21L1 21L1 22L0 22L0 23L2 23L2 22L3 22L3 21L4 21L4 24L2 24L2 25L1 25L1 26L0 26L0 27L2 27L2 26L3 26L3 27L4 27L4 26L5 26L5 28L4 28L4 29L7 29L7 30L4 30L4 31L3 31L3 29L2 29L2 28L0 28L0 33L3 33L3 32L4 32L4 31L7 31L7 30L8 30L8 32L5 32L5 33L8 33L8 35L9 35L9 36L8 36L8 38L10 38L10 37L9 37L9 36L11 36L11 38L15 38L15 37L16 37L16 38L17 38L17 37L18 37L18 36L19 36L19 37L20 37L20 38L19 38L19 39L17 39L17 41L18 41L18 40L19 40L19 41L21 41L21 38L23 38L23 39L22 39L22 41L23 41L23 39L24 39L24 41L29 41L29 40L28 40L28 38L29 38L29 39L30 39L30 41L31 41L31 39L30 39L30 37L35 37L35 39L34 39L34 38L32 38L32 39L34 39L34 40L32 40L32 41L34 41L34 40L35 40L35 39L36 39L36 41L39 41L39 39L40 39L40 40L41 40L41 35L40 35L40 34L39 34L39 35L40 35L40 36L39 36L39 39L38 39L38 38L36 38L36 37L37 37L37 36L38 36L38 33L41 33L41 30L40 30L40 31L38 31L38 30L39 30L39 29L38 29L38 28L39 28L39 27L38 27L38 26L40 26L40 27L41 27L41 26L40 26L40 25L41 25L41 23L39 23L39 19L40 19L40 20L41 20L41 18L40 18L40 17L41 17L41 11L40 11L40 10L38 10L38 11L37 11L37 12L38 12L38 11L40 11L40 13L36 13L36 16L37 16L37 17L35 17L35 18L33 18L33 17L34 17L34 16L33 16L33 17L32 17L32 15L31 15L31 14L32 14L32 13L35 13L35 11L34 11L34 12L31 12L31 14L30 14L30 15L31 15L31 17L30 17L30 16L29 16L29 15L28 15L28 14L26 14L26 13L27 13L27 12L28 12L28 10L29 10L29 12L30 12L30 10L29 10L29 9L31 9L31 10L33 10L33 6L32 6L32 8L31 8L31 5L32 5L32 4L33 4L33 3L32 3L32 2L33 2L33 1L32 1L32 0L29 0L29 1L30 1L30 2L31 2L31 3L30 3L30 4L28 4L28 5L30 5L30 8L29 8L29 9L27 9L27 12L26 12L26 13L25 13L25 12L24 12L24 11L26 11L26 8L27 8L27 6L26 6L26 7L25 7L25 6L24 6L24 5L27 5L27 4L25 4L25 3L24 3L24 2L25 2L25 0L22 0L22 1L21 1L21 2L19 2L19 3L17 3L17 2L18 2L18 1L17 1L17 2L16 2L16 0ZM27 0L27 1L28 1L28 0ZM11 1L11 2L10 2L10 3L9 3L9 4L11 4L11 3L12 3L12 5L14 5L14 6L13 6L13 8L14 8L14 6L15 6L15 7L16 7L16 6L17 6L17 7L18 7L18 6L19 6L19 8L18 8L18 9L17 9L17 8L16 8L16 11L15 11L15 9L11 9L11 10L10 10L10 11L11 11L11 12L9 12L9 10L8 10L8 9L6 9L6 10L5 10L5 9L4 9L4 10L5 10L5 12L4 12L4 11L3 11L3 13L4 13L4 14L2 14L2 15L4 15L4 16L5 16L5 15L4 15L4 14L5 14L5 12L7 12L7 13L6 13L6 14L7 14L7 13L8 13L8 14L9 14L9 15L10 15L10 16L11 16L11 15L10 15L10 13L11 13L11 14L12 14L12 16L13 16L13 13L15 13L15 14L16 14L16 15L18 15L18 16L20 16L20 15L21 15L21 18L20 18L20 17L16 17L16 19L13 19L13 20L12 20L12 19L11 19L11 21L12 21L12 22L11 22L11 24L10 24L10 23L9 23L9 22L10 22L10 21L8 21L8 20L10 20L10 19L8 19L8 18L9 18L9 16L8 16L8 17L5 17L5 18L4 18L4 17L3 17L3 19L2 19L2 20L5 20L5 21L6 21L6 22L5 22L5 23L6 23L6 24L5 24L5 25L6 25L6 26L8 26L8 27L9 27L9 28L7 28L7 27L6 27L6 28L7 28L7 29L11 29L11 31L10 31L10 32L11 32L11 34L13 34L13 35L14 35L14 36L17 36L17 35L20 35L20 37L21 37L21 36L23 36L23 37L24 37L24 36L23 36L23 35L26 35L26 34L27 34L27 33L28 33L28 32L27 32L27 31L28 31L28 30L29 30L29 34L31 34L31 35L30 35L30 36L31 36L31 35L32 35L32 33L31 33L31 32L30 32L30 31L31 31L31 30L32 30L32 31L35 31L35 32L37 32L37 33L38 33L38 32L37 32L37 31L35 31L35 30L34 30L34 28L35 28L35 29L37 29L37 30L38 30L38 29L37 29L37 28L36 28L36 27L37 27L37 26L38 26L38 25L37 25L37 24L36 24L36 23L35 23L35 21L36 21L36 19L33 19L33 18L32 18L32 17L31 17L31 18L30 18L30 17L27 17L27 18L26 18L26 20L29 20L29 21L28 21L28 24L29 24L29 25L28 25L28 26L30 26L30 24L31 24L31 26L32 26L32 25L33 25L33 27L32 27L32 29L31 29L31 27L29 27L29 28L28 28L28 27L27 27L27 26L26 26L26 25L27 25L27 22L25 22L25 24L23 24L23 25L22 25L22 26L21 26L21 23L24 23L24 22L21 22L21 21L20 21L20 19L21 19L21 18L22 18L22 20L23 20L23 21L25 21L25 18L24 18L24 17L22 17L22 16L28 16L28 15L26 15L26 14L25 14L25 13L23 13L23 11L24 11L24 10L25 10L25 7L24 7L24 6L23 6L23 7L22 7L22 6L21 6L21 7L20 7L20 6L19 6L19 4L21 4L21 3L19 3L19 4L16 4L16 5L14 5L14 4L13 4L13 3L16 3L16 2L15 2L15 1L13 1L13 3L12 3L12 1ZM22 2L22 4L23 4L23 5L24 5L24 4L23 4L23 2ZM27 2L27 3L29 3L29 2ZM31 3L31 4L30 4L30 5L31 5L31 4L32 4L32 3ZM17 5L17 6L18 6L18 5ZM28 6L28 7L29 7L29 6ZM21 7L21 9L18 9L18 11L17 11L17 12L19 12L19 13L21 13L21 12L22 12L22 11L23 11L23 10L22 10L22 11L21 11L21 9L22 9L22 7ZM23 7L23 8L24 8L24 7ZM37 8L37 9L34 9L34 10L37 10L37 9L39 9L39 8ZM6 10L6 11L8 11L8 10ZM11 10L11 11L12 11L12 12L11 12L11 13L13 13L13 11L12 11L12 10ZM1 11L1 12L2 12L2 11ZM14 11L14 12L15 12L15 13L16 13L16 12L15 12L15 11ZM17 13L17 14L18 14L18 15L20 15L20 14L18 14L18 13ZM22 13L22 14L21 14L21 15L22 15L22 14L23 14L23 13ZM33 14L33 15L34 15L34 14ZM37 14L37 16L38 16L38 18L39 18L39 16L38 16L38 15L40 15L40 14ZM6 15L6 16L7 16L7 15ZM14 15L14 17L10 17L10 18L15 18L15 15ZM5 18L5 20L6 20L6 21L7 21L7 22L6 22L6 23L7 23L7 22L8 22L8 21L7 21L7 20L8 20L8 19L7 19L7 18ZM17 18L17 19L16 19L16 20L13 20L13 22L12 22L12 25L10 25L10 24L9 24L9 23L8 23L8 24L9 24L9 25L8 25L8 26L10 26L10 27L11 27L11 26L12 26L12 27L13 27L13 28L12 28L12 29L13 29L13 30L12 30L12 31L11 31L11 32L12 32L12 33L14 33L14 35L17 35L17 34L19 34L19 32L20 32L20 35L22 35L22 34L21 34L21 32L22 32L22 33L23 33L23 31L21 31L21 26L18 26L18 25L20 25L20 24L17 24L17 23L20 23L20 22L19 22L19 21L17 21L17 20L18 20L18 19L20 19L20 18ZM23 18L23 19L24 19L24 18ZM27 18L27 19L29 19L29 20L32 20L32 21L30 21L30 22L32 22L32 21L33 21L33 23L31 23L31 24L34 24L34 25L36 25L36 26L37 26L37 25L36 25L36 24L34 24L34 21L35 21L35 20L32 20L32 18L31 18L31 19L29 19L29 18ZM6 19L6 20L7 20L7 19ZM37 19L37 20L38 20L38 19ZM15 21L15 23L16 23L16 22L17 22L17 21ZM37 21L37 23L38 23L38 24L39 24L39 23L38 23L38 21ZM13 23L13 24L14 24L14 25L15 25L15 24L14 24L14 23ZM29 23L29 24L30 24L30 23ZM6 24L6 25L7 25L7 24ZM25 24L25 25L26 25L26 24ZM16 25L16 26L15 26L15 27L16 27L16 28L17 28L17 29L15 29L15 28L14 28L14 30L13 30L13 31L14 31L14 33L15 33L15 32L16 32L16 31L17 31L17 32L18 32L18 31L17 31L17 30L19 30L19 27L18 27L18 28L17 28L17 27L16 27L16 26L17 26L17 25ZM13 26L13 27L14 27L14 26ZM23 26L23 27L22 27L22 30L23 30L23 29L24 29L24 30L26 30L26 31L27 31L27 30L26 30L26 29L25 29L25 28L24 28L24 26ZM26 27L26 28L27 28L27 29L28 29L28 28L27 28L27 27ZM1 29L1 30L2 30L2 29ZM30 29L30 30L31 30L31 29ZM15 30L15 31L16 31L16 30ZM2 31L2 32L3 32L3 31ZM20 31L20 32L21 32L21 31ZM24 31L24 33L25 33L25 31ZM26 32L26 33L27 33L27 32ZM33 33L33 36L36 36L36 33ZM34 34L34 35L35 35L35 34ZM27 35L27 37L26 37L26 38L27 38L27 37L29 37L29 36L28 36L28 35ZM12 36L12 37L13 37L13 36ZM11 39L11 40L12 40L12 41L13 41L13 39ZM14 39L14 40L15 40L15 41L16 41L16 40L15 40L15 39ZM19 39L19 40L20 40L20 39ZM25 39L25 40L27 40L27 39ZM0 0L0 7L7 7L7 0ZM1 1L1 6L6 6L6 1ZM2 2L2 5L5 5L5 2ZM34 0L34 7L41 7L41 0ZM35 1L35 6L40 6L40 1ZM36 2L36 5L39 5L39 2ZM0 34L0 41L7 41L7 34ZM1 35L1 40L6 40L6 35ZM2 36L2 39L5 39L5 36Z" fill="#000000"/></g></g></svg>
