<?xml version="1.0" encoding="UTF-8"?>
<svg xmlns="http://www.w3.org/2000/svg" version="1.1" width="350" height="350" viewBox="0 0 350 350"><rect x="0" y="0" width="350" height="350" fill="#ffffff"/><g transform="scale(8.537)"><g transform="translate(0,0)"><path fill-rule="evenodd" d="M8 0L8 3L9 3L9 4L10 4L10 5L8 5L8 10L5 10L5 8L2 8L2 9L1 9L1 10L0 10L0 17L1 17L1 18L2 18L2 20L1 20L1 19L0 19L0 20L1 20L1 23L2 23L2 25L1 25L1 24L0 24L0 25L1 25L1 26L2 26L2 28L1 28L1 29L0 29L0 33L1 33L1 30L4 30L4 29L2 29L2 28L4 28L4 27L5 27L5 29L7 29L7 30L5 30L5 31L4 31L4 33L5 33L5 32L6 32L6 33L7 33L7 32L8 32L8 34L11 34L11 33L12 33L12 31L13 31L13 34L12 34L12 36L13 36L13 37L11 37L11 35L9 35L9 36L8 36L8 39L9 39L9 40L10 40L10 41L13 41L13 40L14 40L14 41L16 41L16 40L17 40L17 41L18 41L18 40L17 40L17 39L18 39L18 38L20 38L20 39L21 39L21 40L23 40L23 41L25 41L25 39L28 39L28 40L26 40L26 41L31 41L31 39L32 39L32 40L33 40L33 41L34 41L34 39L36 39L36 40L35 40L35 41L37 41L37 40L40 40L40 38L41 38L41 37L40 37L40 34L41 34L41 33L40 33L40 32L41 32L41 31L40 31L40 32L35 32L35 30L34 30L34 32L33 32L33 31L32 31L32 30L33 30L33 29L34 29L34 28L33 28L33 27L34 27L34 25L33 25L33 24L34 24L34 23L33 23L33 21L34 21L34 22L35 22L35 23L36 23L36 24L37 24L37 22L38 22L38 21L39 21L39 22L41 22L41 19L40 19L40 18L41 18L41 16L37 16L37 15L38 15L38 14L37 14L37 13L39 13L39 12L40 12L40 11L39 11L39 12L38 12L38 11L37 11L37 13L36 13L36 10L37 10L37 9L36 9L36 8L32 8L32 7L33 7L33 6L32 6L32 7L31 7L31 5L33 5L33 4L30 4L30 5L29 5L29 3L31 3L31 2L30 2L30 1L32 1L32 0L27 0L27 2L26 2L26 3L27 3L27 4L26 4L26 5L27 5L27 6L26 6L26 7L25 7L25 6L24 6L24 7L23 7L23 5L25 5L25 1L24 1L24 4L23 4L23 2L22 2L22 3L20 3L20 2L21 2L21 1L22 1L22 0L20 0L20 2L19 2L19 0L18 0L18 3L20 3L20 4L19 4L19 5L16 5L16 3L17 3L17 2L16 2L16 1L15 1L15 0L13 0L13 1L14 1L14 3L13 3L13 5L12 5L12 8L11 8L11 6L10 6L10 5L11 5L11 4L12 4L12 2L11 2L11 1L12 1L12 0ZM9 1L9 3L10 3L10 4L11 4L11 3L10 3L10 1ZM28 1L28 3L29 3L29 1ZM15 2L15 3L14 3L14 5L13 5L13 7L14 7L14 9L13 9L13 10L10 10L10 11L9 11L9 10L8 10L8 12L9 12L9 13L10 13L10 12L11 12L11 16L10 16L10 17L9 17L9 18L8 18L8 17L5 17L5 16L7 16L7 15L8 15L8 16L9 16L9 15L8 15L8 13L6 13L6 12L7 12L7 11L3 11L3 10L1 10L1 12L3 12L3 13L1 13L1 17L3 17L3 16L4 16L4 18L3 18L3 19L4 19L4 22L3 22L3 20L2 20L2 23L3 23L3 24L5 24L5 25L4 25L4 26L3 26L3 27L4 27L4 26L5 26L5 27L6 27L6 28L7 28L7 29L8 29L8 28L9 28L9 30L8 30L8 32L9 32L9 33L10 33L10 31L11 31L11 30L12 30L12 29L13 29L13 31L15 31L15 30L16 30L16 33L14 33L14 35L13 35L13 36L14 36L14 37L13 37L13 38L11 38L11 37L10 37L10 36L9 36L9 37L10 37L10 38L9 38L9 39L10 39L10 40L11 40L11 39L14 39L14 38L15 38L15 39L16 39L16 38L15 38L15 37L17 37L17 38L18 38L18 35L20 35L20 36L19 36L19 37L20 37L20 38L21 38L21 39L22 39L22 38L21 38L21 37L20 37L20 36L23 36L23 37L24 37L24 34L25 34L25 35L27 35L27 36L25 36L25 37L27 37L27 38L28 38L28 37L27 37L27 36L28 36L28 35L29 35L29 34L28 34L28 35L27 35L27 32L26 32L26 33L25 33L25 31L27 31L27 29L26 29L26 28L27 28L27 26L28 26L28 28L30 28L30 29L28 29L28 30L29 30L29 31L28 31L28 32L29 32L29 33L30 33L30 35L32 35L32 34L31 34L31 32L30 32L30 29L31 29L31 30L32 30L32 29L33 29L33 28L32 28L32 29L31 29L31 27L32 27L32 26L33 26L33 25L32 25L32 26L31 26L31 27L29 27L29 26L30 26L30 25L29 25L29 24L31 24L31 23L32 23L32 22L31 22L31 21L32 21L32 20L33 20L33 19L32 19L32 16L33 16L33 15L32 15L32 14L33 14L33 13L34 13L34 14L35 14L35 16L34 16L34 17L35 17L35 18L34 18L34 21L35 21L35 22L36 22L36 21L35 21L35 20L36 20L36 17L37 17L37 16L36 16L36 13L34 13L34 12L33 12L33 11L34 11L34 10L35 10L35 9L32 9L32 8L31 8L31 9L28 9L28 8L30 8L30 6L29 6L29 7L28 7L28 6L27 6L27 7L26 7L26 8L27 8L27 9L26 9L26 10L28 10L28 11L25 11L25 7L24 7L24 8L23 8L23 7L22 7L22 6L21 6L21 7L22 7L22 8L20 8L20 9L19 9L19 8L16 8L16 6L15 6L15 3L16 3L16 2ZM32 2L32 3L33 3L33 2ZM20 4L20 5L21 5L21 4ZM22 4L22 5L23 5L23 4ZM27 4L27 5L28 5L28 4ZM9 6L9 9L11 9L11 8L10 8L10 6ZM14 6L14 7L15 7L15 6ZM17 6L17 7L18 7L18 6ZM19 6L19 7L20 7L20 6ZM27 7L27 8L28 8L28 7ZM6 8L6 9L7 9L7 8ZM15 8L15 9L16 9L16 10L17 10L17 11L15 11L15 10L14 10L14 12L13 12L13 11L11 11L11 12L13 12L13 13L12 13L12 14L13 14L13 15L12 15L12 16L11 16L11 18L10 18L10 19L12 19L12 16L13 16L13 19L14 19L14 20L13 20L13 22L12 22L12 21L11 21L11 24L9 24L9 23L10 23L10 20L9 20L9 19L8 19L8 20L9 20L9 22L8 22L8 21L7 21L7 20L6 20L6 19L7 19L7 18L6 18L6 19L5 19L5 18L4 18L4 19L5 19L5 20L6 20L6 21L5 21L5 24L6 24L6 25L5 25L5 26L6 26L6 27L9 27L9 28L11 28L11 27L9 27L9 26L6 26L6 25L7 25L7 24L8 24L8 25L11 25L11 26L12 26L12 27L13 27L13 29L18 29L18 27L19 27L19 30L20 30L20 26L19 26L19 23L21 23L21 24L22 24L22 21L23 21L23 23L24 23L24 24L23 24L23 25L24 25L24 26L22 26L22 27L21 27L21 28L22 28L22 29L21 29L21 30L22 30L22 29L23 29L23 28L22 28L22 27L24 27L24 29L25 29L25 30L24 30L24 31L22 31L22 32L23 32L23 33L24 33L24 31L25 31L25 30L26 30L26 29L25 29L25 27L26 27L26 25L28 25L28 24L29 24L29 23L30 23L30 22L29 22L29 21L28 21L28 20L29 20L29 19L28 19L28 18L27 18L27 16L26 16L26 14L29 14L29 13L30 13L30 12L29 12L29 11L28 11L28 12L29 12L29 13L26 13L26 12L25 12L25 13L24 13L24 14L23 14L23 11L24 11L24 10L23 10L23 9L20 9L20 10L22 10L22 14L19 14L19 16L18 16L18 12L19 12L19 13L20 13L20 12L19 12L19 9L18 9L18 10L17 10L17 9L16 9L16 8ZM38 8L38 10L40 10L40 9L41 9L41 8ZM31 9L31 10L32 10L32 11L33 11L33 10L32 10L32 9ZM17 11L17 12L18 12L18 11ZM15 12L15 13L14 13L14 15L13 15L13 16L15 16L15 17L14 17L14 18L15 18L15 17L16 17L16 16L17 16L17 15L16 15L16 14L17 14L17 13L16 13L16 12ZM32 12L32 13L33 13L33 12ZM5 13L5 14L6 14L6 15L7 15L7 14L6 14L6 13ZM40 13L40 14L41 14L41 13ZM22 14L22 15L21 15L21 17L20 17L20 16L19 16L19 17L18 17L18 19L17 19L17 18L16 18L16 19L15 19L15 20L14 20L14 21L18 21L18 19L19 19L19 22L18 22L18 23L16 23L16 22L14 22L14 23L13 23L13 24L12 24L12 25L13 25L13 26L15 26L15 27L14 27L14 28L16 28L16 27L17 27L17 25L18 25L18 23L19 23L19 22L20 22L20 20L21 20L21 19L19 19L19 18L22 18L22 17L24 17L24 15L25 15L25 14L24 14L24 15L23 15L23 14ZM30 14L30 16L31 16L31 14ZM4 15L4 16L5 16L5 15ZM22 15L22 16L23 16L23 15ZM28 15L28 16L29 16L29 15ZM25 16L25 18L26 18L26 19L23 19L23 20L24 20L24 21L25 21L25 20L26 20L26 19L27 19L27 18L26 18L26 16ZM35 16L35 17L36 17L36 16ZM38 17L38 18L37 18L37 19L38 19L38 20L37 20L37 21L38 21L38 20L39 20L39 21L40 21L40 20L39 20L39 18L40 18L40 17ZM30 18L30 19L31 19L31 20L30 20L30 21L31 21L31 20L32 20L32 19L31 19L31 18ZM6 21L6 22L7 22L7 23L6 23L6 24L7 24L7 23L8 23L8 22L7 22L7 21ZM27 21L27 22L28 22L28 23L25 23L25 24L28 24L28 23L29 23L29 22L28 22L28 21ZM14 23L14 24L13 24L13 25L15 25L15 26L16 26L16 25L17 25L17 24L15 24L15 23ZM39 23L39 24L40 24L40 25L41 25L41 23ZM36 25L36 26L38 26L38 25ZM24 26L24 27L25 27L25 26ZM36 27L36 28L35 28L35 29L36 29L36 31L37 31L37 29L38 29L38 31L39 31L39 30L41 30L41 28L40 28L40 27L39 27L39 28L38 28L38 27ZM36 28L36 29L37 29L37 28ZM39 28L39 29L40 29L40 28ZM2 31L2 33L3 33L3 31ZM6 31L6 32L7 32L7 31ZM17 31L17 32L18 32L18 31ZM19 31L19 32L20 32L20 35L23 35L23 34L22 34L22 33L21 33L21 31ZM17 33L17 34L19 34L19 33ZM33 33L33 36L36 36L36 33ZM34 34L34 35L35 35L35 34ZM14 35L14 36L15 36L15 35ZM38 35L38 36L39 36L39 35ZM29 36L29 37L32 37L32 39L33 39L33 37L32 37L32 36ZM34 37L34 38L35 38L35 37ZM36 37L36 38L37 38L37 39L38 39L38 38L37 38L37 37ZM30 38L30 39L29 39L29 40L30 40L30 39L31 39L31 38ZM23 39L23 40L24 40L24 39ZM19 40L19 41L20 41L20 40ZM0 0L0 7L7 7L7 0ZM1 1L1 6L6 6L6 1ZM2 2L2 5L5 5L5 2ZM34 0L34 7L41 7L41 0ZM35 1L35 6L40 6L40 1ZM36 2L36 5L39 5L39 2ZM0 34L0 41L7 41L7 34ZM1 35L1 40L6 40L6 35ZM2 36L2 39L5 39L5 36Z" fill="#000000"/></g></g></svg>
