<?xml version="1.0" encoding="UTF-8"?>
<svg xmlns="http://www.w3.org/2000/svg" version="1.1" width="200" height="200" viewBox="0 0 200 200"><rect x="0" y="0" width="200" height="200" fill="#ffffff"/><g transform="scale(5.405)"><g transform="translate(0,0)"><path fill-rule="evenodd" d="M10 0L10 1L11 1L11 2L10 2L10 3L9 3L9 5L8 5L8 8L4 8L4 9L3 9L3 10L5 10L5 12L6 12L6 13L8 13L8 14L9 14L9 15L11 15L11 16L9 16L9 17L8 17L8 19L9 19L9 20L5 20L5 21L9 21L9 22L4 22L4 24L3 24L3 22L1 22L1 21L2 21L2 20L1 20L1 21L0 21L0 26L2 26L2 27L3 27L3 29L4 29L4 28L5 28L5 29L7 29L7 28L6 28L6 27L8 27L8 33L9 33L9 32L10 32L10 33L12 33L12 34L13 34L13 33L14 33L14 32L13 32L13 31L15 31L15 34L14 34L14 35L15 35L15 37L17 37L17 33L16 33L16 31L17 31L17 30L18 30L18 27L19 27L19 28L20 28L20 29L21 29L21 31L24 31L24 32L22 32L22 34L23 34L23 36L24 36L24 37L25 37L25 36L24 36L24 35L25 35L25 34L26 34L26 35L27 35L27 34L26 34L26 33L27 33L27 32L26 32L26 33L24 33L24 32L25 32L25 30L26 30L26 29L27 29L27 28L28 28L28 35L29 35L29 37L31 37L31 36L32 36L32 37L37 37L37 36L36 36L36 34L35 34L35 33L37 33L37 31L36 31L36 30L34 30L34 29L35 29L35 28L36 28L36 29L37 29L37 28L36 28L36 26L35 26L35 27L34 27L34 29L33 29L33 28L32 28L32 26L34 26L34 25L35 25L35 24L36 24L36 25L37 25L37 23L36 23L36 22L35 22L35 23L34 23L34 22L33 22L33 21L32 21L32 22L33 22L33 23L34 23L34 25L32 25L32 23L31 23L31 22L30 22L30 21L31 21L31 19L30 19L30 20L29 20L29 18L30 18L30 17L31 17L31 18L33 18L33 20L34 20L34 21L37 21L37 20L35 20L35 18L33 18L33 17L36 17L36 16L37 16L37 15L36 15L36 12L37 12L37 11L36 11L36 12L35 12L35 11L34 11L34 14L33 14L33 13L32 13L32 10L36 10L36 8L35 8L35 9L32 9L32 8L30 8L30 10L29 10L29 9L28 9L28 8L27 8L27 5L28 5L28 7L29 7L29 5L28 5L28 4L27 4L27 3L29 3L29 2L27 2L27 1L28 1L28 0L27 0L27 1L26 1L26 0L25 0L25 1L24 1L24 0L23 0L23 1L22 1L22 0L17 0L17 1L15 1L15 0L13 0L13 1L15 1L15 3L16 3L16 4L15 4L15 5L14 5L14 4L13 4L13 3L14 3L14 2L13 2L13 3L12 3L12 0ZM8 1L8 2L9 2L9 1ZM18 1L18 2L16 2L16 3L17 3L17 4L19 4L19 5L18 5L18 6L17 6L17 5L15 5L15 7L16 7L16 8L13 8L13 7L14 7L14 6L13 6L13 7L12 7L12 5L13 5L13 4L12 4L12 3L10 3L10 5L9 5L9 7L10 7L10 10L7 10L7 9L5 9L5 10L7 10L7 11L6 11L6 12L7 12L7 11L10 11L10 12L9 12L9 13L10 13L10 12L12 12L12 13L11 13L11 14L12 14L12 15L13 15L13 17L14 17L14 15L18 15L18 16L19 16L19 17L15 17L15 18L14 18L14 19L13 19L13 18L12 18L12 17L11 17L11 18L12 18L12 19L13 19L13 20L12 20L12 21L15 21L15 22L17 22L17 21L15 21L15 20L17 20L17 19L18 19L18 23L17 23L17 25L18 25L18 26L20 26L20 27L21 27L21 29L23 29L23 28L24 28L24 30L25 30L25 29L26 29L26 28L27 28L27 26L28 26L28 27L29 27L29 26L30 26L30 25L31 25L31 26L32 26L32 25L31 25L31 24L30 24L30 25L27 25L27 24L29 24L29 23L30 23L30 22L29 22L29 20L28 20L28 19L27 19L27 17L26 17L26 16L27 16L27 13L26 13L26 11L27 11L27 12L29 12L29 13L30 13L30 14L28 14L28 15L30 15L30 14L32 14L32 13L30 13L30 12L31 12L31 10L30 10L30 12L29 12L29 11L28 11L28 9L26 9L26 10L25 10L25 8L26 8L26 6L25 6L25 8L24 8L24 6L23 6L23 7L22 7L22 6L21 6L21 7L20 7L20 6L19 6L19 5L20 5L20 4L19 4L19 3L20 3L20 2L21 2L21 3L23 3L23 4L21 4L21 5L25 5L25 4L24 4L24 1L23 1L23 2L21 2L21 1L20 1L20 2L19 2L19 1ZM25 1L25 3L26 3L26 1ZM11 4L11 5L10 5L10 7L11 7L11 5L12 5L12 4ZM16 6L16 7L17 7L17 6ZM18 6L18 8L20 8L20 7L19 7L19 6ZM21 7L21 8L22 8L22 10L23 10L23 11L21 11L21 10L20 10L20 9L18 9L18 12L17 12L17 11L16 11L16 13L15 13L15 14L16 14L16 13L17 13L17 14L18 14L18 15L19 15L19 16L20 16L20 14L19 14L19 13L18 13L18 12L19 12L19 11L21 11L21 12L22 12L22 13L25 13L25 14L26 14L26 13L25 13L25 12L24 12L24 11L25 11L25 10L23 10L23 8L22 8L22 7ZM8 8L8 9L9 9L9 8ZM12 8L12 9L13 9L13 11L12 11L12 10L10 10L10 11L12 11L12 12L15 12L15 10L17 10L17 9L13 9L13 8ZM0 9L0 10L1 10L1 11L2 11L2 10L1 10L1 9ZM0 12L0 13L1 13L1 14L0 14L0 15L1 15L1 16L2 16L2 17L3 17L3 16L4 16L4 15L3 15L3 14L5 14L5 13L4 13L4 12L3 12L3 14L2 14L2 12ZM13 13L13 14L14 14L14 13ZM1 14L1 15L2 15L2 14ZM6 14L6 15L5 15L5 16L6 16L6 17L7 17L7 16L6 16L6 15L7 15L7 14ZM21 14L21 18L20 18L20 17L19 17L19 18L18 18L18 19L21 19L21 20L19 20L19 21L21 21L21 22L19 22L19 23L20 23L20 24L19 24L19 25L20 25L20 26L21 26L21 27L23 27L23 24L24 24L24 25L25 25L25 27L24 27L24 28L25 28L25 27L26 27L26 26L27 26L27 25L26 25L26 23L28 23L28 20L27 20L27 19L26 19L26 20L27 20L27 22L25 22L25 24L24 24L24 21L25 21L25 18L24 18L24 17L22 17L22 16L25 16L25 15L24 15L24 14ZM31 15L31 16L32 16L32 17L33 17L33 16L34 16L34 15ZM29 16L29 17L28 17L28 18L29 18L29 17L30 17L30 16ZM4 17L4 18L3 18L3 20L4 20L4 19L7 19L7 18L5 18L5 17ZM9 17L9 19L10 19L10 17ZM1 18L1 19L2 19L2 18ZM15 18L15 19L16 19L16 18ZM21 18L21 19L22 19L22 24L20 24L20 25L22 25L22 24L23 24L23 21L24 21L24 20L23 20L23 19L22 19L22 18ZM10 20L10 23L9 23L9 24L7 24L7 23L6 23L6 24L5 24L5 25L4 25L4 27L5 27L5 25L6 25L6 26L9 26L9 24L10 24L10 26L11 26L11 27L9 27L9 29L10 29L10 28L12 28L12 29L13 29L13 30L12 30L12 31L13 31L13 30L14 30L14 29L13 29L13 27L14 27L14 26L13 26L13 24L11 24L11 20ZM12 22L12 23L14 23L14 22ZM1 23L1 25L2 25L2 23ZM15 23L15 29L17 29L17 28L16 28L16 27L17 27L17 26L16 26L16 23ZM6 24L6 25L7 25L7 24ZM11 25L11 26L12 26L12 27L13 27L13 26L12 26L12 25ZM0 28L0 29L2 29L2 28ZM29 29L29 32L32 32L32 29ZM9 30L9 31L11 31L11 30ZM19 30L19 32L20 32L20 33L21 33L21 32L20 32L20 30ZM30 30L30 31L31 31L31 30ZM33 31L33 32L34 32L34 31ZM35 31L35 32L36 32L36 31ZM18 33L18 35L19 35L19 36L18 36L18 37L20 37L20 35L19 35L19 33ZM23 33L23 34L24 34L24 33ZM29 33L29 34L30 34L30 33ZM31 33L31 34L32 34L32 36L33 36L33 33ZM10 34L10 35L11 35L11 36L10 36L10 37L13 37L13 36L12 36L12 35L11 35L11 34ZM15 34L15 35L16 35L16 34ZM34 34L34 35L35 35L35 34ZM30 35L30 36L31 36L31 35ZM0 0L0 7L7 7L7 0ZM1 1L1 6L6 6L6 1ZM2 2L2 5L5 5L5 2ZM30 0L30 7L37 7L37 0ZM31 1L31 6L36 6L36 1ZM32 2L32 5L35 5L35 2ZM0 30L0 37L7 37L7 30ZM1 31L1 36L6 36L6 31ZM2 32L2 35L5 35L5 32Z" fill="#000000"/></g></g></svg>
