<?xml version="1.0" encoding="UTF-8"?>
<svg xmlns="http://www.w3.org/2000/svg" version="1.1" width="350" height="350" viewBox="0 0 350 350"><rect x="0" y="0" width="350" height="350" fill="#ffffff"/><g transform="scale(8.537)"><g transform="translate(0,0)"><path fill-rule="evenodd" d="M8 0L8 1L9 1L9 2L8 2L8 3L10 3L10 5L9 5L9 4L8 4L8 5L9 5L9 6L8 6L8 8L9 8L9 9L7 9L7 8L5 8L5 10L4 10L4 11L3 11L3 9L1 9L1 10L0 10L0 11L1 11L1 12L2 12L2 11L3 11L3 12L4 12L4 13L3 13L3 14L6 14L6 15L2 15L2 16L3 16L3 17L2 17L2 18L1 18L1 19L0 19L0 20L1 20L1 21L0 21L0 24L1 24L1 25L0 25L0 26L1 26L1 25L2 25L2 26L3 26L3 24L1 24L1 22L2 22L2 23L4 23L4 24L5 24L5 23L7 23L7 24L6 24L6 25L4 25L4 26L5 26L5 27L4 27L4 30L5 30L5 28L6 28L6 29L7 29L7 30L6 30L6 31L3 31L3 27L0 27L0 28L2 28L2 29L0 29L0 33L1 33L1 31L2 31L2 33L3 33L3 32L5 32L5 33L7 33L7 32L8 32L8 34L9 34L9 35L8 35L8 36L9 36L9 37L10 37L10 41L12 41L12 40L13 40L13 41L14 41L14 40L13 40L13 39L14 39L14 38L13 38L13 37L14 37L14 36L13 36L13 35L12 35L12 36L13 36L13 37L11 37L11 36L9 36L9 35L10 35L10 33L11 33L11 34L12 34L12 33L13 33L13 34L14 34L14 35L15 35L15 36L16 36L16 39L18 39L18 40L15 40L15 41L21 41L21 40L23 40L23 41L31 41L31 39L32 39L32 37L35 37L35 38L33 38L33 39L34 39L34 40L33 40L33 41L34 41L34 40L35 40L35 41L38 41L38 40L39 40L39 39L40 39L40 40L41 40L41 39L40 39L40 38L41 38L41 36L39 36L39 37L40 37L40 38L39 38L39 39L38 39L38 38L36 38L36 37L37 37L37 36L38 36L38 35L40 35L40 34L38 34L38 33L40 33L40 32L41 32L41 29L40 29L40 31L39 31L39 32L35 32L35 31L38 31L38 30L39 30L39 27L36 27L36 28L34 28L34 29L36 29L36 30L35 30L35 31L33 31L33 32L32 32L32 34L30 34L30 35L31 35L31 36L29 36L29 35L28 35L28 34L29 34L29 33L30 33L30 32L31 32L31 31L32 31L32 30L31 30L31 29L33 29L33 28L32 28L32 27L33 27L33 26L32 26L32 25L31 25L31 24L34 24L34 27L35 27L35 25L36 25L36 26L38 26L38 25L39 25L39 24L40 24L40 23L39 23L39 22L38 22L38 21L39 21L39 20L38 20L38 19L40 19L40 21L41 21L41 15L38 15L38 14L37 14L37 13L36 13L36 16L35 16L35 17L34 17L34 16L33 16L33 17L34 17L34 18L33 18L33 19L32 19L32 14L33 14L33 15L35 15L35 14L34 14L34 13L35 13L35 12L36 12L36 10L37 10L37 8L36 8L36 9L35 9L35 8L34 8L34 10L33 10L33 8L32 8L32 7L33 7L33 6L32 6L32 7L31 7L31 5L33 5L33 3L32 3L32 4L31 4L31 3L30 3L30 4L31 4L31 5L29 5L29 4L28 4L28 3L29 3L29 2L27 2L27 1L24 1L24 0L22 0L22 2L21 2L21 3L22 3L22 4L23 4L23 5L25 5L25 6L24 6L24 7L23 7L23 6L22 6L22 5L20 5L20 4L19 4L19 3L20 3L20 0L18 0L18 1L13 1L13 2L10 2L10 0ZM11 0L11 1L12 1L12 0ZM29 0L29 1L30 1L30 2L31 2L31 1L32 1L32 0L31 0L31 1L30 1L30 0ZM18 1L18 2L17 2L17 4L16 4L16 2L15 2L15 3L12 3L12 4L11 4L11 5L10 5L10 6L9 6L9 7L10 7L10 8L12 8L12 5L13 5L13 4L14 4L14 5L15 5L15 7L16 7L16 5L17 5L17 8L18 8L18 9L17 9L17 10L18 10L18 9L19 9L19 7L20 7L20 6L19 6L19 7L18 7L18 2L19 2L19 1ZM23 1L23 2L22 2L22 3L25 3L25 5L26 5L26 6L25 6L25 7L24 7L24 8L23 8L23 7L22 7L22 6L21 6L21 8L20 8L20 9L21 9L21 11L20 11L20 10L19 10L19 11L20 11L20 12L21 12L21 14L20 14L20 13L19 13L19 12L18 12L18 11L16 11L16 10L15 10L15 9L13 9L13 10L12 10L12 9L9 9L9 10L7 10L7 9L6 9L6 10L7 10L7 11L4 11L4 12L5 12L5 13L6 13L6 14L7 14L7 15L6 15L6 16L5 16L5 17L3 17L3 19L1 19L1 20L2 20L2 22L5 22L5 21L6 21L6 22L7 22L7 23L8 23L8 24L9 24L9 23L8 23L8 22L11 22L11 21L10 21L10 18L11 18L11 19L12 19L12 22L13 22L13 24L14 24L14 25L13 25L13 26L12 26L12 24L11 24L11 23L10 23L10 24L11 24L11 26L9 26L9 27L8 27L8 26L7 26L7 25L6 25L6 26L7 26L7 27L6 27L6 28L7 28L7 29L8 29L8 28L9 28L9 29L10 29L10 31L11 31L11 29L13 29L13 26L15 26L15 28L16 28L16 29L17 29L17 26L16 26L16 25L17 25L17 23L16 23L16 22L18 22L18 21L17 21L17 19L18 19L18 20L19 20L19 19L20 19L20 20L22 20L22 21L19 21L19 22L22 22L22 23L18 23L18 24L23 24L23 25L22 25L22 26L21 26L21 25L20 25L20 26L19 26L19 25L18 25L18 26L19 26L19 27L18 27L18 30L19 30L19 32L17 32L17 30L16 30L16 31L15 31L15 29L14 29L14 30L13 30L13 31L12 31L12 32L11 32L11 33L12 33L12 32L13 32L13 31L15 31L15 32L14 32L14 34L15 34L15 35L16 35L16 36L17 36L17 37L18 37L18 39L19 39L19 40L20 40L20 38L21 38L21 39L22 39L22 36L23 36L23 35L24 35L24 36L25 36L25 37L26 37L26 35L27 35L27 36L28 36L28 37L29 37L29 36L28 36L28 35L27 35L27 34L25 34L25 33L26 33L26 32L25 32L25 30L23 30L23 29L22 29L22 26L23 26L23 27L24 27L24 29L26 29L26 30L27 30L27 31L28 31L28 29L29 29L29 32L27 32L27 33L29 33L29 32L30 32L30 31L31 31L31 30L30 30L30 29L31 29L31 27L32 27L32 26L31 26L31 27L29 27L29 26L30 26L30 24L31 24L31 23L32 23L32 22L33 22L33 23L36 23L36 25L37 25L37 23L38 23L38 22L37 22L37 21L38 21L38 20L37 20L37 21L36 21L36 19L33 19L33 20L34 20L34 22L33 22L33 21L32 21L32 19L31 19L31 16L30 16L30 14L32 14L32 13L31 13L31 12L33 12L33 11L32 11L32 10L31 10L31 9L32 9L32 8L31 8L31 9L29 9L29 10L28 10L28 11L29 11L29 12L27 12L27 11L24 11L24 9L26 9L26 10L27 10L27 9L28 9L28 8L30 8L30 6L29 6L29 7L28 7L28 4L27 4L27 2L26 2L26 3L25 3L25 2L24 2L24 1ZM15 4L15 5L16 5L16 4ZM10 6L10 7L11 7L11 6ZM13 6L13 8L14 8L14 6ZM26 6L26 7L25 7L25 8L26 8L26 9L27 9L27 8L26 8L26 7L27 7L27 6ZM22 8L22 9L23 9L23 8ZM38 8L38 9L39 9L39 8ZM40 8L40 10L39 10L39 11L40 11L40 10L41 10L41 8ZM9 10L9 11L8 11L8 12L6 12L6 13L8 13L8 15L7 15L7 16L6 16L6 17L8 17L8 18L9 18L9 16L10 16L10 15L11 15L11 17L12 17L12 13L10 13L10 15L9 15L9 13L8 13L8 12L10 12L10 10ZM14 10L14 12L15 12L15 10ZM22 10L22 11L21 11L21 12L23 12L23 13L22 13L22 14L23 14L23 16L22 16L22 15L20 15L20 14L18 14L18 13L17 13L17 12L16 12L16 13L15 13L15 14L13 14L13 16L14 16L14 17L15 17L15 19L14 19L14 18L12 18L12 19L14 19L14 21L13 21L13 22L14 22L14 21L15 21L15 20L16 20L16 19L17 19L17 17L16 17L16 16L17 16L17 15L19 15L19 16L18 16L18 17L19 17L19 18L18 18L18 19L19 19L19 18L20 18L20 17L22 17L22 18L21 18L21 19L22 19L22 20L24 20L24 18L23 18L23 16L24 16L24 17L25 17L25 21L22 21L22 22L23 22L23 23L24 23L24 24L25 24L25 21L26 21L26 19L29 19L29 20L31 20L31 19L29 19L29 18L30 18L30 16L29 16L29 14L27 14L27 12L26 12L26 13L25 13L25 12L23 12L23 10ZM34 10L34 12L35 12L35 10ZM11 11L11 12L13 12L13 11ZM37 11L37 12L38 12L38 11ZM40 12L40 13L39 13L39 14L41 14L41 12ZM1 13L1 14L0 14L0 15L1 15L1 14L2 14L2 13ZM16 13L16 14L15 14L15 15L14 15L14 16L16 16L16 14L17 14L17 13ZM23 13L23 14L24 14L24 16L25 16L25 17L26 17L26 18L28 18L28 17L29 17L29 16L28 16L28 15L27 15L27 14L24 14L24 13ZM26 15L26 17L28 17L28 16L27 16L27 15ZM37 15L37 16L36 16L36 17L35 17L35 18L36 18L36 17L37 17L37 16L38 16L38 15ZM38 17L38 18L39 18L39 17ZM5 18L5 20L6 20L6 21L7 21L7 22L8 22L8 21L9 21L9 19L8 19L8 20L6 20L6 19L7 19L7 18ZM3 19L3 21L4 21L4 19ZM27 20L27 22L26 22L26 23L27 23L27 25L24 25L24 27L26 27L26 29L28 29L28 28L29 28L29 29L30 29L30 28L29 28L29 27L28 27L28 25L29 25L29 23L30 23L30 22L32 22L32 21L30 21L30 22L29 22L29 23L28 23L28 20ZM35 21L35 22L36 22L36 21ZM14 23L14 24L15 24L15 25L16 25L16 23ZM40 25L40 26L41 26L41 25ZM26 26L26 27L27 27L27 28L28 28L28 27L27 27L27 26ZM7 27L7 28L8 28L8 27ZM11 27L11 28L12 28L12 27ZM19 27L19 28L20 28L20 29L19 29L19 30L21 30L21 31L20 31L20 32L19 32L19 34L18 34L18 33L15 33L15 34L16 34L16 35L17 35L17 36L18 36L18 35L19 35L19 34L21 34L21 36L22 36L22 33L23 33L23 34L24 34L24 32L22 32L22 33L21 33L21 31L23 31L23 30L22 30L22 29L21 29L21 28L20 28L20 27ZM40 27L40 28L41 28L41 27ZM36 28L36 29L37 29L37 30L38 30L38 29L37 29L37 28ZM7 30L7 31L6 31L6 32L7 32L7 31L8 31L8 32L9 32L9 33L10 33L10 32L9 32L9 31L8 31L8 30ZM33 33L33 36L36 36L36 33ZM34 34L34 35L35 35L35 34ZM19 37L19 38L20 38L20 37ZM30 37L30 39L28 39L28 40L30 40L30 39L31 39L31 37ZM11 38L11 39L13 39L13 38ZM25 38L25 40L26 40L26 38ZM23 39L23 40L24 40L24 39ZM35 39L35 40L36 40L36 39ZM37 39L37 40L38 40L38 39ZM0 0L0 7L7 7L7 0ZM1 1L1 6L6 6L6 1ZM2 2L2 5L5 5L5 2ZM34 0L34 7L41 7L41 0ZM35 1L35 6L40 6L40 1ZM36 2L36 5L39 5L39 2ZM0 34L0 41L7 41L7 34ZM1 35L1 40L6 40L6 35ZM2 36L2 39L5 39L5 36Z" fill="#000000"/></g></g></svg>
