<?xml version="1.0" encoding="UTF-8"?>
<svg xmlns="http://www.w3.org/2000/svg" version="1.1" width="200" height="200" viewBox="0 0 200 200"><rect x="0" y="0" width="200" height="200" fill="#ffffff"/><g transform="scale(5.405)"><g transform="translate(0,0)"><path fill-rule="evenodd" d="M8 0L8 1L9 1L9 3L8 3L8 4L9 4L9 6L8 6L8 7L9 7L9 8L8 8L8 9L7 9L7 8L4 8L4 10L3 10L3 8L2 8L2 10L0 10L0 11L1 11L1 12L0 12L0 14L3 14L3 15L2 15L2 16L1 16L1 17L0 17L0 19L1 19L1 20L2 20L2 19L3 19L3 20L4 20L4 21L2 21L2 22L3 22L3 23L1 23L1 24L0 24L0 25L1 25L1 24L2 24L2 27L1 27L1 26L0 26L0 27L1 27L1 28L0 28L0 29L1 29L1 28L2 28L2 29L8 29L8 30L9 30L9 27L8 27L8 26L9 26L9 25L11 25L11 24L13 24L13 25L12 25L12 26L10 26L10 28L11 28L11 29L10 29L10 31L8 31L8 33L9 33L9 34L8 34L8 35L10 35L10 36L11 36L11 37L14 37L14 35L13 35L13 34L12 34L12 32L14 32L14 30L12 30L12 31L11 31L11 29L12 29L12 28L11 28L11 27L12 27L12 26L14 26L14 25L15 25L15 24L14 24L14 23L13 23L13 22L12 22L12 23L10 23L10 24L9 24L9 23L8 23L8 22L9 22L9 21L11 21L11 20L10 20L10 19L11 19L11 17L13 17L13 18L12 18L12 19L13 19L13 21L14 21L14 19L15 19L15 18L16 18L16 14L15 14L15 13L14 13L14 12L16 12L16 10L17 10L17 11L18 11L18 12L17 12L17 13L18 13L18 12L19 12L19 13L20 13L20 14L17 14L17 19L16 19L16 20L15 20L15 22L16 22L16 23L17 23L17 22L16 22L16 20L17 20L17 21L18 21L18 23L19 23L19 24L22 24L22 25L23 25L23 26L22 26L22 32L23 32L23 33L21 33L21 32L19 32L19 31L21 31L21 26L19 26L19 25L18 25L18 26L19 26L19 27L20 27L20 28L19 28L19 29L18 29L18 27L17 27L17 25L16 25L16 28L15 28L15 27L14 27L14 29L16 29L16 31L15 31L15 33L14 33L14 34L15 34L15 37L16 37L16 35L18 35L18 34L20 34L20 35L19 35L19 36L18 36L18 37L19 37L19 36L20 36L20 35L22 35L22 37L23 37L23 36L24 36L24 37L26 37L26 35L25 35L25 36L24 36L24 35L22 35L22 34L24 34L24 32L25 32L25 34L27 34L27 35L28 35L28 37L34 37L34 35L33 35L33 33L34 33L34 34L36 34L36 35L35 35L35 37L37 37L37 36L36 36L36 35L37 35L37 28L36 28L36 27L37 27L37 20L35 20L35 22L36 22L36 23L35 23L35 24L36 24L36 25L35 25L35 26L34 26L34 25L33 25L33 27L35 27L35 28L36 28L36 29L35 29L35 30L34 30L34 31L35 31L35 30L36 30L36 32L35 32L35 33L34 33L34 32L33 32L33 28L32 28L32 27L29 27L29 28L28 28L28 27L27 27L27 26L28 26L28 24L29 24L29 26L30 26L30 24L31 24L31 23L30 23L30 22L31 22L31 21L32 21L32 19L33 19L33 20L34 20L34 19L37 19L37 17L36 17L36 16L37 16L37 13L36 13L36 12L37 12L37 8L36 8L36 10L35 10L35 9L34 9L34 8L33 8L33 9L34 9L34 10L33 10L33 11L34 11L34 10L35 10L35 11L36 11L36 12L35 12L35 13L33 13L33 14L34 14L34 15L35 15L35 18L34 18L34 16L33 16L33 18L32 18L32 17L31 17L31 16L32 16L32 14L31 14L31 12L32 12L32 9L31 9L31 10L30 10L30 8L29 8L29 2L28 2L28 1L29 1L29 0L27 0L27 2L28 2L28 4L27 4L27 3L26 3L26 5L25 5L25 6L24 6L24 9L23 9L23 4L22 4L22 2L23 2L23 3L24 3L24 4L25 4L25 3L24 3L24 0L20 0L20 2L19 2L19 1L18 1L18 0L16 0L16 2L17 2L17 3L19 3L19 4L17 4L17 5L18 5L18 8L19 8L19 11L18 11L18 9L17 9L17 6L16 6L16 4L15 4L15 6L14 6L14 3L15 3L15 0L14 0L14 2L13 2L13 0L11 0L11 1L12 1L12 3L11 3L11 2L10 2L10 1L9 1L9 0ZM17 1L17 2L18 2L18 1ZM21 1L21 2L22 2L22 1ZM12 4L12 6L11 6L11 9L8 9L8 10L7 10L7 9L6 9L6 10L4 10L4 11L3 11L3 10L2 10L2 12L1 12L1 13L3 13L3 14L4 14L4 13L3 13L3 12L4 12L4 11L6 11L6 12L5 12L5 13L6 13L6 14L7 14L7 15L6 15L6 16L7 16L7 15L8 15L8 17L5 17L5 16L3 16L3 17L5 17L5 20L7 20L7 21L6 21L6 22L5 22L5 21L4 21L4 22L5 22L5 23L3 23L3 26L4 26L4 28L5 28L5 27L6 27L6 28L7 28L7 27L6 27L6 26L8 26L8 25L9 25L9 24L8 24L8 23L6 23L6 22L8 22L8 20L7 20L7 19L6 19L6 18L8 18L8 19L9 19L9 18L8 18L8 17L10 17L10 15L12 15L12 14L10 14L10 13L11 13L11 12L12 12L12 13L13 13L13 12L14 12L14 11L15 11L15 10L14 10L14 11L13 11L13 12L12 12L12 10L11 10L11 9L12 9L12 8L13 8L13 7L14 7L14 6L13 6L13 4ZM20 5L20 6L19 6L19 8L20 8L20 9L21 9L21 8L22 8L22 5ZM26 5L26 6L25 6L25 7L26 7L26 6L27 6L27 8L28 8L28 6L27 6L27 5ZM9 6L9 7L10 7L10 6ZM12 6L12 7L13 7L13 6ZM15 6L15 7L16 7L16 6ZM20 6L20 7L21 7L21 6ZM15 8L15 9L16 9L16 8ZM25 8L25 9L26 9L26 8ZM22 9L22 12L21 12L21 10L20 10L20 13L22 13L22 14L21 14L21 15L18 15L18 16L21 16L21 15L22 15L22 16L23 16L23 19L26 19L26 17L25 17L25 16L23 16L23 15L24 15L24 14L23 14L23 9ZM6 10L6 11L7 11L7 10ZM8 10L8 13L9 13L9 12L11 12L11 10ZM25 10L25 11L24 11L24 12L25 12L25 11L26 11L26 10ZM29 10L29 11L30 11L30 12L28 12L28 11L27 11L27 12L28 12L28 13L27 13L27 15L26 15L26 14L25 14L25 15L26 15L26 16L27 16L27 15L28 15L28 17L27 17L27 20L26 20L26 21L25 21L25 22L26 22L26 23L24 23L24 20L23 20L23 21L21 21L21 22L20 22L20 19L19 19L19 17L18 17L18 21L19 21L19 22L20 22L20 23L21 23L21 22L22 22L22 24L23 24L23 25L24 25L24 24L25 24L25 25L26 25L26 26L27 26L27 24L28 24L28 23L29 23L29 22L30 22L30 21L27 21L27 20L30 20L30 19L28 19L28 18L30 18L30 16L29 16L29 14L30 14L30 15L31 15L31 14L30 14L30 12L31 12L31 11L30 11L30 10ZM6 12L6 13L7 13L7 12ZM28 13L28 14L29 14L29 13ZM35 13L35 15L36 15L36 13ZM8 14L8 15L9 15L9 14ZM13 14L13 15L14 15L14 14ZM22 14L22 15L23 15L23 14ZM1 17L1 18L2 18L2 17ZM14 17L14 18L15 18L15 17ZM20 17L20 18L22 18L22 17ZM24 17L24 18L25 18L25 17ZM3 18L3 19L4 19L4 18ZM31 18L31 19L32 19L32 18ZM33 18L33 19L34 19L34 18ZM0 21L0 22L1 22L1 21ZM26 21L26 22L27 22L27 21ZM33 21L33 22L32 22L32 23L33 23L33 22L34 22L34 21ZM5 23L5 24L6 24L6 25L8 25L8 24L6 24L6 23ZM23 23L23 24L24 24L24 23ZM35 26L35 27L36 27L36 26ZM2 27L2 28L3 28L3 27ZM23 27L23 28L24 28L24 29L23 29L23 32L24 32L24 31L26 31L26 32L27 32L27 33L28 33L28 31L26 31L26 30L24 30L24 29L25 29L25 28L24 28L24 27ZM26 27L26 28L27 28L27 29L28 29L28 28L27 28L27 27ZM19 29L19 30L17 30L17 31L19 31L19 30L20 30L20 29ZM29 29L29 32L32 32L32 29ZM30 30L30 31L31 31L31 30ZM10 31L10 32L11 32L11 31ZM17 32L17 33L18 33L18 32ZM10 33L10 34L11 34L11 35L12 35L12 34L11 34L11 33ZM15 33L15 34L16 34L16 33ZM20 33L20 34L21 34L21 33ZM30 33L30 34L29 34L29 35L30 35L30 36L33 36L33 35L31 35L31 34L32 34L32 33ZM0 0L0 7L7 7L7 0ZM1 1L1 6L6 6L6 1ZM2 2L2 5L5 5L5 2ZM30 0L30 7L37 7L37 0ZM31 1L31 6L36 6L36 1ZM32 2L32 5L35 5L35 2ZM0 30L0 37L7 37L7 30ZM1 31L1 36L6 36L6 31ZM2 32L2 35L5 35L5 32Z" fill="#000000"/></g></g></svg>
