<?xml version="1.0" encoding="UTF-8"?>
<svg xmlns="http://www.w3.org/2000/svg" version="1.1" width="350" height="350" viewBox="0 0 350 350"><rect x="0" y="0" width="350" height="350" fill="#ffffff"/><g transform="scale(8.537)"><g transform="translate(0,0)"><path fill-rule="evenodd" d="M16 0L16 1L17 1L17 0ZM18 0L18 1L20 1L20 5L19 5L19 6L18 6L18 3L19 3L19 2L17 2L17 4L14 4L14 5L13 5L13 6L12 6L12 7L13 7L13 6L14 6L14 7L15 7L15 8L12 8L12 12L11 12L11 13L10 13L10 14L9 14L9 13L8 13L8 14L5 14L5 13L3 13L3 14L2 14L2 15L0 15L0 18L1 18L1 19L2 19L2 20L4 20L4 21L0 21L0 22L3 22L3 23L2 23L2 24L1 24L1 23L0 23L0 25L1 25L1 26L3 26L3 25L4 25L4 23L5 23L5 26L6 26L6 27L5 27L5 28L4 28L4 29L5 29L5 31L3 31L3 27L2 27L2 30L0 30L0 31L2 31L2 32L0 32L0 33L2 33L2 32L4 32L4 33L8 33L8 36L9 36L9 38L8 38L8 39L9 39L9 41L10 41L10 39L9 39L9 38L11 38L11 40L12 40L12 36L11 36L11 35L14 35L14 36L13 36L13 37L14 37L14 36L16 36L16 38L17 38L17 39L16 39L16 40L15 40L15 39L13 39L13 41L16 41L16 40L17 40L17 41L18 41L18 40L17 40L17 39L20 39L20 34L21 34L21 33L20 33L20 34L18 34L18 35L17 35L17 34L16 34L16 33L18 33L18 32L19 32L19 31L20 31L20 32L22 32L22 33L23 33L23 32L24 32L24 31L25 31L25 32L26 32L26 33L27 33L27 32L29 32L29 33L28 33L28 34L27 34L27 35L26 35L26 34L25 34L25 33L24 33L24 34L23 34L23 35L22 35L22 36L21 36L21 40L20 40L20 41L21 41L21 40L22 40L22 39L23 39L23 38L24 38L24 39L25 39L25 40L24 40L24 41L25 41L25 40L26 40L26 41L28 41L28 40L29 40L29 39L28 39L28 38L32 38L32 40L30 40L30 41L35 41L35 40L33 40L33 39L34 39L34 38L32 38L32 37L35 37L35 38L36 38L36 39L38 39L38 38L37 38L37 36L38 36L38 35L37 35L37 34L39 34L39 35L41 35L41 29L40 29L40 31L39 31L39 33L37 33L37 31L38 31L38 30L39 30L39 29L38 29L38 30L35 30L35 31L33 31L33 32L31 32L31 33L30 33L30 32L29 32L29 31L32 31L32 30L29 30L29 28L27 28L27 29L28 29L28 31L27 31L27 30L26 30L26 28L25 28L25 26L26 26L26 27L29 27L29 26L28 26L28 25L29 25L29 21L30 21L30 19L29 19L29 18L31 18L31 23L30 23L30 25L31 25L31 26L30 26L30 28L33 28L33 27L32 27L32 25L31 25L31 24L33 24L33 23L32 23L32 22L34 22L34 23L35 23L35 24L34 24L34 25L36 25L36 24L37 24L37 23L39 23L39 24L41 24L41 21L40 21L40 23L39 23L39 22L38 22L38 19L40 19L40 20L41 20L41 17L40 17L40 15L41 15L41 12L40 12L40 13L39 13L39 14L38 14L38 15L39 15L39 18L38 18L38 17L37 17L37 18L35 18L35 15L37 15L37 14L35 14L35 15L34 15L34 13L35 13L35 12L38 12L38 11L39 11L39 9L40 9L40 8L35 8L35 10L34 10L34 8L33 8L33 12L31 12L31 11L32 11L32 7L33 7L33 6L32 6L32 7L31 7L31 6L30 6L30 4L29 4L29 3L30 3L30 2L27 2L27 1L28 1L28 0L26 0L26 1L25 1L25 2L23 2L23 1L24 1L24 0L21 0L21 1L20 1L20 0ZM29 0L29 1L31 1L31 0ZM32 0L32 1L33 1L33 0ZM8 1L8 7L9 7L9 8L5 8L5 9L8 9L8 11L7 11L7 10L6 10L6 11L5 11L5 10L3 10L3 8L2 8L2 9L1 9L1 11L0 11L0 12L1 12L1 11L3 11L3 12L6 12L6 13L7 13L7 12L8 12L8 11L9 11L9 12L10 12L10 11L11 11L11 8L10 8L10 7L11 7L11 6L10 6L10 7L9 7L9 4L10 4L10 5L12 5L12 4L13 4L13 3L15 3L15 1L12 1L12 2L13 2L13 3L11 3L11 4L10 4L10 3L9 3L9 2L11 2L11 1ZM21 1L21 4L22 4L22 5L21 5L21 7L22 7L22 6L23 6L23 7L24 7L24 4L25 4L25 5L26 5L26 2L25 2L25 3L22 3L22 1ZM31 2L31 3L32 3L32 2ZM27 3L27 7L26 7L26 6L25 6L25 8L26 8L26 10L25 10L25 9L24 9L24 10L25 10L25 11L24 11L24 12L21 12L21 11L23 11L23 10L22 10L22 9L23 9L23 8L19 8L19 9L18 9L18 8L16 8L16 9L15 9L15 10L14 10L14 9L13 9L13 10L14 10L14 11L13 11L13 12L12 12L12 13L11 13L11 14L10 14L10 15L9 15L9 14L8 14L8 16L7 16L7 15L5 15L5 17L4 17L4 16L3 16L3 15L4 15L4 14L3 14L3 15L2 15L2 16L3 16L3 17L1 17L1 18L2 18L2 19L3 19L3 18L4 18L4 20L5 20L5 17L6 17L6 18L7 18L7 17L8 17L8 16L10 16L10 15L11 15L11 16L12 16L12 17L13 17L13 18L11 18L11 17L10 17L10 18L9 18L9 19L11 19L11 20L12 20L12 21L14 21L14 19L15 19L15 18L16 18L16 17L17 17L17 19L16 19L16 20L15 20L15 23L14 23L14 22L13 22L13 23L12 23L12 22L11 22L11 21L10 21L10 23L9 23L9 21L8 21L8 19L6 19L6 20L7 20L7 21L6 21L6 22L5 22L5 21L4 21L4 22L5 22L5 23L6 23L6 24L7 24L7 25L6 25L6 26L7 26L7 27L6 27L6 28L5 28L5 29L6 29L6 30L7 30L7 31L6 31L6 32L7 32L7 31L8 31L8 32L9 32L9 33L11 33L11 34L9 34L9 36L10 36L10 35L11 35L11 34L12 34L12 33L13 33L13 34L15 34L15 35L16 35L16 36L17 36L17 35L16 35L16 34L15 34L15 32L13 32L13 31L12 31L12 33L11 33L11 32L9 32L9 31L10 31L10 30L15 30L15 26L16 26L16 27L18 27L18 26L19 26L19 27L20 27L20 26L19 26L19 24L21 24L21 25L26 25L26 26L27 26L27 25L26 25L26 23L27 23L27 20L28 20L28 19L27 19L27 18L25 18L25 17L24 17L24 16L25 16L25 15L26 15L26 17L27 17L27 16L30 16L30 17L31 17L31 18L32 18L32 21L33 21L33 20L37 20L37 19L33 19L33 18L34 18L34 17L33 17L33 16L34 16L34 15L33 15L33 16L31 16L31 15L32 15L32 13L31 13L31 12L30 12L30 11L31 11L31 10L30 10L30 8L31 8L31 7L30 7L30 6L29 6L29 7L28 7L28 5L29 5L29 4L28 4L28 3ZM14 5L14 6L15 6L15 7L16 7L16 5ZM17 6L17 7L18 7L18 6ZM19 6L19 7L20 7L20 6ZM9 9L9 10L10 10L10 9ZM16 9L16 10L17 10L17 9ZM20 9L20 10L21 10L21 9ZM27 9L27 12L26 12L26 13L25 13L25 12L24 12L24 15L25 15L25 14L26 14L26 15L28 15L28 14L27 14L27 12L29 12L29 11L30 11L30 10L28 10L28 9ZM36 9L36 10L35 10L35 11L34 11L34 12L35 12L35 11L37 11L37 10L38 10L38 9ZM18 10L18 11L19 11L19 10ZM40 10L40 11L41 11L41 10ZM6 11L6 12L7 12L7 11ZM14 11L14 12L16 12L16 14L14 14L14 13L13 13L13 14L12 14L12 15L13 15L13 14L14 14L14 15L17 15L17 16L18 16L18 18L19 18L19 17L20 17L20 15L21 15L21 16L22 16L22 18L21 18L21 21L20 21L20 20L18 20L18 19L17 19L17 20L16 20L16 22L17 22L17 25L16 25L16 23L15 23L15 24L14 24L14 23L13 23L13 24L12 24L12 23L11 23L11 24L12 24L12 25L11 25L11 26L10 26L10 24L9 24L9 23L7 23L7 22L6 22L6 23L7 23L7 24L9 24L9 26L10 26L10 29L8 29L8 28L6 28L6 29L7 29L7 30L8 30L8 31L9 31L9 30L10 30L10 29L13 29L13 28L14 28L14 27L12 27L12 25L16 25L16 26L18 26L18 24L19 24L19 23L18 23L18 22L19 22L19 21L20 21L20 22L22 22L22 21L23 21L23 22L24 22L24 23L25 23L25 22L24 22L24 21L23 21L23 19L22 19L22 18L24 18L24 20L25 20L25 18L24 18L24 17L23 17L23 13L20 13L20 12L19 12L19 13L17 13L17 11ZM30 13L30 14L29 14L29 15L31 15L31 13ZM17 14L17 15L20 15L20 14ZM39 14L39 15L40 15L40 14ZM6 16L6 17L7 17L7 16ZM15 16L15 17L16 17L16 16ZM28 17L28 18L29 18L29 17ZM32 17L32 18L33 18L33 17ZM13 18L13 19L12 19L12 20L13 20L13 19L14 19L14 18ZM26 19L26 20L27 20L27 19ZM17 21L17 22L18 22L18 21ZM36 22L36 23L37 23L37 22ZM22 23L22 24L23 24L23 23ZM2 24L2 25L3 25L3 24ZM37 25L37 28L38 28L38 27L39 27L39 26L40 26L40 27L41 27L41 26L40 26L40 25L39 25L39 26L38 26L38 25ZM21 26L21 28L17 28L17 29L16 29L16 32L17 32L17 30L18 30L18 31L19 31L19 30L18 30L18 29L20 29L20 30L21 30L21 31L22 31L22 30L23 30L23 31L24 31L24 30L25 30L25 29L24 29L24 30L23 30L23 28L24 28L24 26ZM35 26L35 27L34 27L34 28L35 28L35 27L36 27L36 26ZM0 27L0 28L1 28L1 27ZM11 27L11 28L12 28L12 27ZM35 31L35 32L36 32L36 31ZM29 33L29 34L30 34L30 33ZM33 33L33 36L36 36L36 33ZM39 33L39 34L40 34L40 33ZM34 34L34 35L35 35L35 34ZM18 35L18 36L19 36L19 35ZM23 35L23 36L22 36L22 37L23 37L23 36L25 36L25 37L24 37L24 38L25 38L25 39L27 39L27 36L25 36L25 35ZM29 35L29 36L28 36L28 37L29 37L29 36L30 36L30 35ZM39 36L39 37L40 37L40 38L39 38L39 39L41 39L41 36ZM17 37L17 38L19 38L19 37ZM25 37L25 38L26 38L26 37ZM36 40L36 41L39 41L39 40ZM40 40L40 41L41 41L41 40ZM0 0L0 7L7 7L7 0ZM1 1L1 6L6 6L6 1ZM2 2L2 5L5 5L5 2ZM34 0L34 7L41 7L41 0ZM35 1L35 6L40 6L40 1ZM36 2L36 5L39 5L39 2ZM0 34L0 41L7 41L7 34ZM1 35L1 40L6 40L6 35ZM2 36L2 39L5 39L5 36Z" fill="#000000"/></g></g></svg>
