<?xml version="1.0" encoding="UTF-8"?>
<svg xmlns="http://www.w3.org/2000/svg" version="1.1" width="350" height="350" viewBox="0 0 350 350"><rect x="0" y="0" width="350" height="350" fill="#ffffff"/><g transform="scale(9.459)"><g transform="translate(0,0)"><path fill-rule="evenodd" d="M8 0L8 2L9 2L9 3L8 3L8 7L9 7L9 9L11 9L11 10L12 10L12 11L10 11L10 10L8 10L8 9L7 9L7 8L6 8L6 9L4 9L4 8L3 8L3 10L2 10L2 9L0 9L0 12L1 12L1 10L2 10L2 11L3 11L3 10L4 10L4 12L3 12L3 13L0 13L0 14L2 14L2 17L3 17L3 18L1 18L1 17L0 17L0 19L3 19L3 20L2 20L2 21L3 21L3 20L4 20L4 21L5 21L5 22L6 22L6 23L7 23L7 22L6 22L6 21L7 21L7 20L9 20L9 21L8 21L8 22L9 22L9 21L10 21L10 20L11 20L11 19L12 19L12 20L13 20L13 22L12 22L12 24L14 24L14 23L13 23L13 22L14 22L14 21L16 21L16 22L17 22L17 21L18 21L18 23L17 23L17 24L16 24L16 23L15 23L15 24L16 24L16 25L17 25L17 24L18 24L18 23L19 23L19 24L20 24L20 23L19 23L19 21L18 21L18 20L13 20L13 19L15 19L15 18L16 18L16 17L18 17L18 16L16 16L16 14L18 14L18 15L21 15L21 17L22 17L22 18L21 18L21 19L19 19L19 18L17 18L17 19L19 19L19 20L21 20L21 21L20 21L20 22L21 22L21 23L22 23L22 24L21 24L21 25L23 25L23 26L21 26L21 27L20 27L20 25L18 25L18 26L14 26L14 25L12 25L12 26L13 26L13 28L14 28L14 29L16 29L16 31L15 31L15 32L14 32L14 34L13 34L13 32L12 32L12 28L11 28L11 22L10 22L10 24L9 24L9 25L8 25L8 24L6 24L6 25L7 25L7 26L5 26L5 25L4 25L4 26L5 26L5 29L7 29L7 28L9 28L9 25L10 25L10 30L11 30L11 32L10 32L10 31L9 31L9 33L8 33L8 34L10 34L10 36L11 36L11 37L14 37L14 36L15 36L15 37L17 37L17 36L16 36L16 34L17 34L17 35L19 35L19 36L18 36L18 37L20 37L20 36L21 36L21 35L22 35L22 37L26 37L26 36L27 36L27 35L28 35L28 37L34 37L34 35L35 35L35 34L36 34L36 35L37 35L37 28L36 28L36 27L37 27L37 21L35 21L35 22L34 22L34 21L33 21L33 20L36 20L36 19L37 19L37 17L36 17L36 16L37 16L37 13L36 13L36 12L37 12L37 8L35 8L35 9L34 9L34 8L31 8L31 9L34 9L34 10L33 10L33 11L35 11L35 12L33 12L33 14L32 14L32 13L31 13L31 12L32 12L32 10L30 10L30 9L29 9L29 8L26 8L26 9L25 9L25 6L26 6L26 7L27 7L27 6L28 6L28 7L29 7L29 5L28 5L28 4L29 4L29 0L27 0L27 2L26 2L26 1L25 1L25 2L26 2L26 5L25 5L25 3L24 3L24 5L25 5L25 6L24 6L24 8L22 8L22 9L21 9L21 8L20 8L20 7L21 7L21 6L22 6L22 7L23 7L23 5L21 5L21 4L22 4L22 2L21 2L21 3L20 3L20 1L18 1L18 2L17 2L17 3L18 3L18 4L17 4L17 6L16 6L16 7L15 7L15 6L14 6L14 7L13 7L13 6L12 6L12 7L13 7L13 8L10 8L10 7L11 7L11 5L12 5L12 4L13 4L13 5L14 5L14 2L15 2L15 0L14 0L14 1L13 1L13 3L12 3L12 0ZM16 0L16 1L17 1L17 0ZM21 0L21 1L23 1L23 2L24 2L24 0ZM9 1L9 2L10 2L10 5L11 5L11 4L12 4L12 3L11 3L11 2L10 2L10 1ZM18 2L18 3L19 3L19 2ZM27 2L27 4L28 4L28 2ZM18 4L18 5L20 5L20 4ZM26 5L26 6L27 6L27 5ZM9 6L9 7L10 7L10 6ZM17 6L17 7L16 7L16 8L15 8L15 7L14 7L14 8L15 8L15 9L16 9L16 11L17 11L17 9L16 9L16 8L18 8L18 11L21 11L21 10L19 10L19 8L18 8L18 6ZM19 6L19 7L20 7L20 6ZM6 9L6 10L5 10L5 13L3 13L3 14L5 14L5 13L6 13L6 14L7 14L7 15L6 15L6 16L5 16L5 17L4 17L4 16L3 16L3 17L4 17L4 18L3 18L3 19L4 19L4 18L5 18L5 19L6 19L6 20L5 20L5 21L6 21L6 20L7 20L7 19L6 19L6 18L10 18L10 17L12 17L12 18L13 18L13 17L14 17L14 16L13 16L13 15L15 15L15 14L16 14L16 13L17 13L17 12L16 12L16 13L15 13L15 12L14 12L14 11L15 11L15 10L14 10L14 9L13 9L13 10L14 10L14 11L13 11L13 12L12 12L12 14L13 14L13 15L12 15L12 16L10 16L10 14L11 14L11 12L9 12L9 11L6 11L6 10L7 10L7 9ZM23 9L23 10L22 10L22 13L24 13L24 9ZM26 9L26 10L27 10L27 11L26 11L26 12L28 12L28 13L27 13L27 14L26 14L26 13L25 13L25 15L26 15L26 16L23 16L23 15L22 15L22 14L21 14L21 13L20 13L20 14L21 14L21 15L22 15L22 17L25 17L25 18L23 18L23 19L22 19L22 20L23 20L23 19L25 19L25 20L26 20L26 18L27 18L27 20L28 20L28 18L29 18L29 17L30 17L30 16L29 16L29 15L31 15L31 14L30 14L30 12L31 12L31 11L30 11L30 10L27 10L27 9ZM35 9L35 10L36 10L36 9ZM6 12L6 13L7 13L7 12ZM13 12L13 13L14 13L14 14L15 14L15 13L14 13L14 12ZM18 12L18 14L19 14L19 12ZM8 13L8 14L9 14L9 13ZM34 13L34 14L33 14L33 15L32 15L32 17L33 17L33 16L35 16L35 15L34 15L34 14L36 14L36 13ZM8 15L8 17L9 17L9 15ZM27 15L27 16L26 16L26 17L29 17L29 16L28 16L28 15ZM6 16L6 17L7 17L7 16ZM12 16L12 17L13 17L13 16ZM19 16L19 17L20 17L20 16ZM34 17L34 18L33 18L33 19L32 19L32 18L31 18L31 20L33 20L33 19L34 19L34 18L36 18L36 17ZM29 19L29 21L27 21L27 23L26 23L26 21L21 21L21 22L22 22L22 23L26 23L26 24L25 24L25 25L24 25L24 24L23 24L23 25L24 25L24 27L21 27L21 28L20 28L20 27L19 27L19 26L18 26L18 29L19 29L19 30L17 30L17 31L16 31L16 32L17 32L17 31L19 31L19 32L18 32L18 33L19 33L19 32L20 32L20 30L21 30L21 33L20 33L20 34L19 34L19 35L21 35L21 33L24 33L24 31L25 31L25 32L26 32L26 33L28 33L28 31L26 31L26 30L27 30L27 29L26 29L26 28L29 28L29 25L28 25L28 26L27 26L27 24L28 24L28 22L29 22L29 24L31 24L31 25L30 25L30 27L31 27L31 28L33 28L33 32L34 32L34 33L33 33L33 35L34 35L34 33L36 33L36 28L35 28L35 26L34 26L34 27L31 27L31 25L32 25L32 26L33 26L33 25L36 25L36 22L35 22L35 23L34 23L34 22L33 22L33 21L31 21L31 22L30 22L30 19ZM0 22L0 25L1 25L1 26L0 26L0 27L1 27L1 28L0 28L0 29L2 29L2 28L3 28L3 29L4 29L4 28L3 28L3 27L1 27L1 26L3 26L3 25L1 25L1 23L2 23L2 24L4 24L4 22L3 22L3 23L2 23L2 22ZM31 22L31 23L32 23L32 25L33 25L33 22ZM25 26L25 28L26 28L26 26ZM6 27L6 28L7 28L7 27ZM15 27L15 28L16 28L16 29L17 29L17 28L16 28L16 27ZM22 28L22 29L23 29L23 30L22 30L22 31L23 31L23 30L26 30L26 29L24 29L24 28ZM8 29L8 30L9 30L9 29ZM29 29L29 32L32 32L32 29ZM13 30L13 31L14 31L14 30ZM30 30L30 31L31 31L31 30ZM34 30L34 32L35 32L35 30ZM10 33L10 34L12 34L12 35L13 35L13 34L12 34L12 33ZM15 33L15 34L14 34L14 35L15 35L15 34L16 34L16 33ZM30 33L30 34L28 34L28 35L29 35L29 36L32 36L32 33ZM23 34L23 35L24 35L24 36L25 36L25 35L24 35L24 34ZM26 34L26 35L27 35L27 34ZM35 36L35 37L37 37L37 36ZM0 0L0 7L7 7L7 0ZM1 1L1 6L6 6L6 1ZM2 2L2 5L5 5L5 2ZM30 0L30 7L37 7L37 0ZM31 1L31 6L36 6L36 1ZM32 2L32 5L35 5L35 2ZM0 30L0 37L7 37L7 30ZM1 31L1 36L6 36L6 31ZM2 32L2 35L5 35L5 32Z" fill="#000000"/></g></g></svg>
