<?xml version="1.0" encoding="UTF-8"?>
<svg xmlns="http://www.w3.org/2000/svg" version="1.1" width="350" height="350" viewBox="0 0 350 350"><rect x="0" y="0" width="350" height="350" fill="#ffffff"/><g transform="scale(9.459)"><g transform="translate(0,0)"><path fill-rule="evenodd" d="M11 0L11 1L10 1L10 2L8 2L8 4L9 4L9 3L10 3L10 2L11 2L11 3L12 3L12 1L15 1L15 3L14 3L14 4L15 4L15 6L14 6L14 5L11 5L11 6L10 6L10 9L8 9L8 8L6 8L6 9L8 9L8 11L7 11L7 10L1 10L1 9L0 9L0 11L1 11L1 12L0 12L0 13L3 13L3 14L1 14L1 15L0 15L0 16L1 16L1 18L0 18L0 20L1 20L1 21L0 21L0 22L2 22L2 24L1 24L1 23L0 23L0 24L1 24L1 25L0 25L0 29L1 29L1 27L2 27L2 26L3 26L3 28L5 28L5 27L4 27L4 24L5 24L5 26L6 26L6 27L7 27L7 26L6 26L6 25L7 25L7 24L10 24L10 25L9 25L9 26L8 26L8 27L9 27L9 29L8 29L8 28L6 28L6 29L8 29L8 31L9 31L9 32L8 32L8 34L9 34L9 37L13 37L13 34L14 34L14 33L15 33L15 34L16 34L16 33L17 33L17 34L18 34L18 32L19 32L19 31L21 31L21 33L22 33L22 32L23 32L23 33L24 33L24 34L22 34L22 35L21 35L21 34L20 34L20 33L19 33L19 35L18 35L18 36L17 36L17 35L16 35L16 37L18 37L18 36L19 36L19 37L20 37L20 36L21 36L21 37L23 37L23 36L22 36L22 35L24 35L24 37L25 37L25 32L27 32L27 33L30 33L30 34L29 34L29 36L28 36L28 35L27 35L27 37L29 37L29 36L30 36L30 37L31 37L31 36L32 36L32 37L33 37L33 36L32 36L32 35L34 35L34 36L36 36L36 37L37 37L37 34L34 34L34 33L33 33L33 32L34 32L34 31L35 31L35 33L37 33L37 32L36 32L36 31L37 31L37 30L36 30L36 29L37 29L37 26L36 26L36 28L35 28L35 25L37 25L37 24L36 24L36 23L37 23L37 22L35 22L35 21L34 21L34 20L33 20L33 19L35 19L35 20L36 20L36 19L37 19L37 18L36 18L36 17L35 17L35 14L36 14L36 15L37 15L37 14L36 14L36 13L34 13L34 12L35 12L35 10L36 10L36 11L37 11L37 10L36 10L36 9L35 9L35 8L33 8L33 9L31 9L31 10L29 10L29 13L27 13L27 11L28 11L28 9L29 9L29 6L28 6L28 7L27 7L27 6L26 6L26 5L27 5L27 4L28 4L28 3L29 3L29 2L27 2L27 1L26 1L26 0L25 0L25 1L24 1L24 2L23 2L23 0L22 0L22 1L21 1L21 0L20 0L20 1L19 1L19 0L18 0L18 1L17 1L17 0ZM28 0L28 1L29 1L29 0ZM18 1L18 2L16 2L16 6L15 6L15 7L14 7L14 6L13 6L13 8L14 8L14 9L12 9L12 8L11 8L11 10L9 10L9 12L8 12L8 13L5 13L5 14L3 14L3 15L2 15L2 16L4 16L4 17L3 17L3 18L7 18L7 17L8 17L8 18L9 18L9 17L8 17L8 16L7 16L7 15L6 15L6 14L8 14L8 13L9 13L9 14L10 14L10 13L12 13L12 14L11 14L11 15L10 15L10 16L11 16L11 17L10 17L10 19L11 19L11 20L12 20L12 21L13 21L13 22L14 22L14 20L13 20L13 19L14 19L14 18L16 18L16 19L17 19L17 20L15 20L15 21L18 21L18 19L21 19L21 20L20 20L20 23L19 23L19 24L18 24L18 23L17 23L17 24L18 24L18 26L17 26L17 25L14 25L14 24L13 24L13 23L12 23L12 27L13 27L13 28L11 28L11 27L10 27L10 28L11 28L11 29L9 29L9 31L10 31L10 30L12 30L12 31L11 31L11 33L13 33L13 31L15 31L15 33L16 33L16 31L15 31L15 30L12 30L12 29L14 29L14 26L17 26L17 28L16 28L16 27L15 27L15 29L16 29L16 30L17 30L17 29L18 29L18 31L19 31L19 30L21 30L21 29L22 29L22 30L24 30L24 32L25 32L25 30L26 30L26 29L25 29L25 28L26 28L26 27L27 27L27 26L25 26L25 25L28 25L28 24L29 24L29 27L28 27L28 28L27 28L27 31L28 31L28 28L31 28L31 26L32 26L32 27L33 27L33 26L32 26L32 25L33 25L33 23L32 23L32 22L31 22L31 21L32 21L32 20L31 20L31 19L30 19L30 18L34 18L34 16L32 16L32 13L33 13L33 14L34 14L34 13L33 13L33 11L34 11L34 10L35 10L35 9L34 9L34 10L32 10L32 11L31 11L31 12L32 12L32 13L30 13L30 15L29 15L29 14L28 14L28 15L27 15L27 13L26 13L26 8L27 8L27 9L28 9L28 8L27 8L27 7L26 7L26 6L25 6L25 7L24 7L24 6L23 6L23 7L22 7L22 6L21 6L21 5L19 5L19 1ZM20 1L20 2L21 2L21 3L20 3L20 4L22 4L22 5L23 5L23 4L22 4L22 3L23 3L23 2L21 2L21 1ZM25 1L25 2L24 2L24 5L25 5L25 2L26 2L26 1ZM17 3L17 4L18 4L18 3ZM26 3L26 4L27 4L27 3ZM8 6L8 7L9 7L9 6ZM11 6L11 7L12 7L12 6ZM16 6L16 7L15 7L15 8L16 8L16 10L17 10L17 8L18 8L18 7L19 7L19 6L18 6L18 7L17 7L17 6ZM20 6L20 9L22 9L22 8L21 8L21 6ZM16 7L16 8L17 8L17 7ZM23 7L23 8L24 8L24 10L23 10L23 11L24 11L24 12L22 12L22 10L21 10L21 13L17 13L17 15L16 15L16 18L17 18L17 16L18 16L18 15L19 15L19 14L21 14L21 15L22 15L22 16L23 16L23 17L24 17L24 16L23 16L23 14L21 14L21 13L25 13L25 14L24 14L24 15L26 15L26 16L25 16L25 20L24 20L24 21L23 21L23 19L24 19L24 18L22 18L22 17L21 17L21 16L20 16L20 17L18 17L18 18L20 18L20 17L21 17L21 18L22 18L22 21L21 21L21 22L22 22L22 23L20 23L20 24L19 24L19 25L20 25L20 26L22 26L22 27L21 27L21 28L20 28L20 27L18 27L18 28L19 28L19 29L21 29L21 28L22 28L22 29L23 29L23 28L24 28L24 27L25 27L25 26L23 26L23 25L25 25L25 24L24 24L24 23L23 23L23 22L24 22L24 21L25 21L25 20L26 20L26 21L27 21L27 24L28 24L28 23L29 23L29 24L30 24L30 25L31 25L31 24L32 24L32 23L31 23L31 22L30 22L30 21L31 21L31 20L30 20L30 19L29 19L29 17L31 17L31 16L29 16L29 15L28 15L28 17L27 17L27 15L26 15L26 13L25 13L25 8L26 8L26 7L25 7L25 8L24 8L24 7ZM3 8L3 9L5 9L5 8ZM14 9L14 10L15 10L15 9ZM18 9L18 10L19 10L19 11L20 11L20 10L19 10L19 9ZM11 10L11 11L13 11L13 10ZM3 11L3 13L4 13L4 12L5 12L5 11ZM6 11L6 12L7 12L7 11ZM14 11L14 12L12 12L12 13L13 13L13 15L11 15L11 16L12 16L12 17L11 17L11 18L12 18L12 17L15 17L15 16L13 16L13 15L14 15L14 14L16 14L16 13L14 13L14 12L16 12L16 11ZM9 12L9 13L10 13L10 12ZM4 15L4 16L6 16L6 17L7 17L7 16L6 16L6 15ZM1 18L1 19L2 19L2 18ZM35 18L35 19L36 19L36 18ZM3 19L3 21L5 21L5 20L7 20L7 21L6 21L6 22L7 22L7 21L8 21L8 23L9 23L9 21L10 21L10 20L7 20L7 19ZM26 19L26 20L27 20L27 21L28 21L28 20L29 20L29 19L28 19L28 20L27 20L27 19ZM33 21L33 22L34 22L34 21ZM3 22L3 24L4 24L4 23L5 23L5 22ZM15 22L15 24L16 24L16 22ZM25 22L25 23L26 23L26 22ZM29 22L29 23L30 23L30 22ZM6 23L6 24L7 24L7 23ZM10 23L10 24L11 24L11 23ZM22 23L22 24L23 24L23 23ZM20 24L20 25L21 25L21 24ZM34 24L34 25L35 25L35 24ZM1 25L1 26L2 26L2 25ZM10 25L10 26L11 26L11 25ZM13 25L13 26L14 26L14 25ZM22 27L22 28L23 28L23 27ZM29 29L29 32L32 32L32 29ZM30 30L30 31L31 31L31 30ZM32 33L32 34L33 34L33 33ZM10 34L10 35L11 35L11 36L12 36L12 34ZM30 34L30 35L31 35L31 34ZM19 35L19 36L20 36L20 35ZM0 0L0 7L7 7L7 0ZM1 1L1 6L6 6L6 1ZM2 2L2 5L5 5L5 2ZM30 0L30 7L37 7L37 0ZM31 1L31 6L36 6L36 1ZM32 2L32 5L35 5L35 2ZM0 30L0 37L7 37L7 30ZM1 31L1 36L6 36L6 31ZM2 32L2 35L5 35L5 32Z" fill="#000000"/></g></g></svg>
