<?xml version="1.0" encoding="UTF-8"?>
<svg xmlns="http://www.w3.org/2000/svg" version="1.1" width="350" height="350" viewBox="0 0 350 350"><rect x="0" y="0" width="350" height="350" fill="#ffffff"/><g transform="scale(9.459)"><g transform="translate(0,0)"><path fill-rule="evenodd" d="M9 0L9 1L8 1L8 2L9 2L9 5L8 5L8 8L4 8L4 10L3 10L3 9L0 9L0 12L1 12L1 11L2 11L2 10L3 10L3 11L4 11L4 10L5 10L5 12L6 12L6 13L7 13L7 14L6 14L6 15L9 15L9 16L12 16L12 17L8 17L8 16L6 16L6 17L7 17L7 18L3 18L3 22L4 22L4 23L2 23L2 24L1 24L1 23L0 23L0 24L1 24L1 25L0 25L0 26L1 26L1 25L2 25L2 27L4 27L4 28L0 28L0 29L4 29L4 28L5 28L5 29L7 29L7 28L6 28L6 27L8 27L8 33L9 33L9 35L10 35L10 36L9 36L9 37L10 37L10 36L11 36L11 37L13 37L13 34L12 34L12 36L11 36L11 35L10 35L10 31L11 31L11 32L13 32L13 33L14 33L14 32L13 32L13 31L15 31L15 34L14 34L14 35L15 35L15 37L17 37L17 33L18 33L18 32L19 32L19 33L20 33L20 34L18 34L18 37L19 37L19 35L20 35L20 36L21 36L21 35L20 35L20 34L21 34L21 32L20 32L20 31L24 31L24 32L22 32L22 34L23 34L23 33L25 33L25 34L26 34L26 35L27 35L27 34L26 34L26 33L27 33L27 32L26 32L26 33L25 33L25 30L26 30L26 29L27 29L27 28L26 28L26 29L25 29L25 30L24 30L24 29L22 29L22 28L24 28L24 27L26 27L26 26L27 26L27 27L28 27L28 35L29 35L29 37L31 37L31 36L32 36L32 37L37 37L37 36L36 36L36 34L35 34L35 33L37 33L37 31L36 31L36 30L34 30L34 28L36 28L36 29L37 29L37 28L36 28L36 26L34 26L34 28L31 28L31 27L33 27L33 24L32 24L32 23L31 23L31 22L30 22L30 21L31 21L31 19L30 19L30 20L29 20L29 18L30 18L30 17L31 17L31 18L33 18L33 20L34 20L34 21L35 21L35 20L37 20L37 19L35 19L35 18L33 18L33 17L36 17L36 16L37 16L37 15L36 15L36 12L37 12L37 11L36 11L36 12L35 12L35 11L34 11L34 12L35 12L35 13L34 13L34 14L33 14L33 13L32 13L32 12L33 12L33 10L36 10L36 8L35 8L35 9L32 9L32 8L30 8L30 9L29 9L29 8L27 8L27 9L26 9L26 8L23 8L23 9L21 9L21 10L20 10L20 9L18 9L18 12L17 12L17 11L15 11L15 12L16 12L16 13L12 13L12 12L14 12L14 11L12 11L12 10L10 10L10 7L11 7L11 5L12 5L12 7L13 7L13 8L12 8L12 9L13 9L13 10L15 10L15 8L16 8L16 9L17 9L17 8L16 8L16 7L17 7L17 6L18 6L18 8L20 8L20 7L21 7L21 8L22 8L22 7L23 7L23 6L22 6L22 4L23 4L23 5L24 5L24 4L26 4L26 5L25 5L25 6L24 6L24 7L25 7L25 6L26 6L26 7L27 7L27 5L28 5L28 7L29 7L29 5L28 5L28 4L27 4L27 3L29 3L29 2L27 2L27 1L28 1L28 0L27 0L27 1L26 1L26 0L25 0L25 1L24 1L24 0L23 0L23 1L22 1L22 0L21 0L21 2L23 2L23 1L24 1L24 4L23 4L23 3L20 3L20 1L18 1L18 0L17 0L17 1L15 1L15 0L13 0L13 1L15 1L15 3L16 3L16 5L15 5L15 6L14 6L14 5L12 5L12 4L13 4L13 3L14 3L14 2L13 2L13 3L12 3L12 0ZM9 1L9 2L10 2L10 1ZM25 1L25 3L26 3L26 1ZM16 2L16 3L18 3L18 4L19 4L19 5L18 5L18 6L19 6L19 7L20 7L20 6L19 6L19 5L20 5L20 4L19 4L19 2ZM10 4L10 5L9 5L9 7L10 7L10 5L11 5L11 4ZM16 5L16 6L15 6L15 7L16 7L16 6L17 6L17 5ZM13 6L13 7L14 7L14 6ZM21 6L21 7L22 7L22 6ZM8 8L8 9L9 9L9 8ZM13 8L13 9L14 9L14 8ZM5 9L5 10L7 10L7 11L6 11L6 12L7 12L7 11L10 11L10 12L8 12L8 13L9 13L9 15L12 15L12 13L11 13L11 14L10 14L10 12L12 12L12 11L10 11L10 10L7 10L7 9ZM23 9L23 10L25 10L25 11L23 11L23 12L22 12L22 10L21 10L21 11L19 11L19 12L18 12L18 13L19 13L19 14L20 14L20 15L18 15L18 14L17 14L17 13L16 13L16 14L13 14L13 17L12 17L12 18L11 18L11 19L12 19L12 18L13 18L13 17L14 17L14 15L17 15L17 17L15 17L15 18L14 18L14 19L13 19L13 20L9 20L9 19L10 19L10 18L9 18L9 19L8 19L8 20L7 20L7 19L6 19L6 20L5 20L5 19L4 19L4 20L5 20L5 21L4 21L4 22L5 22L5 21L6 21L6 22L9 22L9 21L15 21L15 22L12 22L12 23L13 23L13 24L11 24L11 22L10 22L10 23L9 23L9 24L7 24L7 23L6 23L6 24L5 24L5 25L4 25L4 24L2 24L2 25L3 25L3 26L4 26L4 27L5 27L5 25L6 25L6 26L9 26L9 24L10 24L10 26L11 26L11 27L9 27L9 30L10 30L10 28L12 28L12 29L13 29L13 30L11 30L11 31L13 31L13 30L14 30L14 29L13 29L13 27L12 27L12 26L13 26L13 24L14 24L14 23L15 23L15 24L16 24L16 23L15 23L15 22L16 22L16 21L15 21L15 20L18 20L18 23L17 23L17 25L16 25L16 26L17 26L17 25L18 25L18 26L20 26L20 27L21 27L21 26L22 26L22 25L23 25L23 26L24 26L24 25L25 25L25 24L26 24L26 23L27 23L27 24L29 24L29 20L28 20L28 19L27 19L27 17L26 17L26 16L27 16L27 13L26 13L26 11L27 11L27 12L28 12L28 11L27 11L27 10L28 10L28 9L27 9L27 10L25 10L25 9ZM31 9L31 10L30 10L30 12L29 12L29 13L30 13L30 14L28 14L28 15L30 15L30 14L32 14L32 13L30 13L30 12L32 12L32 9ZM3 12L3 14L2 14L2 15L1 15L1 14L0 14L0 15L1 15L1 16L2 16L2 17L3 17L3 16L4 16L4 17L5 17L5 16L4 16L4 15L3 15L3 14L5 14L5 13L4 13L4 12ZM20 12L20 14L21 14L21 17L20 17L20 19L19 19L19 17L17 17L17 19L19 19L19 20L20 20L20 21L21 21L21 22L19 22L19 23L20 23L20 24L19 24L19 25L20 25L20 26L21 26L21 25L20 25L20 24L23 24L23 25L24 25L24 24L25 24L25 23L26 23L26 21L23 21L23 22L25 22L25 23L24 23L24 24L23 24L23 23L21 23L21 22L22 22L22 19L23 19L23 20L25 20L25 18L24 18L24 17L22 17L22 16L25 16L25 15L24 15L24 14L23 14L23 13L25 13L25 14L26 14L26 13L25 13L25 12L23 12L23 13L22 13L22 12ZM21 13L21 14L22 14L22 13ZM31 15L31 16L32 16L32 17L33 17L33 16L34 16L34 15ZM29 16L29 17L28 17L28 18L29 18L29 17L30 17L30 16ZM1 18L1 19L2 19L2 18ZM15 18L15 19L16 19L16 18ZM21 18L21 19L20 19L20 20L21 20L21 19L22 19L22 18ZM26 19L26 20L27 20L27 23L28 23L28 20L27 20L27 19ZM1 20L1 21L2 21L2 20ZM6 20L6 21L7 21L7 20ZM8 20L8 21L9 21L9 20ZM32 21L32 22L33 22L33 23L34 23L34 25L35 25L35 24L36 24L36 25L37 25L37 23L36 23L36 22L35 22L35 23L34 23L34 22L33 22L33 21ZM30 23L30 24L31 24L31 26L32 26L32 24L31 24L31 23ZM6 24L6 25L7 25L7 24ZM11 25L11 26L12 26L12 25ZM27 25L27 26L28 26L28 27L29 27L29 26L30 26L30 25L29 25L29 26L28 26L28 25ZM14 26L14 27L15 27L15 28L16 28L16 29L17 29L17 31L16 31L16 33L17 33L17 31L19 31L19 30L21 30L21 28L19 28L19 27L18 27L18 29L17 29L17 28L16 28L16 27L15 27L15 26ZM29 29L29 32L32 32L32 29ZM30 30L30 31L31 31L31 30ZM33 31L33 32L34 32L34 31ZM35 31L35 32L36 32L36 31ZM29 33L29 34L30 34L30 33ZM31 33L31 34L32 34L32 36L33 36L33 33ZM15 34L15 35L16 35L16 34ZM34 34L34 35L35 35L35 34ZM24 35L24 36L23 36L23 37L25 37L25 35ZM30 35L30 36L31 36L31 35ZM0 0L0 7L7 7L7 0ZM1 1L1 6L6 6L6 1ZM2 2L2 5L5 5L5 2ZM30 0L30 7L37 7L37 0ZM31 1L31 6L36 6L36 1ZM32 2L32 5L35 5L35 2ZM0 30L0 37L7 37L7 30ZM1 31L1 36L6 36L6 31ZM2 32L2 35L5 35L5 32Z" fill="#000000"/></g></g></svg>
