<?xml version="1.0" encoding="UTF-8"?>
<svg xmlns="http://www.w3.org/2000/svg" version="1.1" width="350" height="350" viewBox="0 0 350 350"><rect x="0" y="0" width="350" height="350" fill="#ffffff"/><g transform="scale(8.537)"><g transform="translate(0,0)"><path fill-rule="evenodd" d="M10 0L10 1L11 1L11 0ZM12 0L12 2L13 2L13 3L14 3L14 5L16 5L16 4L18 4L18 5L17 5L17 6L16 6L16 7L15 7L15 6L14 6L14 7L13 7L13 5L12 5L12 4L9 4L9 2L8 2L8 4L9 4L9 5L11 5L11 6L10 6L10 7L9 7L9 6L8 6L8 7L9 7L9 9L10 9L10 10L9 10L9 11L8 11L8 8L6 8L6 9L5 9L5 8L3 8L3 9L5 9L5 10L6 10L6 11L7 11L7 12L5 12L5 11L4 11L4 12L5 12L5 13L3 13L3 12L2 12L2 11L3 11L3 10L1 10L1 9L0 9L0 10L1 10L1 11L0 11L0 12L2 12L2 14L4 14L4 15L0 15L0 17L1 17L1 16L2 16L2 17L3 17L3 16L4 16L4 18L1 18L1 19L0 19L0 20L2 20L2 19L3 19L3 21L1 21L1 23L0 23L0 24L1 24L1 23L2 23L2 25L1 25L1 26L0 26L0 28L3 28L3 23L2 23L2 22L4 22L4 23L5 23L5 22L6 22L6 23L7 23L7 24L4 24L4 26L5 26L5 25L7 25L7 26L6 26L6 27L5 27L5 29L7 29L7 30L6 30L6 31L7 31L7 30L8 30L8 32L4 32L4 31L3 31L3 29L0 29L0 33L3 33L3 32L4 32L4 33L8 33L8 35L9 35L9 33L10 33L10 35L11 35L11 32L12 32L12 31L14 31L14 32L13 32L13 33L12 33L12 35L13 35L13 33L14 33L14 32L15 32L15 33L17 33L17 35L16 35L16 34L15 34L15 35L14 35L14 36L13 36L13 37L12 37L12 36L11 36L11 38L10 38L10 39L9 39L9 41L10 41L10 39L11 39L11 40L13 40L13 39L14 39L14 41L17 41L17 40L18 40L18 39L20 39L20 40L19 40L19 41L21 41L21 40L22 40L22 39L24 39L24 41L25 41L25 40L27 40L27 41L29 41L29 40L28 40L28 38L29 38L29 39L30 39L30 41L31 41L31 39L30 39L30 38L31 38L31 37L35 37L35 39L34 39L34 38L33 38L33 39L34 39L34 40L32 40L32 41L34 41L34 40L35 40L35 39L36 39L36 41L37 41L37 40L38 40L38 41L39 41L39 39L40 39L40 40L41 40L41 35L40 35L40 34L39 34L39 35L40 35L40 36L39 36L39 37L38 37L38 38L36 38L36 37L37 37L37 36L38 36L38 33L41 33L41 30L40 30L40 31L38 31L38 30L39 30L39 29L38 29L38 28L39 28L39 27L40 27L40 28L41 28L41 23L40 23L40 24L38 24L38 23L39 23L39 22L38 22L38 21L39 21L39 19L40 19L40 20L41 20L41 18L40 18L40 17L41 17L41 11L40 11L40 12L39 12L39 13L36 13L36 16L37 16L37 17L35 17L35 18L33 18L33 17L34 17L34 16L33 16L33 15L34 15L34 14L33 14L33 13L32 13L32 12L31 12L31 15L30 15L30 16L28 16L28 15L29 15L29 12L30 12L30 10L29 10L29 9L31 9L31 10L34 10L34 11L35 11L35 10L37 10L37 9L39 9L39 8L37 8L37 9L33 9L33 6L32 6L32 8L31 8L31 5L32 5L32 4L33 4L33 3L32 3L32 4L28 4L28 5L30 5L30 8L29 8L29 9L27 9L27 12L26 12L26 13L27 13L27 12L28 12L28 15L27 15L27 16L28 16L28 17L29 17L29 18L27 18L27 17L26 17L26 18L25 18L25 15L26 15L26 14L25 14L25 11L26 11L26 9L25 9L25 8L24 8L24 7L25 7L25 6L26 6L26 8L27 8L27 5L25 5L25 3L26 3L26 4L27 4L27 1L28 1L28 0L27 0L27 1L26 1L26 0L25 0L25 2L24 2L24 3L23 3L23 1L24 1L24 0L23 0L23 1L22 1L22 0L21 0L21 1L22 1L22 3L23 3L23 4L19 4L19 3L21 3L21 2L19 2L19 1L18 1L18 0L15 0L15 2L14 2L14 1L13 1L13 0ZM31 0L31 2L30 2L30 1L29 1L29 3L31 3L31 2L33 2L33 1L32 1L32 0ZM16 1L16 3L15 3L15 4L16 4L16 3L17 3L17 2L18 2L18 3L19 3L19 2L18 2L18 1ZM10 2L10 3L11 3L11 2ZM23 4L23 5L22 5L22 6L21 6L21 7L20 7L20 6L19 6L19 5L18 5L18 6L17 6L17 7L18 7L18 8L17 8L17 9L15 9L15 10L14 10L14 8L13 8L13 11L12 11L12 10L10 10L10 11L12 11L12 13L11 13L11 12L7 12L7 13L6 13L6 14L7 14L7 13L8 13L8 14L9 14L9 13L11 13L11 14L12 14L12 15L9 15L9 16L11 16L11 17L12 17L12 18L13 18L13 19L10 19L10 17L8 17L8 18L7 18L7 17L6 17L6 18L7 18L7 19L6 19L6 20L5 20L5 18L4 18L4 20L5 20L5 21L4 21L4 22L5 22L5 21L6 21L6 22L7 22L7 23L9 23L9 20L12 20L12 22L10 22L10 23L11 23L11 24L10 24L10 25L14 25L14 24L15 24L15 23L16 23L16 22L17 22L17 23L18 23L18 22L20 22L20 23L19 23L19 24L18 24L18 26L19 26L19 24L20 24L20 25L21 25L21 22L22 22L22 21L25 21L25 24L26 24L26 23L27 23L27 22L26 22L26 21L25 21L25 19L24 19L24 20L23 20L23 17L24 17L24 15L23 15L23 14L22 14L22 13L24 13L24 11L25 11L25 10L24 10L24 11L22 11L22 10L23 10L23 9L24 9L24 8L23 8L23 9L21 9L21 10L19 10L19 11L22 11L22 12L17 12L17 11L18 11L18 8L19 8L19 9L20 9L20 8L22 8L22 6L23 6L23 7L24 7L24 6L25 6L25 5L24 5L24 4ZM23 5L23 6L24 6L24 5ZM11 6L11 8L10 8L10 9L11 9L11 8L12 8L12 6ZM18 6L18 7L19 7L19 6ZM28 6L28 7L29 7L29 6ZM6 9L6 10L7 10L7 9ZM40 9L40 10L41 10L41 9ZM15 10L15 11L14 11L14 12L15 12L15 13L14 13L14 14L13 14L13 13L12 13L12 14L13 14L13 15L12 15L12 16L13 16L13 17L14 17L14 16L15 16L15 17L18 17L18 15L16 15L16 14L15 14L15 13L17 13L17 14L18 14L18 13L17 13L17 12L16 12L16 11L17 11L17 10ZM28 10L28 12L29 12L29 10ZM38 10L38 11L37 11L37 12L38 12L38 11L39 11L39 10ZM20 13L20 14L21 14L21 15L22 15L22 14L21 14L21 13ZM37 14L37 16L38 16L38 18L39 18L39 16L38 16L38 15L40 15L40 14ZM4 15L4 16L5 16L5 15ZM6 15L6 16L7 16L7 15ZM13 15L13 16L14 16L14 15ZM31 15L31 16L30 16L30 18L32 18L32 20L35 20L35 21L34 21L34 23L35 23L35 24L36 24L36 25L34 25L34 24L31 24L31 23L33 23L33 21L32 21L32 22L31 22L31 21L30 21L30 20L31 20L31 19L26 19L26 20L29 20L29 21L28 21L28 24L29 24L29 25L28 25L28 26L30 26L30 24L31 24L31 26L32 26L32 25L34 25L34 26L35 26L35 28L34 28L34 29L37 29L37 30L38 30L38 29L37 29L37 28L36 28L36 27L37 27L37 26L38 26L38 27L39 27L39 26L40 26L40 25L39 25L39 26L38 26L38 24L36 24L36 23L35 23L35 22L36 22L36 19L33 19L33 18L32 18L32 17L33 17L33 16L32 16L32 15ZM19 16L19 18L21 18L21 19L20 19L20 20L19 20L19 19L18 19L18 18L16 18L16 19L15 19L15 18L14 18L14 20L13 20L13 22L12 22L12 24L14 24L14 23L15 23L15 22L14 22L14 21L18 21L18 20L19 20L19 21L22 21L22 20L21 20L21 19L22 19L22 17L23 17L23 16L21 16L21 17L20 17L20 16ZM8 18L8 19L7 19L7 20L6 20L6 21L8 21L8 19L9 19L9 18ZM17 19L17 20L18 20L18 19ZM37 19L37 20L38 20L38 19ZM23 22L23 23L22 23L22 25L24 25L24 24L23 24L23 23L24 23L24 22ZM37 22L37 23L38 23L38 22ZM29 23L29 24L30 24L30 23ZM8 25L8 27L6 27L6 28L8 28L8 29L9 29L9 30L10 30L10 29L11 29L11 31L12 31L12 30L13 30L13 29L12 29L12 28L13 28L13 27L14 27L14 26L11 26L11 27L10 27L10 26L9 26L9 25ZM25 25L25 30L28 30L28 31L26 31L26 32L25 32L25 31L24 31L24 30L23 30L23 31L22 31L22 30L20 30L20 31L21 31L21 32L19 32L19 34L20 34L20 33L22 33L22 34L24 34L24 35L22 35L22 36L20 36L20 35L19 35L19 36L18 36L18 35L17 35L17 36L18 36L18 37L17 37L17 38L16 38L16 37L15 37L15 36L14 36L14 37L15 37L15 38L14 38L14 39L15 39L15 40L17 40L17 38L18 38L18 37L19 37L19 38L20 38L20 37L21 37L21 38L23 38L23 37L24 37L24 36L28 36L28 37L29 37L29 36L30 36L30 37L31 37L31 36L30 36L30 35L32 35L32 32L33 32L33 31L35 31L35 32L37 32L37 33L38 33L38 32L37 32L37 31L35 31L35 30L33 30L33 31L32 31L32 29L31 29L31 27L29 27L29 30L28 30L28 29L27 29L27 28L28 28L28 27L27 27L27 26L26 26L26 25ZM36 25L36 26L37 26L37 25ZM1 26L1 27L2 27L2 26ZM16 26L16 28L17 28L17 31L15 31L15 28L14 28L14 31L15 31L15 32L17 32L17 31L19 31L19 27L18 27L18 28L17 28L17 26ZM21 26L21 27L20 27L20 29L22 29L22 27L23 27L23 26ZM8 27L8 28L9 28L9 27ZM26 27L26 28L27 28L27 27ZM32 27L32 28L33 28L33 27ZM30 29L30 30L29 30L29 31L31 31L31 29ZM2 31L2 32L3 32L3 31ZM9 31L9 32L8 32L8 33L9 33L9 32L10 32L10 31ZM23 31L23 32L22 32L22 33L23 33L23 32L24 32L24 31ZM27 32L27 33L28 33L28 32ZM29 32L29 34L31 34L31 32ZM25 33L25 35L26 35L26 33ZM33 33L33 36L36 36L36 33ZM27 34L27 35L28 35L28 36L29 36L29 35L28 35L28 34ZM34 34L34 35L35 35L35 34ZM8 36L8 38L9 38L9 37L10 37L10 36ZM22 36L22 37L23 37L23 36ZM11 38L11 39L13 39L13 38ZM38 38L38 39L39 39L39 38ZM0 0L0 7L7 7L7 0ZM1 1L1 6L6 6L6 1ZM2 2L2 5L5 5L5 2ZM34 0L34 7L41 7L41 0ZM35 1L35 6L40 6L40 1ZM36 2L36 5L39 5L39 2ZM0 34L0 41L7 41L7 34ZM1 35L1 40L6 40L6 35ZM2 36L2 39L5 39L5 36Z" fill="#000000"/></g></g></svg>
